<svg xmlns="http://www.w3.org/2000/svg" width="150" height="120" viewBox="0 0 150 120">
  <path id="CurtainClosed" d="M31.5,47.156A4.541,4.541,0,0,1,36,42.57h78a4.587,4.587,0,0,1,0,9.172H36A4.541,4.541,0,0,1,31.5,47.156ZM36,103.084h78a4.587,4.587,0,0,0,0-9.172H36a4.587,4.587,0,0,0,0,9.172ZM36,68.64h78a4.587,4.587,0,0,0,0-9.172H36a4.587,4.587,0,0,0,0,9.172Zm0,17.546h78a4.587,4.587,0,0,0,0-9.172H36a4.587,4.587,0,0,0,0,9.172ZM136.5,29.451V116.2h9a4.587,4.587,0,0,1,0,9.172H4.5a4.587,4.587,0,0,1,0-9.172h9V29.451h-9A4.541,4.541,0,0,1,0,24.865V9.961A4.541,4.541,0,0,1,4.5,5.375h141A4.541,4.541,0,0,1,150,9.961v14.9a4.541,4.541,0,0,1-4.5,4.586Zm-9,0H22.5V116.2h105Z" transform="translate(0 -5.375)" fill="#fff"/>
</svg>
