<svg xmlns="http://www.w3.org/2000/svg" width="150" height="120" viewBox="0 0 150 120">
  <g id="CurtainOpen" transform="translate(-690 -435)">
    <path id="roller-shutter-door" d="M136.5,29.451V116.2h9a4.587,4.587,0,0,1,0,9.172H4.5a4.587,4.587,0,0,1,0-9.172h9V29.451h-9A4.541,4.541,0,0,1,0,24.865V9.961A4.541,4.541,0,0,1,4.5,5.375h141A4.541,4.541,0,0,1,150,9.961v14.9a4.541,4.541,0,0,1-4.5,4.586Zm-9,0H22.5V116.2h105Z" transform="translate(690 429.625)" fill="#fff"/>
    <g id="_24px_2_" data-name="24px (2)" transform="translate(725 463)">
      <path id="Path_11470" data-name="Path 11470" d="M0,0H37V37H0Z" fill="none"/>
      <path id="Path_11471" data-name="Path 11471" d="M10.164,7.387,7.3,4.534,5.057,6.781,7.9,9.634Zm-4.391,9.02H1v3.187H5.773ZM20.091.55H16.909v4.7h3.182V.55ZM31.943,6.781,29.7,4.534,26.852,7.387,29.1,9.634ZM26.836,28.613l2.848,2.868,2.243-2.247-2.864-2.853-2.227,2.231Zm4.391-12.207v3.187H36V16.406ZM18.5,8.438A9.562,9.562,0,1,0,28.045,18,9.561,9.561,0,0,0,18.5,8.438ZM16.909,35.45h3.182v-4.7H16.909ZM5.057,29.219,7.3,31.466,10.148,28.6,7.9,26.351Z" transform="translate(0 0)" fill="#fff"/>
    </g>
  </g>
</svg>
