<?xml version="1.0"?>
<svg xmlns="http://www.w3.org/2000/svg" height="512px" viewBox="0 0 64 64" width="512px"><g><path d="m45 21a1 1 0 0 0 1-1v-18a1 1 0 0 0 -1-1h-26a1 1 0 0 0 -1 1v18a1 1 0 0 0 1 1h1v1h-1a1 1 0 0 0 -1 1v36a1 1 0 0 0 1 1v2a1 1 0 0 0 1 1h3a1 1 0 0 0 1-1v-2h16v2a1 1 0 0 0 1 1h3a1 1 0 0 0 1-1v-2a1 1 0 0 0 1-1v-36a1 1 0 0 0 -1-1h-1v-1zm-25-18h24v16h-24zm0 21h24v34h-24zm2 37h-1v-1h1zm21 0h-1v-1h1zm-1-39h-20v-1h20z" data-original="#000000" class="active-path" data-old_color="#000000" fill="#FFFFFF"/><path d="m22 14a1 1 0 0 0 1-1v-5a1 1 0 0 0 -2 0v5a1 1 0 0 0 1 1z" data-original="#000000" class="active-path" data-old_color="#000000" fill="#FFFFFF"/><path d="m23 28a1 1 0 0 0 -2 0v5a1 1 0 0 0 2 0z" data-original="#000000" class="active-path" data-old_color="#000000" fill="#FFFFFF"/><path d="m32 57h5a1 1 0 0 0 0-2h-5a1 1 0 0 0 0 2z" data-original="#000000" class="active-path" data-old_color="#000000" fill="#FFFFFF"/><path d="m40 57h1a1 1 0 0 0 0-2h-1a1 1 0 0 0 0 2z" data-original="#000000" class="active-path" data-old_color="#000000" fill="#FFFFFF"/></g> </svg>
