<svg xmlns="http://www.w3.org/2000/svg" width="330.18" height="503.05" viewBox="0 0 330.18 503.05">
  <g id="lightbulb-off" transform="translate(-155.4 -137.45)">
    <g id="Group_7" data-name="Group 7">
      <g id="Group_2" data-name="Group 2">
        <path id="Path_1" data-name="Path 1" d="M333.94,138.49l6.62.68,6.55.94,6.46,1.19,6.37,1.45,6.27,1.69,6.18,1.93,6.07,2.16,5.96,2.4,5.84,2.61,5.73,2.84,5.59,3.05,5.46,3.25,5.33,3.46,5.18,3.65,5.04,3.85,4.88,4.03,4.72,4.21,4.56,4.39,4.39,4.56,4.21,4.72,4.03,4.88,3.85,5.04,3.65,5.18,3.46,5.33,3.26,5.46,3.04,5.6,2.84,5.72,2.62,5.84,2.39,5.96,2.16,6.07,1.93,6.18,1.69,6.28,1.45,6.37,1.19,6.45.94,6.55.68,6.62.41,6.69.14,6.76-.04,3.46-.11,3.46-.19,3.44-.26,3.43-.34,3.43-.4,3.41-.48,3.4-.55,3.38-.62,3.37-.7,3.35-.76,3.34-.83,3.31-.9,3.3-.97,3.28-1.03,3.25-1.11,3.24-1.17,3.21-1.23,3.18-1.31,3.16-1.36,3.14-1.43,3.1-1.5,3.08-1.56,3.04-1.62,3.02-1.68,2.98-1.74,2.95-1.81,2.92-1.86,2.88-1.93,2.85-1.99,2.81-2.04,2.77-2.1,2.73-2.16,2.69-2.22,2.64-2.27,2.61-2.33,2.56-2.39,2.52-2.44,2.47-2.49,2.43-2.55,2.38-1.78,1.77-1.9,2.01-1.79,2.11-1.69,2.21-1.6,2.29-1.49,2.37-1.4,2.45-1.31,2.5-1.22,2.57-1.14,2.61-1.06,2.65-.97,2.68-.9,2.7-.83,2.72-.76,2.73-.69,2.73-.63,2.72-.57,2.71-.51,2.68-.45,2.65-.4,2.61-.36,2.56-.3,2.5-.27,2.44-.22,2.38-.19,2.29-.16,2.2-.12,2.11-.09,2-.08,1.9-.04,1.77-.03,1.65-.02,1.51v1.37l.01,1.22.02,1.06.01.89.02.72.02.53.02.35v.37l-.01.22-.01.22-.01.22-.02.22-.03.22-.02.22-.04.22-.03.22-.04.22-.04.21-.05.22-.05.21-.06.21-.06.21-.06.21-.06.21-.07.2-.08.21-.07.2-.08.2-.08.19-.09.2-.09.19-.09.19-.1.18-.1.19-.1.18-.1.17-.11.18-.11.17-.11.16-.11.17-.12.16-.12.15-.12.16-.13.14-.13.15-.13.14-.13.13-.13.13-.14.13-.14.13-.14.13-.14.12-.15.12-.15.12-.15.11-.15.11-.15.11-.16.11-.16.11-.16.1-.16.09-.17.1-.16.09-.17.09-.18.09-.17.08-.18.08-.18.07-.18.08-.18.07-.19.06-.18.06-.19.06-.19.06-.2.05-.2.05-.19.04-.21.04-.2.04-.2.03-.21.03-.21.02-.21.02-.22.01-.21.01-.22.01H244.53l-.18-.01-.19-.01-.18-.01-.19-.02-.18-.02-.19-.03-.19-.03-.19-.04-.19-.04-.2-.04-.19-.05-.19-.05-.19-.06-.2-.06-.19-.06-.19-.06-.19-.07-.19-.08-.19-.07-.19-.08-.18-.08-.19-.09-.18-.09-.19-.09-.18-.1-.17-.09-.18-.1-.17-.11-.17-.11-.17-.11-.17-.11-.16-.11-.16-.12-.15-.12-.15-.12-.15-.13-.14-.13-.14-.13-.14-.13-.17-.17-.17-.18-.16-.18-.16-.18-.15-.18-.14-.17-.14-.18-.13-.18-.12-.18-.12-.18-.11-.18-.11-.18-.11-.19-.09-.18-.1-.18-.08-.19-.09-.18-.08-.19-.07-.19-.07-.18-.06-.19-.06-.19-.06-.19-.05-.2-.05-.19-.04-.2-.04-.19-.04-.2-.03-.2-.03-.21-.03-.2-.02-.2-.02-.21-.02-.21-.01-.21-.01-.21-.01-.22v-.21l-.01-.22v-.22l.05-.15.05-.35.05-.53.05-.72.05-.89.03-1.06.03-1.22.02-1.37v-1.51l-.02-1.65-.05-1.77-.06-1.9-.1-2-.12-2.11-.16-2.2-.19-2.29-.23-2.38-.27-2.44-.32-2.5-.36-2.56-.42-2.61-.46-2.65-.53-2.68-.58-2.71-.64-2.72-.71-2.73-.77-2.73-.84-2.72-.92-2.7-.99-2.68-1.07-2.65-1.15-2.61-1.23-2.57-1.32-2.5-1.41-2.45-1.51-2.37-1.59-2.29-1.7-2.21-1.8-2.11-1.9-2.01-2.59-2.33-2.54-2.4-2.49-2.44-2.43-2.49-2.37-2.55-2.32-2.6-2.26-2.64-2.2-2.69-2.15-2.74-2.08-2.78-2.03-2.82-1.96-2.87-1.91-2.91-1.85-2.94-1.78-2.99-1.72-3.02L175.21,380l-1.59-3.09-1.53-3.13-1.46-3.16-1.4-3.19-1.34-3.22-1.26-3.25-1.2-3.28-1.13-3.3-1.07-3.32-.99-3.36-.92-3.37-.86-3.39-.78-3.42-.71-3.43-.64-3.45-.56-3.47-.49-3.49-.42-3.49-.35-3.51-.26-3.52-.2-3.54-.11-3.54-.04-3.55.14-6.76.41-6.69.67-6.62.94-6.55,1.2-6.45,1.44-6.37,1.69-6.28,1.93-6.18,2.16-6.07,2.4-5.96,2.61-5.84,2.84-5.72,3.05-5.6,3.25-5.46,3.46-5.33,3.66-5.18,3.84-5.04,4.03-4.88,4.22-4.72,4.38-4.56,4.56-4.39,4.72-4.21,4.89-4.03,5.03-3.85,5.18-3.65,5.33-3.46,5.46-3.25,5.6-3.05,5.72-2.84,5.85-2.61,5.96-2.4,6.07-2.16,6.17-1.93,6.28-1.69,6.37-1.45,6.46-1.19,6.54-.94,6.62-.68,6.7-.41,6.76-.13,6.76.13Zm-25.91,19.47-5.84.59-5.76.82-5.69,1.04-5.61,1.26-5.52,1.48-5.43,1.68-5.34,1.9-5.24,2.09-5.13,2.28-5.03,2.48-4.91,2.67-4.79,2.84-4.68,3.03-4.54,3.19-4.42,3.37-4.28,3.53-4.13,3.69-4,3.84-3.84,3.99-3.69,4.14-3.53,4.28-3.36,4.42-3.2,4.54-3.02,4.67-2.85,4.8-2.67,4.91-2.47,5.03-2.29,5.13-2.09,5.24-1.89,5.34-1.69,5.43-1.47,5.52-1.26,5.61-1.05,5.69-.82,5.76-.59,5.84-.35,5.9-.12,5.96.03,3.15.1,3.14.17,3.13.24,3.11.31,3.11.37,3.08.43,3.08.51,3.06.56,3.04.63,3.03.7,3.01.76,2.98.82,2.97.88,2.95.95,2.92,1,2.9,1.07,2.88,1.13,2.85,1.19,2.83,1.25,2.8,1.3,2.77,1.37,2.75,1.42,2.71,1.48,2.68,1.53,2.66,1.6,2.62,1.64,2.58,1.71,2.55,1.76,2.52,1.81,2.48,1.87,2.44,1.92,2.41,1.97,2.36,2.02,2.33,2.08,2.28,2.13,2.25,2.18,2.2,2.23,2.15,2.28,2.11,2.33,2.07,1.82,1.94,1.75,2,1.68,2.06,1.6,2.11,1.53,2.16,1.47,2.21,1.39,2.25,1.33,2.28,1.26,2.32,1.2,2.35,1.14,2.38,1.08,2.4,1.02,2.42.96,2.43.91,2.45.85,2.45.8,2.46.75,2.46.71,2.45.65,2.45.61,2.44.57,2.42.52,2.4.49,2.38.44,2.35.41,2.33.37,2.29.33,2.25.31,2.21.27,2.17.25,2.12.21,2.06.19,2.01.17,1.95.14,1.88.12,1.82.1,1.74.08,1.67.07,1.59.05,1.51H385.61l.05-1.5.07-1.58.08-1.66.1-1.72.12-1.79.14-1.85.16-1.91.19-1.97.21-2.02.23-2.07.27-2.11.29-2.15.32-2.19.36-2.23.39-2.25.42-2.29.46-2.3.5-2.33.54-2.35.58-2.36.62-2.37.66-2.37.71-2.38.76-2.38.8-2.37.86-2.37.9-2.35.96-2.34,1.01-2.33,1.06-2.3,1.12-2.28,1.18-2.24,1.24-2.22,1.3-2.18,1.37-2.14,1.42-2.1,1.5-2.05,1.55-2.01,1.63-1.95,1.7-1.89v-.05l.01-.05.01-.05.01-.05.02-.05.02-.06.03-.05.03-.06.03-.06.03-.06.04-.06.04-.06.04-.07.05-.06.04-.07.05-.06.05-.07.06-.06.05-.07.05-.07.06-.06.06-.07.05-.07.06-.06.06-.07.06-.06.06-.07.06-.06.06-.06.06-.06.05-.07.06-.05.06-.06.05-.06.06-.05.05-.06.05-.05.05-.05.05-.05.04-.04,2.33-2.07,2.28-2.11,2.22-2.15,2.17-2.2,2.12-2.25,2.07-2.28,2.01-2.33,1.96-2.36,1.91-2.41,1.85-2.44,1.8-2.48,1.74-2.52,1.68-2.55,1.63-2.58,1.57-2.62,1.52-2.66,1.45-2.68,1.4-2.71,1.35-2.75,1.28-2.77,1.23-2.8,1.16-2.83,1.11-2.85,1.04-2.88.99-2.9.92-2.92.87-2.95.8-2.97.74-2.98.68-3.01.61-3.03.56-3.04.48-3.06.43-3.08.36-3.08.3-3.11.23-3.11.16-3.13.1-3.14.03-3.15-.12-5.96-.35-5.9-.59-5.84-.82-5.76-1.05-5.69-1.26-5.61-1.47-5.52L457,256.23l-1.89-5.34-2.09-5.24-2.29-5.13-2.47-5.03-2.67-4.91-2.85-4.8-3.02-4.67-3.2-4.54-3.36-4.42-3.53-4.28-3.69-4.14-3.84-3.99-4-3.84-4.13-3.69-4.28-3.53-4.42-3.37-4.54-3.19-4.68-3.03-4.79-2.84-4.91-2.67-5.03-2.48-5.13-2.28-5.24-2.09-5.34-1.9-5.43-1.68-5.52-1.48-5.61-1.26-5.69-1.04-5.76-.82-5.84-.59-5.9-.36-5.97-.12-5.96.12Z" fill="#fff"/>
        <g id="Group_1" data-name="Group 1">
          <path id="Path_2" data-name="Path 2" d="M333.94,138.49l6.62.68,6.55.94,6.46,1.19,6.37,1.45,6.27,1.69,6.18,1.93,6.07,2.16,5.96,2.4,5.84,2.61,5.73,2.84,5.59,3.05,5.46,3.25,5.33,3.46,5.18,3.65,5.04,3.85,4.88,4.03,4.72,4.21,4.56,4.39,4.39,4.56,4.21,4.72,4.03,4.88,3.85,5.04,3.65,5.18,3.46,5.33,3.26,5.46,3.04,5.6,2.84,5.72,2.62,5.84,2.39,5.96,2.16,6.07,1.93,6.18,1.69,6.28,1.45,6.37,1.19,6.45.94,6.55.68,6.62.41,6.69.14,6.76-.04,3.46-.11,3.46-.19,3.44-.26,3.43-.34,3.43-.4,3.41-.48,3.4-.55,3.38-.62,3.37-.7,3.35-.76,3.34-.83,3.31-.9,3.3-.97,3.28-1.03,3.25-1.11,3.24-1.17,3.21-1.23,3.18-1.31,3.16-1.36,3.14-1.43,3.1-1.5,3.08-1.56,3.04-1.62,3.02-1.68,2.98-1.74,2.95-1.81,2.92-1.86,2.88-1.93,2.85-1.99,2.81-2.04,2.77-2.1,2.73-2.16,2.69-2.22,2.64-2.27,2.61-2.33,2.56-2.39,2.52-2.44,2.47-2.49,2.43-2.55,2.38-1.78,1.77-1.9,2.01-1.79,2.11-1.69,2.21-1.6,2.29-1.49,2.37-1.4,2.45-1.31,2.5-1.22,2.57-1.14,2.61-1.06,2.65-.97,2.68-.9,2.7-.83,2.72-.76,2.73-.69,2.73-.63,2.72-.57,2.71-.51,2.68-.45,2.65-.4,2.61-.36,2.56-.3,2.5-.27,2.44-.22,2.38-.19,2.29-.16,2.2-.12,2.11-.09,2-.08,1.9-.04,1.77-.03,1.65-.02,1.51v1.37l.01,1.22.02,1.06.01.89.02.72.02.53.02.35v.37l-.01.22-.01.22-.01.22-.02.22-.03.22-.02.22-.04.22-.03.22-.04.22-.04.21-.05.22-.05.21-.06.21-.06.21-.06.21-.06.21-.07.2-.08.21-.07.2-.08.2-.08.19-.09.2-.09.19-.09.19-.1.18-.1.19-.1.18-.1.17-.11.18-.11.17-.11.16-.11.17-.12.16-.12.15-.12.16-.13.14-.13.15-.13.14-.13.13-.13.13-.14.13-.14.13-.14.13-.14.12-.15.12-.15.12-.15.11-.15.11-.15.11-.16.11-.16.11-.16.1-.16.09-.17.1-.16.09-.17.09-.18.09-.17.08-.18.08-.18.07-.18.08-.18.07-.19.06-.18.06-.19.06-.19.06-.2.05-.2.05-.19.04-.21.04-.2.04-.2.03-.21.03-.21.02-.21.02-.22.01-.21.01-.22.01H244.53l-.18-.01-.19-.01-.18-.01-.19-.02-.18-.02-.19-.03-.19-.03-.19-.04-.19-.04-.2-.04-.19-.05-.19-.05-.19-.06-.2-.06-.19-.06-.19-.06-.19-.07-.19-.08-.19-.07-.19-.08-.18-.08-.19-.09-.18-.09-.19-.09-.18-.1-.17-.09-.18-.1-.17-.11-.17-.11-.17-.11-.17-.11-.16-.11-.16-.12-.15-.12-.15-.12-.15-.13-.14-.13-.14-.13-.14-.13-.17-.17-.17-.18-.16-.18-.16-.18-.15-.18-.14-.17-.14-.18-.13-.18-.12-.18-.12-.18-.11-.18-.11-.18-.11-.19-.09-.18-.1-.18-.08-.19-.09-.18-.08-.19-.07-.19-.07-.18-.06-.19-.06-.19-.06-.19-.05-.2-.05-.19-.04-.2-.04-.19-.04-.2-.03-.2-.03-.21-.03-.2-.02-.2-.02-.21-.02-.21-.01-.21-.01-.21-.01-.22v-.21l-.01-.22v-.22l.05-.15.05-.35.05-.53.05-.72.05-.89.03-1.06.03-1.22.02-1.37v-1.51l-.02-1.65-.05-1.77-.06-1.9-.1-2-.12-2.11-.16-2.2-.19-2.29-.23-2.38-.27-2.44-.32-2.5-.36-2.56-.42-2.61-.46-2.65-.53-2.68-.58-2.71-.64-2.72-.71-2.73-.77-2.73-.84-2.72-.92-2.7-.99-2.68-1.07-2.65-1.15-2.61-1.23-2.57-1.32-2.5-1.41-2.45-1.51-2.37-1.59-2.29-1.7-2.21-1.8-2.11-1.9-2.01-2.59-2.33-2.54-2.4-2.49-2.44-2.43-2.49-2.37-2.55-2.32-2.6-2.26-2.64-2.2-2.69-2.15-2.74-2.08-2.78-2.03-2.82-1.96-2.87-1.91-2.91-1.85-2.94-1.78-2.99-1.72-3.02L175.21,380l-1.59-3.09-1.53-3.13-1.46-3.16-1.4-3.19-1.34-3.22-1.26-3.25-1.2-3.28-1.13-3.3-1.07-3.32-.99-3.36-.92-3.37-.86-3.39-.78-3.42-.71-3.43-.64-3.45-.56-3.47-.49-3.49-.42-3.49-.35-3.51-.26-3.52-.2-3.54-.11-3.54-.04-3.55.14-6.76.41-6.69.67-6.62.94-6.55,1.2-6.45,1.44-6.37,1.69-6.28,1.93-6.18,2.16-6.07,2.4-5.96,2.61-5.84,2.84-5.72,3.05-5.6,3.25-5.46,3.46-5.33,3.66-5.18,3.84-5.04,4.03-4.88,4.22-4.72,4.38-4.56,4.56-4.39,4.72-4.21,4.89-4.03,5.03-3.85,5.18-3.65,5.33-3.46,5.46-3.25,5.6-3.05,5.72-2.84,5.85-2.61,5.96-2.4,6.07-2.16,6.17-1.93,6.28-1.69,6.37-1.45,6.46-1.19,6.54-.94,6.62-.68,6.7-.41,6.76-.13,6.76.13Zm-25.91,19.47-5.84.59-5.76.82-5.69,1.04-5.61,1.26-5.52,1.48-5.43,1.68-5.34,1.9-5.24,2.09-5.13,2.28-5.03,2.48-4.91,2.67-4.79,2.84-4.68,3.03-4.54,3.19-4.42,3.37-4.28,3.53-4.13,3.69-4,3.84-3.84,3.99-3.69,4.14-3.53,4.28-3.36,4.42-3.2,4.54-3.02,4.67-2.85,4.8-2.67,4.91-2.47,5.03-2.29,5.13-2.09,5.24-1.89,5.34-1.69,5.43-1.47,5.52-1.26,5.61-1.05,5.69-.82,5.76-.59,5.84-.35,5.9-.12,5.96.03,3.15.1,3.14.17,3.13.24,3.11.31,3.11.37,3.08.43,3.08.51,3.06.56,3.04.63,3.03.7,3.01.76,2.98.82,2.97.88,2.95.95,2.92,1,2.9,1.07,2.88,1.13,2.85,1.19,2.83,1.25,2.8,1.3,2.77,1.37,2.75,1.42,2.71,1.48,2.68,1.53,2.66,1.6,2.62,1.64,2.58,1.71,2.55,1.76,2.52,1.81,2.48,1.87,2.44,1.92,2.41,1.97,2.36,2.02,2.33,2.08,2.28,2.13,2.25,2.18,2.2,2.23,2.15,2.28,2.11,2.33,2.07,1.82,1.94,1.75,2,1.68,2.06,1.6,2.11,1.53,2.16,1.47,2.21,1.39,2.25,1.33,2.28,1.26,2.32,1.2,2.35,1.14,2.38,1.08,2.4,1.02,2.42.96,2.43.91,2.45.85,2.45.8,2.46.75,2.46.71,2.45.65,2.45.61,2.44.57,2.42.52,2.4.49,2.38.44,2.35.41,2.33.37,2.29.33,2.25.31,2.21.27,2.17.25,2.12.21,2.06.19,2.01.17,1.95.14,1.88.12,1.82.1,1.74.08,1.67.07,1.59.05,1.51H385.61l.05-1.5.07-1.58.08-1.66.1-1.72.12-1.79.14-1.85.16-1.91.19-1.97.21-2.02.23-2.07.27-2.11.29-2.15.32-2.19.36-2.23.39-2.25.42-2.29.46-2.3.5-2.33.54-2.35.58-2.36.62-2.37.66-2.37.71-2.38.76-2.38.8-2.37.86-2.37.9-2.35.96-2.34,1.01-2.33,1.06-2.3,1.12-2.28,1.18-2.24,1.24-2.22,1.3-2.18,1.37-2.14,1.42-2.1,1.5-2.05,1.55-2.01,1.63-1.95,1.7-1.89v-.05l.01-.05.01-.05.01-.05.02-.05.02-.06.03-.05.03-.06.03-.06.03-.06.04-.06.04-.06.04-.07.05-.06.04-.07.05-.06.05-.07.06-.06.05-.07.05-.07.06-.06.06-.07.05-.07.06-.06.06-.07.06-.06.06-.07.06-.06.06-.06.06-.06.05-.07.06-.05.06-.06.05-.06.06-.05.05-.06.05-.05.05-.05.05-.05.04-.04,2.33-2.07,2.28-2.11,2.22-2.15,2.17-2.2,2.12-2.25,2.07-2.28,2.01-2.33,1.96-2.36,1.91-2.41,1.85-2.44,1.8-2.48,1.74-2.52,1.68-2.55,1.63-2.58,1.57-2.62,1.52-2.66,1.45-2.68,1.4-2.71,1.35-2.75,1.28-2.77,1.23-2.8,1.16-2.83,1.11-2.85,1.04-2.88.99-2.9.92-2.92.87-2.95.8-2.97.74-2.98.68-3.01.61-3.03.56-3.04.48-3.06.43-3.08.36-3.08.3-3.11.23-3.11.16-3.13.1-3.14.03-3.15-.12-5.96-.35-5.9-.59-5.84-.82-5.76-1.05-5.69-1.26-5.61-1.47-5.52L457,256.23l-1.89-5.34-2.09-5.24-2.29-5.13-2.47-5.03-2.67-4.91-2.85-4.8-3.02-4.67-3.2-4.54-3.36-4.42-3.53-4.28-3.69-4.14-3.84-3.99-4-3.84-4.13-3.69-4.28-3.53-4.42-3.37-4.54-3.19-4.68-3.03-4.79-2.84-4.91-2.67-5.03-2.48-5.13-2.28-5.24-2.09-5.34-1.9-5.43-1.68-5.52-1.48-5.61-1.26-5.69-1.04-5.76-.82-5.84-.59-5.9-.36-5.97-.12-5.96.12Z" fill="#fff" stroke="rgba(0,0,0,0)" stroke-width="1"/>
        </g>
      </g>
      <g id="Group_4" data-name="Group 4">
        <path id="Path_3" data-name="Path 3" d="M387.64,530.56l.99.1.99.14.97.18.96.22.95.26.93.29.91.33.9.36.88.4.87.43.84.46.83.49.8.53.79.55.76.59.74.61.71.63.69.67.67.69.63.71.61.74.59.76.55.79.52.8.5.83.46.84.43.87.4.88.36.9.33.91.29.93.26.95.22.96.18.97.14.99.1.99.07,1.01.02,1.02-.02,1.01-.07,1.01-.1.99-.14.98-.18.96-.22.95-.26.94-.3.92-.33.9-.36.88-.4.87-.44.85-.46.83-.5.81-.53.79-.56.77-.59.75-.62.72-.65.71-.67.67-.7.66-.73.63-.75.6-.78.58-.8.55-.82.52-.85.49-.87.47-.88.43-.91.4-.92.38-.95.34-.96.31-.97.27-1,.24-1,.21-1.03.17-1.03.14-1.05.1-1.06.06H254.18l-1.02-.02-1.01-.06-.99-.1-.99-.15-.97-.18-.96-.22-.95-.25-.93-.3-.91-.32-.9-.37-.88-.39-.87-.43-.84-.47-.83-.49-.8-.52-.79-.56-.76-.58-.74-.61-.71-.64-.69-.66-.67-.69-.63-.72-.61-.74-.59-.76-.55-.78-.52-.81-.5-.82-.46-.85-.43-.86-.4-.88-.36-.9-.33-.92-.29-.93-.26-.94-.22-.96-.18-.98-.14-.98-.1-1-.07-1.01-.02-1.01.02-1.02.07-1.01.1-.99.14-.99.18-.97.22-.96.26-.95.29-.93.33-.91.36-.9.4-.88.43-.87.46-.84.5-.83.52-.8.55-.79.59-.76.61-.74.63-.71.67-.69.69-.67.71-.63.74-.61.76-.59.79-.55.8-.53.83-.49.84-.46.87-.43.88-.4.9-.36.91-.33.93-.29.95-.26.96-.22.97-.18.99-.14.99-.1,1.01-.07,1.02-.02H385.61l1.02.02ZM253.96,550.01l-.22.01-.21.02-.2.02-.21.03-.19.04-.19.04-.19.05-.18.05-.18.06-.17.07-.17.07-.16.08-.16.09-.15.09-.15.09-.14.11-.14.1-.13.12-.12.12-.12.12-.11.13-.11.14-.1.14-.1.15-.09.15-.09.15-.07.17-.08.16-.06.18-.07.17-.05.19-.05.18-.04.2-.04.19-.03.2-.02.21-.02.21-.01.22v.22l.01.22.01.21.02.21.03.21.04.2.04.2.06.19.06.18.06.19.08.17.08.18.09.16.09.17.1.15.11.16.11.14.11.14.12.14.13.13.13.12.14.12.14.12.14.1.15.11.15.09.15.09.16.09.16.08.16.07.17.07.17.06.17.05.17.05.17.04.17.04.18.03.18.02.17.02.18.01H385.79l.17-.01.17-.02.17-.02.17-.03.16-.04.16-.04.16-.05.16-.05.15-.06.15-.07.14-.07.14-.08.14-.09.13-.09.13-.09.13-.11.12-.1.12-.12.11-.12.11-.12.11-.13.09-.14.1-.14.09-.14.08-.16.08-.15.08-.17.07-.16.06-.18.06-.17.05-.19.05-.18.04-.19.04-.2.02-.2.03-.21.01-.21.01-.21.01-.22-.01-.22-.01-.22-.02-.21-.03-.21-.04-.2-.05-.19-.05-.2-.06-.18-.07-.19-.07-.17-.08-.18-.09-.16-.09-.17-.1-.15-.11-.15-.11-.15-.12-.14-.12-.14-.12-.13-.13-.12-.14-.12-.14-.12-.14-.1-.15-.11-.15-.09-.16-.09-.15-.09-.16-.08-.17-.07-.16-.07-.17-.06-.17-.05-.17-.05-.17-.04-.18-.04-.17-.03-.18-.02-.18-.02-.17-.01H253.96Z" fill="#fff"/>
        <g id="Group_3" data-name="Group 3">
          <path id="Path_4" data-name="Path 4" d="M387.64,530.56l.99.1.99.14.97.18.96.22.95.26.93.29.91.33.9.36.88.4.87.43.84.46.83.49.8.53.79.55.76.59.74.61.71.63.69.67.67.69.63.71.61.74.59.76.55.79.52.8.5.83.46.84.43.87.4.88.36.9.33.91.29.93.26.95.22.96.18.97.14.99.1.99.07,1.01.02,1.02-.02,1.01-.07,1.01-.1.99-.14.98-.18.96-.22.95-.26.94-.3.92-.33.9-.36.88-.4.87-.44.85-.46.83-.5.81-.53.79-.56.77-.59.75-.62.72-.65.71-.67.67-.7.66-.73.63-.75.6-.78.58-.8.55-.82.52-.85.49-.87.47-.88.43-.91.4-.92.38-.95.34-.96.31-.97.27-1,.24-1,.21-1.03.17-1.03.14-1.05.1-1.06.06H254.18l-1.02-.02-1.01-.06-.99-.1-.99-.15-.97-.18-.96-.22-.95-.25-.93-.3-.91-.32-.9-.37-.88-.39-.87-.43-.84-.47-.83-.49-.8-.52-.79-.56-.76-.58-.74-.61-.71-.64-.69-.66-.67-.69-.63-.72-.61-.74-.59-.76-.55-.78-.52-.81-.5-.82-.46-.85-.43-.86-.4-.88-.36-.9-.33-.92-.29-.93-.26-.94-.22-.96-.18-.98-.14-.98-.1-1-.07-1.01-.02-1.01.02-1.02.07-1.01.1-.99.14-.99.18-.97.22-.96.26-.95.29-.93.33-.91.36-.9.4-.88.43-.87.46-.84.5-.83.52-.8.55-.79.59-.76.61-.74.63-.71.67-.69.69-.67.71-.63.74-.61.76-.59.79-.55.8-.53.83-.49.84-.46.87-.43.88-.4.9-.36.91-.33.93-.29.95-.26.96-.22.97-.18.99-.14.99-.1,1.01-.07,1.02-.02H385.61l1.02.02ZM253.96,550.01l-.22.01-.21.02-.2.02-.21.03-.19.04-.19.04-.19.05-.18.05-.18.06-.17.07-.17.07-.16.08-.16.09-.15.09-.15.09-.14.11-.14.1-.13.12-.12.12-.12.12-.11.13-.11.14-.1.14-.1.15-.09.15-.09.15-.07.17-.08.16-.06.18-.07.17-.05.19-.05.18-.04.2-.04.19-.03.2-.02.21-.02.21-.01.22v.22l.01.22.01.21.02.21.03.21.04.2.04.2.06.19.06.18.06.19.08.17.08.18.09.16.09.17.1.15.11.16.11.14.11.14.12.14.13.13.13.12.14.12.14.12.14.1.15.11.15.09.15.09.16.09.16.08.16.07.17.07.17.06.17.05.17.05.17.04.17.04.18.03.18.02.17.02.18.01H385.79l.17-.01.17-.02.17-.02.17-.03.16-.04.16-.04.16-.05.16-.05.15-.06.15-.07.14-.07.14-.08.14-.09.13-.09.13-.09.13-.11.12-.1.12-.12.11-.12.11-.12.11-.13.09-.14.1-.14.09-.14.08-.16.08-.15.08-.17.07-.16.06-.18.06-.17.05-.19.05-.18.04-.19.04-.2.02-.2.03-.21.01-.21.01-.21.01-.22-.01-.22-.01-.22-.02-.21-.03-.21-.04-.2-.05-.19-.05-.2-.06-.18-.07-.19-.07-.17-.08-.18-.09-.16-.09-.17-.1-.15-.11-.15-.11-.15-.12-.14-.12-.14-.12-.13-.13-.12-.14-.12-.14-.12-.14-.1-.15-.11-.15-.09-.16-.09-.15-.09-.16-.08-.17-.07-.16-.07-.17-.06-.17-.05-.17-.05-.17-.04-.18-.04-.17-.03-.18-.02-.18-.02-.17-.01H253.96Z" fill="#fff" stroke="rgba(0,0,0,0)" stroke-width="1"/>
        </g>
      </g>
      <g id="Group_6" data-name="Group 6">
        <path id="Path_5" data-name="Path 5" d="M368.1,590.35l.99.1.99.13.97.17.96.21.95.25.93.28.92.32.89.35.89.38.86.41.85.45.82.48.81.51.78.54.76.57.74.59.71.63.69.65.67.68.64.71.61.73.58.75.55.78.53.8.49.83.46.85.43.87.4.88.36.91.33.93.29.95.26.96.22.99.18,1,.14,1.01.11,1.03.06,1.05.02,1.05-.02,1.02-.06,1.01-.11.99-.14.99-.18.97-.22.96-.26.95-.29.93-.33.91-.36.9-.4.89-.43.86-.46.85-.49.82-.53.81-.55.78-.58.76-.61.74-.64.71-.67.69-.69.67-.71.64-.74.61-.76.58-.78.55-.81.53-.82.49-.85.46-.86.43-.89.4-.89.36-.92.33-.93.29-.95.26-.96.22-.97.18-.99.14-.99.11-1.01.06-1.02.02H273.72l-1.02-.02-1.01-.06-.99-.11-.99-.14-.97-.18-.96-.22-.95-.26-.93-.29-.92-.33-.89-.36-.89-.4-.86-.43-.85-.46-.82-.49-.81-.53-.78-.55-.76-.58-.74-.61-.71-.64-.69-.67-.67-.69-.64-.71-.61-.74-.58-.76-.55-.78-.53-.81-.49-.82-.46-.85-.43-.86-.4-.89-.36-.9-.33-.91-.29-.93-.26-.95-.22-.96-.18-.97-.14-.99-.11-.99-.06-1.01-.02-1.02.02-1.01.06-1.01.11-1,.14-.98.18-.97.22-.96.26-.95.29-.93.33-.92.36-.9.4-.88.43-.86.46-.85.49-.82.53-.81.55-.78.58-.76.61-.74.64-.72.67-.69.69-.66.71-.64.74-.61.76-.58.78-.55.81-.53.82-.49.85-.46.86-.43.89-.4.89-.36.92-.33.93-.3.95-.25.96-.22.97-.18.99-.15.99-.1,1.01-.06,1.02-.02h92.35l1.02.02Zm-94.6,19.46-.22.01-.21.02-.21.02-.2.03-.19.03-.2.05-.18.04-.19.06-.17.06-.18.07-.16.07-.17.08-.15.08-.15.09-.15.1-.14.1-.14.11-.13.11-.12.12-.12.13-.12.13-.1.13-.11.15-.09.14-.09.15-.09.16-.08.16-.07.17-.07.17-.06.18-.05.18-.05.19-.04.19-.04.2-.03.2-.02.21-.02.21-.01.21v.44l.02.22.02.21.03.2.04.21.04.19.05.19.06.19.07.18.08.18.08.17.08.17.1.16.1.16.1.15.11.15.12.14.12.14.13.13.13.12.13.12.14.11.15.11.15.1.15.1.15.09.16.09.16.07.16.08.17.06.16.07.17.05.17.05.18.04.17.04.18.03.17.02.18.02.18.01h92.71l.18-.01.18-.02.17-.02.18-.03.17-.04.17-.04.18-.05.17-.05.16-.07.17-.06.16-.08.16-.07.16-.09.15-.09.15-.1.15-.1.15-.11.14-.11.13-.12.13-.12.13-.13.12-.14.12-.14.11-.15.1-.15.1-.16.1-.16.08-.17.08-.17.08-.18.07-.18.06-.19.05-.19.04-.19.04-.21.03-.2.02-.21.02-.22v-.44l-.02-.21-.02-.21-.03-.21-.04-.2-.04-.2-.05-.19-.06-.19-.07-.18-.08-.18-.08-.17-.08-.17-.1-.16-.1-.16-.1-.15-.11-.14-.12-.15-.12-.13-.13-.13-.13-.13-.13-.12-.14-.11-.15-.11-.15-.1-.15-.1-.15-.09-.16-.08-.16-.08-.16-.07-.17-.07-.16-.06-.17-.06-.18-.04-.17-.05-.17-.03-.18-.03-.17-.02-.18-.02-.18-.01H273.5Z" fill="#fff"/>
        <g id="Group_5" data-name="Group 5">
          <path id="Path_6" data-name="Path 6" d="M368.1,590.35l.99.1.99.13.97.17.96.21.95.25.93.28.92.32.89.35.89.38.86.41.85.45.82.48.81.51.78.54.76.57.74.59.71.63.69.65.67.68.64.71.61.73.58.75.55.78.53.8.49.83.46.85.43.87.4.88.36.91.33.93.29.95.26.96.22.99.18,1,.14,1.01.11,1.03.06,1.05.02,1.05-.02,1.02-.06,1.01-.11.99-.14.99-.18.97-.22.96-.26.95-.29.93-.33.91-.36.9-.4.89-.43.86-.46.85-.49.82-.53.81-.55.78-.58.76-.61.74-.64.71-.67.69-.69.67-.71.64-.74.61-.76.58-.78.55-.81.53-.82.49-.85.46-.86.43-.89.4-.89.36-.92.33-.93.29-.95.26-.96.22-.97.18-.99.14-.99.11-1.01.06-1.02.02H273.72l-1.02-.02-1.01-.06-.99-.11-.99-.14-.97-.18-.96-.22-.95-.26-.93-.29-.92-.33-.89-.36-.89-.4-.86-.43-.85-.46-.82-.49-.81-.53-.78-.55-.76-.58-.74-.61-.71-.64-.69-.67-.67-.69-.64-.71-.61-.74-.58-.76-.55-.78-.53-.81-.49-.82-.46-.85-.43-.86-.4-.89-.36-.9-.33-.91-.29-.93-.26-.95-.22-.96-.18-.97-.14-.99-.11-.99-.06-1.01-.02-1.02.02-1.01.06-1.01.11-1,.14-.98.18-.97.22-.96.26-.95.29-.93.33-.92.36-.9.4-.88.43-.86.46-.85.49-.82.53-.81.55-.78.58-.76.61-.74.64-.72.67-.69.69-.66.71-.64.74-.61.76-.58.78-.55.81-.53.82-.49.85-.46.86-.43.89-.4.89-.36.92-.33.93-.3.95-.25.96-.22.97-.18.99-.15.99-.1,1.01-.06,1.02-.02h92.35l1.02.02Zm-94.6,19.46-.22.01-.21.02-.21.02-.2.03-.19.03-.2.05-.18.04-.19.06-.17.06-.18.07-.16.07-.17.08-.15.08-.15.09-.15.1-.14.1-.14.11-.13.11-.12.12-.12.13-.12.13-.1.13-.11.15-.09.14-.09.15-.09.16-.08.16-.07.17-.07.17-.06.18-.05.18-.05.19-.04.19-.04.2-.03.2-.02.21-.02.21-.01.21v.44l.02.22.02.21.03.2.04.21.04.19.05.19.06.19.07.18.08.18.08.17.08.17.1.16.1.16.1.15.11.15.12.14.12.14.13.13.13.12.13.12.14.11.15.11.15.1.15.1.15.09.16.09.16.07.16.08.17.06.16.07.17.05.17.05.18.04.17.04.18.03.17.02.18.02.18.01h92.71l.18-.01.18-.02.17-.02.18-.03.17-.04.17-.04.18-.05.17-.05.16-.07.17-.06.16-.08.16-.07.16-.09.15-.09.15-.1.15-.1.15-.11.14-.11.13-.12.13-.12.13-.13.12-.14.12-.14.11-.15.1-.15.1-.16.1-.16.08-.17.08-.17.08-.18.07-.18.06-.19.05-.19.04-.19.04-.21.03-.2.02-.21.02-.22v-.44l-.02-.21-.02-.21-.03-.21-.04-.2-.04-.2-.05-.19-.06-.19-.07-.18-.08-.18-.08-.17-.08-.17-.1-.16-.1-.16-.1-.15-.11-.14-.12-.15-.12-.13-.13-.13-.13-.13-.13-.12-.14-.11-.15-.11-.15-.1-.15-.1-.15-.09-.16-.08-.16-.08-.16-.07-.17-.07-.16-.06-.17-.06-.18-.04-.17-.05-.17-.03-.18-.03-.17-.02-.18-.02-.18-.01H273.5Z" fill="#fff" stroke="rgba(0,0,0,0)" stroke-width="1"/>
        </g>
      </g>
    </g>
  </g>
</svg>
