<?xml version="1.0" encoding="UTF-8" standalone="no"?>
<!DOCTYPE svg PUBLIC "-//W3C//DTD SVG 1.1//EN" "http://www.w3.org/Graphics/SVG/1.1/DTD/svg11.dtd">
<svg version="1.1" xmlns="http://www.w3.org/2000/svg" xmlns:xlink="http://www.w3.org/1999/xlink" preserveAspectRatio="xMidYMid meet" viewBox="0 0 640 640" width="640" height="640"><defs><path d="M333.94 138.49L340.56 139.17L347.11 140.11L353.57 141.3L359.94 142.75L366.21 144.44L372.39 146.37L378.46 148.53L384.42 150.93L390.26 153.54L395.99 156.38L401.58 159.43L407.04 162.68L412.37 166.14L417.55 169.79L422.59 173.64L427.47 177.67L432.19 181.88L436.75 186.27L441.14 190.83L445.35 195.55L449.38 200.43L453.23 205.47L456.88 210.65L460.34 215.98L463.6 221.44L466.64 227.04L469.48 232.76L472.1 238.6L474.49 244.56L476.65 250.63L478.58 256.81L480.27 263.09L481.72 269.46L482.91 275.91L483.85 282.46L484.53 289.08L484.94 295.77L485.08 302.53L485.04 305.99L484.93 309.45L484.74 312.89L484.48 316.32L484.14 319.75L483.74 323.16L483.26 326.56L482.71 329.94L482.09 333.31L481.39 336.66L480.63 340L479.8 343.31L478.9 346.61L477.93 349.89L476.9 353.14L475.79 356.38L474.62 359.59L473.39 362.77L472.08 365.93L470.72 369.07L469.29 372.17L467.79 375.25L466.23 378.29L464.61 381.31L462.93 384.29L461.19 387.24L459.38 390.16L457.52 393.04L455.59 395.89L453.6 398.7L451.56 401.47L449.46 404.2L447.3 406.89L445.08 409.53L442.81 412.14L440.48 414.7L438.09 417.22L435.65 419.69L433.16 422.12L430.61 424.5L428.83 426.27L426.93 428.28L425.14 430.39L423.45 432.6L421.85 434.89L420.36 437.26L418.96 439.71L417.65 442.21L416.43 444.78L415.29 447.39L414.23 450.04L413.26 452.72L412.36 455.42L411.53 458.14L410.77 460.87L410.08 463.6L409.45 466.32L408.88 469.03L408.37 471.71L407.92 474.36L407.52 476.97L407.16 479.53L406.86 482.03L406.59 484.47L406.37 486.85L406.18 489.14L406.02 491.34L405.9 493.45L405.81 495.45L405.73 497.35L405.69 499.12L405.66 500.77L405.64 502.28L405.64 503.65L405.65 504.87L405.67 505.93L405.68 506.82L405.7 507.54L405.72 508.07L405.74 508.42L405.74 508.57L405.74 508.79L405.73 509.01L405.72 509.23L405.71 509.45L405.69 509.67L405.66 509.89L405.64 510.11L405.6 510.33L405.57 510.55L405.53 510.77L405.49 510.98L405.44 511.2L405.39 511.41L405.33 511.62L405.27 511.83L405.21 512.04L405.15 512.25L405.08 512.45L405 512.66L404.93 512.86L404.85 513.06L404.77 513.25L404.68 513.45L404.59 513.64L404.5 513.83L404.4 514.01L404.3 514.2L404.2 514.38L404.1 514.55L403.99 514.73L403.88 514.9L403.77 515.06L403.66 515.23L403.54 515.39L403.42 515.54L403.3 515.7L403.17 515.84L403.04 515.99L402.91 516.13L402.78 516.26L402.65 516.39L402.51 516.52L402.37 516.65L402.23 516.78L402.09 516.9L401.94 517.02L401.79 517.14L401.64 517.25L401.49 517.36L401.34 517.47L401.18 517.58L401.02 517.69L400.86 517.79L400.7 517.88L400.53 517.98L400.37 518.07L400.2 518.16L400.02 518.25L399.85 518.33L399.67 518.41L399.49 518.48L399.31 518.56L399.13 518.63L398.94 518.69L398.76 518.75L398.57 518.81L398.38 518.87L398.18 518.92L397.98 518.97L397.79 519.01L397.58 519.05L397.38 519.09L397.18 519.12L396.97 519.15L396.76 519.17L396.55 519.19L396.33 519.2L396.12 519.21L395.9 519.22L395.68 519.22L244.71 519.22L244.53 519.22L244.35 519.21L244.16 519.2L243.98 519.19L243.79 519.17L243.61 519.15L243.42 519.12L243.23 519.09L243.04 519.05L242.85 519.01L242.65 518.97L242.46 518.92L242.27 518.87L242.08 518.81L241.88 518.75L241.69 518.69L241.5 518.63L241.31 518.56L241.12 518.48L240.93 518.41L240.74 518.33L240.56 518.25L240.37 518.16L240.19 518.07L240 517.98L239.82 517.88L239.65 517.79L239.47 517.69L239.3 517.58L239.13 517.47L238.96 517.36L238.79 517.25L238.63 517.14L238.47 517.02L238.32 516.9L238.17 516.78L238.02 516.65L237.88 516.52L237.74 516.39L237.6 516.26L237.43 516.09L237.26 515.91L237.1 515.73L236.94 515.55L236.79 515.37L236.65 515.2L236.51 515.02L236.38 514.84L236.26 514.66L236.14 514.48L236.03 514.3L235.92 514.12L235.81 513.93L235.72 513.75L235.62 513.57L235.54 513.38L235.45 513.2L235.37 513.01L235.3 512.82L235.23 512.64L235.17 512.45L235.11 512.26L235.05 512.07L235 511.87L234.95 511.68L234.91 511.48L234.87 511.29L234.83 511.09L234.8 510.89L234.77 510.68L234.74 510.48L234.72 510.28L234.7 510.07L234.68 509.86L234.67 509.65L234.66 509.44L234.65 509.22L234.65 509.01L234.64 508.79L234.64 508.57L234.69 508.42L234.74 508.07L234.79 507.54L234.84 506.82L234.89 505.93L234.92 504.87L234.95 503.65L234.97 502.28L234.97 500.77L234.95 499.12L234.9 497.35L234.84 495.45L234.74 493.45L234.62 491.34L234.46 489.14L234.27 486.85L234.04 484.47L233.77 482.03L233.45 479.53L233.09 476.97L232.67 474.36L232.21 471.71L231.68 469.03L231.1 466.32L230.46 463.6L229.75 460.87L228.98 458.14L228.14 455.42L227.22 452.72L226.23 450.04L225.16 447.39L224.01 444.78L222.78 442.21L221.46 439.71L220.05 437.26L218.54 434.89L216.95 432.6L215.25 430.39L213.45 428.28L211.55 426.27L208.96 423.94L206.42 421.54L203.93 419.1L201.5 416.61L199.13 414.06L196.81 411.46L194.55 408.82L192.35 406.13L190.2 403.39L188.12 400.61L186.09 397.79L184.13 394.92L182.22 392.01L180.37 389.07L178.59 386.08L176.87 383.06L175.21 380L173.62 376.91L172.09 373.78L170.63 370.62L169.23 367.43L167.89 364.21L166.63 360.96L165.43 357.68L164.3 354.38L163.23 351.06L162.24 347.7L161.32 344.33L160.46 340.94L159.68 337.52L158.97 334.09L158.33 330.64L157.77 327.17L157.28 323.68L156.86 320.19L156.51 316.68L156.25 313.16L156.05 309.62L155.94 306.08L155.9 302.53L156.04 295.77L156.45 289.08L157.12 282.46L158.06 275.91L159.26 269.46L160.7 263.09L162.39 256.81L164.32 250.63L166.48 244.56L168.88 238.6L171.49 232.76L174.33 227.04L177.38 221.44L180.63 215.98L184.09 210.65L187.75 205.47L191.59 200.43L195.62 195.55L199.84 190.83L204.22 186.27L208.78 181.88L213.5 177.67L218.39 173.64L223.42 169.79L228.6 166.14L233.93 162.68L239.39 159.43L244.99 156.38L250.71 153.54L256.56 150.93L262.52 148.53L268.59 146.37L274.76 144.44L281.04 142.75L287.41 141.3L293.87 140.11L300.41 139.17L307.03 138.49L313.73 138.08L320.49 137.95L327.25 138.08L333.94 138.49ZM308.03 157.96L302.19 158.55L296.43 159.37L290.74 160.41L285.13 161.67L279.61 163.15L274.18 164.83L268.84 166.73L263.6 168.82L258.47 171.1L253.44 173.58L248.53 176.25L243.74 179.09L239.06 182.12L234.52 185.31L230.1 188.68L225.82 192.21L221.69 195.9L217.69 199.74L213.85 203.73L210.16 207.87L206.63 212.15L203.27 216.57L200.07 221.11L197.05 225.78L194.2 230.58L191.53 235.49L189.06 240.52L186.77 245.65L184.68 250.89L182.79 256.23L181.1 261.66L179.63 267.18L178.37 272.79L177.32 278.48L176.5 284.24L175.91 290.08L175.56 295.98L175.44 301.94L175.47 305.09L175.57 308.23L175.74 311.36L175.98 314.47L176.29 317.58L176.66 320.66L177.09 323.74L177.6 326.8L178.16 329.84L178.79 332.87L179.49 335.88L180.25 338.86L181.07 341.83L181.95 344.78L182.9 347.7L183.9 350.6L184.97 353.48L186.1 356.33L187.29 359.16L188.54 361.96L189.84 364.73L191.21 367.48L192.63 370.19L194.11 372.87L195.64 375.53L197.24 378.15L198.88 380.73L200.59 383.28L202.35 385.8L204.16 388.28L206.03 390.72L207.95 393.13L209.92 395.49L211.94 397.82L214.02 400.1L216.15 402.35L218.33 404.55L220.56 406.7L222.84 408.81L225.17 410.88L226.99 412.82L228.74 414.82L230.42 416.88L232.02 418.99L233.55 421.15L235.02 423.36L236.41 425.61L237.74 427.89L239 430.21L240.2 432.56L241.34 434.94L242.42 437.34L243.44 439.76L244.4 442.19L245.31 444.64L246.16 447.09L246.96 449.55L247.71 452.01L248.42 454.46L249.07 456.91L249.68 459.35L250.25 461.77L250.77 464.17L251.26 466.55L251.7 468.9L252.11 471.23L252.48 473.52L252.81 475.77L253.12 477.98L253.39 480.15L253.64 482.27L253.85 484.33L254.04 486.34L254.21 488.29L254.35 490.17L254.47 491.99L254.57 493.73L254.65 495.4L254.72 496.99L254.77 498.5L385.61 498.5L385.66 497L385.73 495.42L385.81 493.76L385.91 492.04L386.03 490.25L386.17 488.4L386.33 486.49L386.52 484.52L386.73 482.5L386.96 480.43L387.23 478.32L387.52 476.17L387.84 473.98L388.2 471.75L388.59 469.5L389.01 467.21L389.47 464.91L389.97 462.58L390.51 460.23L391.09 457.87L391.71 455.5L392.37 453.13L393.08 450.75L393.84 448.37L394.64 446L395.5 443.63L396.4 441.28L397.36 438.94L398.37 436.61L399.43 434.31L400.55 432.03L401.73 429.79L402.97 427.57L404.27 425.39L405.64 423.25L407.06 421.15L408.56 419.1L410.11 417.09L411.74 415.14L413.44 413.25L413.44 413.2L413.45 413.15L413.46 413.1L413.47 413.05L413.49 413L413.51 412.94L413.54 412.89L413.57 412.83L413.6 412.77L413.63 412.71L413.67 412.65L413.71 412.59L413.75 412.52L413.8 412.46L413.84 412.39L413.89 412.33L413.94 412.26L414 412.2L414.05 412.13L414.1 412.06L414.16 412L414.22 411.93L414.27 411.86L414.33 411.8L414.39 411.73L414.45 411.67L414.51 411.6L414.57 411.54L414.63 411.48L414.69 411.42L414.74 411.35L414.8 411.3L414.86 411.24L414.91 411.18L414.97 411.13L415.02 411.07L415.07 411.02L415.12 410.97L415.17 410.92L415.21 410.88L417.54 408.81L419.82 406.7L422.04 404.55L424.21 402.35L426.33 400.1L428.4 397.82L430.41 395.49L432.37 393.13L434.28 390.72L436.13 388.28L437.93 385.8L439.67 383.28L441.35 380.73L442.98 378.15L444.55 375.53L446.07 372.87L447.52 370.19L448.92 367.48L450.27 364.73L451.55 361.96L452.78 359.16L453.94 356.33L455.05 353.48L456.09 350.6L457.08 347.7L458 344.78L458.87 341.83L459.67 338.86L460.41 335.88L461.09 332.87L461.7 329.84L462.26 326.8L462.74 323.74L463.17 320.66L463.53 317.58L463.83 314.47L464.06 311.36L464.22 308.23L464.32 305.09L464.35 301.94L464.23 295.98L463.88 290.08L463.29 284.24L462.47 278.48L461.42 272.79L460.16 267.18L458.69 261.66L457 256.23L455.11 250.89L453.02 245.65L450.73 240.52L448.26 235.49L445.59 230.58L442.74 225.78L439.72 221.11L436.52 216.57L433.16 212.15L429.63 207.87L425.94 203.73L422.1 199.74L418.1 195.9L413.97 192.21L409.69 188.68L405.27 185.31L400.73 182.12L396.05 179.09L391.26 176.25L386.35 173.58L381.32 171.1L376.19 168.82L370.95 166.73L365.61 164.83L360.18 163.15L354.66 161.67L349.05 160.41L343.36 159.37L337.6 158.55L331.76 157.96L325.86 157.6L319.89 157.48L313.93 157.6L308.03 157.96Z" id="g3zvh4LkFB"></path><path d="M387.64 530.56L388.63 530.66L389.62 530.8L390.59 530.98L391.55 531.2L392.5 531.46L393.43 531.75L394.34 532.08L395.24 532.44L396.12 532.84L396.99 533.27L397.83 533.73L398.66 534.22L399.46 534.75L400.25 535.3L401.01 535.89L401.75 536.5L402.46 537.13L403.15 537.8L403.82 538.49L404.45 539.2L405.06 539.94L405.65 540.7L406.2 541.49L406.72 542.29L407.22 543.12L407.68 543.96L408.11 544.83L408.51 545.71L408.87 546.61L409.2 547.52L409.49 548.45L409.75 549.4L409.97 550.36L410.15 551.33L410.29 552.32L410.39 553.31L410.46 554.32L410.48 555.34L410.46 556.35L410.39 557.36L410.29 558.35L410.15 559.33L409.97 560.29L409.75 561.24L409.49 562.18L409.19 563.1L408.86 564L408.5 564.88L408.1 565.75L407.66 566.6L407.2 567.43L406.7 568.24L406.17 569.03L405.61 569.8L405.02 570.55L404.4 571.27L403.75 571.98L403.08 572.65L402.38 573.31L401.65 573.94L400.9 574.54L400.12 575.12L399.32 575.67L398.5 576.19L397.65 576.68L396.78 577.15L395.9 577.58L394.99 577.98L394.07 578.36L393.12 578.7L392.16 579.01L391.19 579.28L390.19 579.52L389.19 579.73L388.16 579.9L387.13 580.04L386.08 580.14L385.02 580.2L254.18 580.2L253.16 580.18L252.15 580.12L251.16 580.02L250.17 579.87L249.2 579.69L248.24 579.47L247.29 579.22L246.36 578.92L245.45 578.6L244.55 578.23L243.67 577.84L242.8 577.41L241.96 576.94L241.13 576.45L240.33 575.93L239.54 575.37L238.78 574.79L238.04 574.18L237.33 573.54L236.64 572.88L235.97 572.19L235.34 571.47L234.73 570.73L234.14 569.97L233.59 569.19L233.07 568.38L232.57 567.56L232.11 566.71L231.68 565.85L231.28 564.97L230.92 564.07L230.59 563.15L230.3 562.22L230.04 561.28L229.82 560.32L229.64 559.34L229.5 558.36L229.4 557.36L229.33 556.35L229.31 555.34L229.33 554.32L229.4 553.31L229.5 552.32L229.64 551.33L229.82 550.36L230.04 549.4L230.3 548.45L230.59 547.52L230.92 546.61L231.28 545.71L231.68 544.83L232.11 543.96L232.57 543.12L233.07 542.29L233.59 541.49L234.14 540.7L234.73 539.94L235.34 539.2L235.97 538.49L236.64 537.8L237.33 537.13L238.04 536.5L238.78 535.89L239.54 535.3L240.33 534.75L241.13 534.22L241.96 533.73L242.8 533.27L243.67 532.84L244.55 532.44L245.45 532.08L246.36 531.75L247.29 531.46L248.24 531.2L249.2 530.98L250.17 530.8L251.16 530.66L252.15 530.56L253.16 530.49L254.18 530.47L385.61 530.47L386.63 530.49L387.64 530.56ZM253.96 550.01L253.74 550.02L253.53 550.04L253.33 550.06L253.12 550.09L252.93 550.13L252.74 550.17L252.55 550.22L252.37 550.27L252.19 550.33L252.02 550.4L251.85 550.47L251.69 550.55L251.53 550.64L251.38 550.73L251.23 550.82L251.09 550.93L250.95 551.03L250.82 551.15L250.7 551.27L250.58 551.39L250.47 551.52L250.36 551.66L250.26 551.8L250.16 551.95L250.07 552.1L249.98 552.25L249.91 552.42L249.83 552.58L249.77 552.76L249.7 552.93L249.65 553.12L249.6 553.3L249.56 553.5L249.52 553.69L249.49 553.89L249.47 554.1L249.45 554.31L249.44 554.53L249.44 554.75L249.45 554.97L249.46 555.18L249.48 555.39L249.51 555.6L249.55 555.8L249.59 556L249.65 556.19L249.71 556.37L249.77 556.56L249.85 556.73L249.93 556.91L250.02 557.07L250.11 557.24L250.21 557.39L250.32 557.55L250.43 557.69L250.54 557.83L250.66 557.97L250.79 558.1L250.92 558.22L251.06 558.34L251.2 558.46L251.34 558.56L251.49 558.67L251.64 558.76L251.79 558.85L251.95 558.94L252.11 559.02L252.27 559.09L252.44 559.16L252.61 559.22L252.78 559.27L252.95 559.32L253.12 559.36L253.29 559.4L253.47 559.43L253.65 559.45L253.82 559.47L254 559.48L254.18 559.48L385.61 559.48L385.79 559.48L385.96 559.47L386.13 559.45L386.3 559.43L386.47 559.4L386.63 559.36L386.79 559.32L386.95 559.27L387.11 559.22L387.26 559.16L387.41 559.09L387.55 559.02L387.69 558.94L387.83 558.85L387.96 558.76L388.09 558.67L388.22 558.56L388.34 558.46L388.46 558.34L388.57 558.22L388.68 558.1L388.79 557.97L388.88 557.83L388.98 557.69L389.07 557.55L389.15 557.39L389.23 557.24L389.31 557.07L389.38 556.91L389.44 556.73L389.5 556.56L389.55 556.37L389.6 556.19L389.64 556L389.68 555.8L389.7 555.6L389.73 555.39L389.74 555.18L389.75 554.97L389.76 554.75L389.75 554.53L389.74 554.31L389.72 554.1L389.69 553.89L389.65 553.69L389.6 553.5L389.55 553.3L389.49 553.12L389.42 552.93L389.35 552.76L389.27 552.58L389.18 552.42L389.09 552.25L388.99 552.1L388.88 551.95L388.77 551.8L388.65 551.66L388.53 551.52L388.41 551.39L388.28 551.27L388.14 551.15L388 551.03L387.86 550.93L387.71 550.82L387.56 550.73L387.4 550.64L387.25 550.55L387.09 550.47L386.92 550.4L386.76 550.33L386.59 550.27L386.42 550.22L386.25 550.17L386.08 550.13L385.9 550.09L385.73 550.06L385.55 550.04L385.37 550.02L385.2 550.01L385.02 550.01L254.18 550.01L253.96 550.01Z" id="bYnnI4CES"></path><path d="M368.1 590.35L369.09 590.45L370.08 590.58L371.05 590.75L372.01 590.96L372.96 591.21L373.89 591.49L374.81 591.81L375.7 592.16L376.59 592.54L377.45 592.95L378.3 593.4L379.12 593.88L379.93 594.39L380.71 594.93L381.47 595.5L382.21 596.09L382.92 596.72L383.61 597.37L384.28 598.05L384.92 598.76L385.53 599.49L386.11 600.24L386.66 601.02L387.19 601.82L387.68 602.65L388.14 603.5L388.57 604.37L388.97 605.25L389.33 606.16L389.66 607.09L389.95 608.04L390.21 609L390.43 609.99L390.61 610.99L390.75 612L390.86 613.03L390.92 614.08L390.94 615.13L390.92 616.15L390.86 617.16L390.75 618.15L390.61 619.14L390.43 620.11L390.21 621.07L389.95 622.02L389.66 622.95L389.33 623.86L388.97 624.76L388.57 625.65L388.14 626.51L387.68 627.36L387.19 628.18L386.66 628.99L386.11 629.77L385.53 630.53L384.92 631.27L384.28 631.98L383.61 632.67L382.92 633.34L382.21 633.98L381.47 634.59L380.71 635.17L379.93 635.72L379.12 636.25L378.3 636.74L377.45 637.2L376.59 637.63L375.7 638.03L374.81 638.39L373.89 638.72L372.96 639.01L372.01 639.27L371.05 639.49L370.08 639.67L369.09 639.81L368.1 639.92L367.09 639.98L366.07 640L273.72 640L272.7 639.98L271.69 639.92L270.7 639.81L269.71 639.67L268.74 639.49L267.78 639.27L266.83 639.01L265.9 638.72L264.98 638.39L264.09 638.03L263.2 637.63L262.34 637.2L261.49 636.74L260.67 636.25L259.86 635.72L259.08 635.17L258.32 634.59L257.58 633.98L256.87 633.34L256.18 632.67L255.51 631.98L254.87 631.27L254.26 630.53L253.68 629.77L253.13 628.99L252.6 628.18L252.11 627.36L251.65 626.51L251.22 625.65L250.82 624.76L250.46 623.86L250.13 622.95L249.84 622.02L249.58 621.07L249.36 620.11L249.18 619.14L249.04 618.15L248.93 617.16L248.87 616.15L248.85 615.13L248.87 614.12L248.93 613.11L249.04 612.11L249.18 611.13L249.36 610.16L249.58 609.2L249.84 608.25L250.13 607.32L250.46 606.4L250.82 605.5L251.22 604.62L251.65 603.76L252.11 602.91L252.6 602.09L253.13 601.28L253.68 600.5L254.26 599.74L254.87 599L255.51 598.28L256.18 597.59L256.87 596.93L257.58 596.29L258.32 595.68L259.08 595.1L259.86 594.55L260.67 594.02L261.49 593.53L262.34 593.07L263.2 592.64L264.09 592.24L264.98 591.88L265.9 591.55L266.83 591.25L267.78 591L268.74 590.78L269.71 590.6L270.7 590.45L271.69 590.35L272.7 590.29L273.72 590.27L366.07 590.27L367.09 590.29L368.1 590.35ZM273.5 609.81L273.28 609.82L273.07 609.84L272.86 609.86L272.66 609.89L272.47 609.92L272.27 609.97L272.09 610.01L271.9 610.07L271.73 610.13L271.55 610.2L271.39 610.27L271.22 610.35L271.07 610.43L270.92 610.52L270.77 610.62L270.63 610.72L270.49 610.83L270.36 610.94L270.24 611.06L270.12 611.19L270 611.32L269.9 611.45L269.79 611.6L269.7 611.74L269.61 611.89L269.52 612.05L269.44 612.21L269.37 612.38L269.3 612.55L269.24 612.73L269.19 612.91L269.14 613.1L269.1 613.29L269.06 613.49L269.03 613.69L269.01 613.9L268.99 614.11L268.98 614.32L268.98 614.54L268.98 614.76L269 614.98L269.02 615.19L269.05 615.39L269.09 615.6L269.13 615.79L269.18 615.98L269.24 616.17L269.31 616.35L269.39 616.53L269.47 616.7L269.55 616.87L269.65 617.03L269.75 617.19L269.85 617.34L269.96 617.49L270.08 617.63L270.2 617.77L270.33 617.9L270.46 618.02L270.59 618.14L270.73 618.25L270.88 618.36L271.03 618.46L271.18 618.56L271.33 618.65L271.49 618.74L271.65 618.81L271.81 618.89L271.98 618.95L272.14 619.02L272.31 619.07L272.48 619.12L272.66 619.16L272.83 619.2L273.01 619.23L273.18 619.25L273.36 619.27L273.54 619.28L273.72 619.28L366.07 619.28L366.25 619.28L366.43 619.27L366.61 619.25L366.78 619.23L366.96 619.2L367.13 619.16L367.3 619.12L367.48 619.07L367.65 619.02L367.81 618.95L367.98 618.89L368.14 618.81L368.3 618.74L368.46 618.65L368.61 618.56L368.76 618.46L368.91 618.36L369.06 618.25L369.2 618.14L369.33 618.02L369.46 617.9L369.59 617.77L369.71 617.63L369.83 617.49L369.94 617.34L370.04 617.19L370.14 617.03L370.24 616.87L370.32 616.7L370.4 616.53L370.48 616.35L370.55 616.17L370.61 615.98L370.66 615.79L370.7 615.6L370.74 615.39L370.77 615.19L370.79 614.98L370.81 614.76L370.81 614.54L370.81 614.32L370.79 614.11L370.77 613.9L370.74 613.69L370.7 613.49L370.66 613.29L370.61 613.1L370.55 612.91L370.48 612.73L370.4 612.55L370.32 612.38L370.24 612.21L370.14 612.05L370.04 611.89L369.94 611.74L369.83 611.6L369.71 611.45L369.59 611.32L369.46 611.19L369.33 611.06L369.2 610.94L369.06 610.83L368.91 610.72L368.76 610.62L368.61 610.52L368.46 610.43L368.3 610.35L368.14 610.27L367.98 610.2L367.81 610.13L367.65 610.07L367.48 610.01L367.3 609.97L367.13 609.92L366.96 609.89L366.78 609.86L366.61 609.84L366.43 609.82L366.25 609.81L366.07 609.81L273.72 609.81L273.5 609.81Z" id="h6uBlphbtW"></path></defs><g><g><g><use xlink:href="#g3zvh4LkFB" opacity="1" fill="#231f20" fill-opacity="1"></use><g><use xlink:href="#g3zvh4LkFB" opacity="1" fill-opacity="0" stroke="#000000" stroke-width="1" stroke-opacity="0"></use></g></g><g><use xlink:href="#bYnnI4CES" opacity="1" fill="#231f20" fill-opacity="1"></use><g><use xlink:href="#bYnnI4CES" opacity="1" fill-opacity="0" stroke="#000000" stroke-width="1" stroke-opacity="0"></use></g></g><g><use xlink:href="#h6uBlphbtW" opacity="1" fill="#231f20" fill-opacity="1"></use><g><use xlink:href="#h6uBlphbtW" opacity="1" fill-opacity="0" stroke="#000000" stroke-width="1" stroke-opacity="0"></use></g></g></g></g></svg>