<svg xmlns="http://www.w3.org/2000/svg" width="62" height="53" viewBox="0 0 62 53">
  <g id="oven-on" transform="translate(-1 -6)">
    <path id="Path_1" data-name="Path 1" d="M62,6H2A1,1,0,0,0,1,7V55a1,1,0,0,0,1,1H3v2a1,1,0,0,0,1,1H60a1,1,0,0,0,1-1V56h1a1,1,0,0,0,1-1V7A1,1,0,0,0,62,6ZM3,8H61V20H3ZM59,57H5V56H59Zm2-3H3V22H61Z" fill="#fff"/>
    <path id="Path_2" data-name="Path 2" d="M6,48H58a1,1,0,0,0,1-1V26a1,1,0,0,0-1-1H6a1,1,0,0,0-1,1V47A1,1,0,0,0,6,48Zm51-2H7V42H57ZM7,27H57V40H7Z" fill="#fff"/>
    <path id="Path_3" data-name="Path 3" d="M32.554,32.165A2.573,2.573,0,0,0,34,30a1,1,0,1,0-2,0c0,.112-.163.239-.555.5a2.344,2.344,0,0,0,0,4.33c.392.261.555.388.555.5s-.164.241-.555.5A2.576,2.576,0,0,0,30,38a1,1,0,1,0,2,0c0-.114.164-.241.555-.5a2.346,2.346,0,0,0,0-4.332c-.391-.261-.555-.389-.555-.5S32.163,32.425,32.554,32.165Z" fill="#fff"/>
    <path id="Path_4" data-name="Path 4" d="M22.554,32.165A2.573,2.573,0,0,0,24,30a1,1,0,1,0-2,0c0,.112-.163.239-.555.5a2.344,2.344,0,0,0,0,4.33c.392.261.555.388.555.5s-.164.241-.555.5A2.576,2.576,0,0,0,20,38a1,1,0,1,0,2,0c0-.114.164-.241.555-.5a2.346,2.346,0,0,0,0-4.332c-.391-.261-.555-.389-.555-.5S22.163,32.425,22.554,32.165Z" fill="#fff"/>
    <path id="Path_5" data-name="Path 5" d="M42.554,32.165A2.573,2.573,0,0,0,44,30a1,1,0,1,0-2,0c0,.112-.163.239-.555.5a2.344,2.344,0,0,0,0,4.33c.392.261.555.388.555.5s-.164.241-.555.5A2.576,2.576,0,0,0,40,38a1,1,0,1,0,2,0c0-.114.164-.241.555-.5a2.346,2.346,0,0,0,0-4.332c-.391-.261-.555-.389-.555-.5S42.163,32.425,42.554,32.165Z" fill="#fff"/>
    <path id="Path_6" data-name="Path 6" d="M9,10a4,4,0,1,0,4,4A4,4,0,0,0,9,10Zm0,6a2,2,0,1,1,2-2A2,2,0,0,1,9,16Z" fill="#fff"/>
    <path id="Path_7" data-name="Path 7" d="M19,10a4,4,0,1,0,4,4A4,4,0,0,0,19,10Zm0,6a2,2,0,1,1,2-2A2,2,0,0,1,19,16Z" fill="#fff"/>
    <path id="Path_8" data-name="Path 8" d="M29,10a4,4,0,1,0,4,4A4,4,0,0,0,29,10Zm0,6a2,2,0,1,1,2-2A2,2,0,0,1,29,16Z" fill="#fff"/>
    <path id="Path_9" data-name="Path 9" d="M58,10H46a1,1,0,0,0,0,2H58a1,1,0,0,0,0-2Z" fill="#fff"/>
    <path id="Path_10" data-name="Path 10" d="M58,13H54a1,1,0,0,0,0,2h4a1,1,0,0,0,0-2Z" fill="#fff"/>
    <path id="Path_11" data-name="Path 11" d="M58,16H57a1,1,0,0,0,0,2h1a1,1,0,0,0,0-2Z" fill="#fff"/>
    <path id="Path_12" data-name="Path 12" d="M43,10H42a1,1,0,0,0,0,2h1a1,1,0,0,0,0-2Z" fill="#fff"/>
    <path id="Path_13" data-name="Path 13" d="M6,52h5a1,1,0,0,0,0-2H6a1,1,0,0,0,0,2Z" fill="#fff"/>
    <path id="Path_14" data-name="Path 14" d="M16,50H14a1,1,0,0,0,0,2h2a1,1,0,0,0,0-2Z" fill="#fff"/>
  </g>
</svg>
