<svg xmlns="http://www.w3.org/2000/svg" width="497" height="425" viewBox="0 0 497 425">
  <g id="oven-off" transform="translate(-78.22 -81.08)">
    <g id="Group_23" data-name="Group 23">
      <g id="Group_2" data-name="Group 2">
        <path id="Path_15" data-name="Path 15" d="M567.37,81.61l.33.03.31.05.32.05.31.07.3.09.31.09.29.1.29.12.28.13.28.14.27.14.27.16.26.17.25.18.25.18.23.2.23.2.22.22.22.22.2.23.2.23.18.25.18.25.17.26.16.26.14.28.14.27.13.29.11.29.11.29.09.3.08.31.07.31.06.31.05.32.03.33.02.32.01.33v384l-.01.33-.02.33-.03.32-.05.32-.06.31-.07.31-.08.31-.09.3-.11.3-.11.29-.13.28-.14.28-.14.27-.16.27-.17.25-.18.26-.18.24-.2.24-.2.23-.22.22-.22.21-.23.21-.23.19-.25.19-.25.18-.26.16-.27.16-.27.15-.28.14-.28.12-.29.12-.29.1-.31.1-.3.08-.31.07-.32.06-.31.04-.33.04-.32.02h-8.33v16l-.01.33-.02.33-.03.32-.05.32-.06.31-.07.31-.08.31-.09.3-.11.3-.11.29-.13.28-.14.28-.14.27-.16.27-.17.25-.18.26-.18.24-.2.24-.2.23-.22.22-.22.21-.23.21-.23.19-.25.19-.25.18-.26.16-.27.16-.27.15-.28.14-.28.12-.29.12-.29.1-.31.1-.3.08-.31.07-.32.06-.31.04-.33.04-.32.02H102.39l-.33-.02-.32-.04-.32-.04-.32-.06-.31-.07-.3-.08-.3-.1-.3-.1-.29-.12-.28-.12-.28-.14-.27-.15-.27-.16-.26-.16-.25-.18-.24-.19-.24-.19-.23-.21-.22-.21-.21-.22-.21-.23-.19-.24-.19-.24-.18-.26-.16-.25-.16-.27-.15-.27-.14-.28-.12-.28-.12-.29-.11-.3-.09-.3-.08-.31-.07-.31-.06-.31-.04-.32-.04-.32-.02-.33V481.58H86.39l-.33-.02-.32-.04-.32-.04-.32-.06-.31-.07-.3-.08-.3-.1-.3-.1-.29-.12-.28-.12-.28-.14-.27-.15-.27-.16-.26-.16-.25-.18-.24-.19-.24-.19-.23-.21-.22-.21-.21-.22-.21-.23-.19-.24-.19-.24-.18-.26-.16-.25-.16-.27-.15-.27-.14-.28-.12-.28-.12-.29-.11-.3-.09-.3-.08-.31-.07-.31-.06-.31-.04-.32-.04-.32-.02-.33V89.25l.02-.32.04-.33.04-.32.06-.31.07-.31.08-.31.09-.3.11-.29.12-.29.12-.29.14-.27.15-.28.16-.26.16-.26.18-.25.19-.25.19-.23.21-.23.21-.22.22-.22.23-.2.24-.2.24-.18.25-.18.26-.17.27-.16.27-.14.28-.14.28-.13.29-.12.3-.1.3-.09.3-.09.31-.07.32-.05.32-.05.32-.03.33-.02.33-.01h480l.33.01ZM110.72,489.58h432v-8h-432Zm-16-24h464v-256h-464Zm0-272h464v-96h-464Z" fill="#fff"/>
        <g id="Group_1" data-name="Group 1">
          <path id="Path_16" data-name="Path 16" d="M567.37,81.61l.33.03.31.05.32.05.31.07.3.09.31.09.29.1.29.12.28.13.28.14.27.14.27.16.26.17.25.18.25.18.23.2.23.2.22.22.22.22.2.23.2.23.18.25.18.25.17.26.16.26.14.28.14.27.13.29.11.29.11.29.09.3.08.31.07.31.06.31.05.32.03.33.02.32.01.33v384l-.01.33-.02.33-.03.32-.05.32-.06.31-.07.31-.08.31-.09.3-.11.3-.11.29-.13.28-.14.28-.14.27-.16.27-.17.25-.18.26-.18.24-.2.24-.2.23-.22.22-.22.21-.23.21-.23.19-.25.19-.25.18-.26.16-.27.16-.27.15-.28.14-.28.12-.29.12-.29.1-.31.1-.3.08-.31.07-.32.06-.31.04-.33.04-.32.02h-8.33v16l-.01.33-.02.33-.03.32-.05.32-.06.31-.07.31-.08.31-.09.3-.11.3-.11.29-.13.28-.14.28-.14.27-.16.27-.17.25-.18.26-.18.24-.2.24-.2.23-.22.22-.22.21-.23.21-.23.19-.25.19-.25.18-.26.16-.27.16-.27.15-.28.14-.28.12-.29.12-.29.1-.31.1-.3.08-.31.07-.32.06-.31.04-.33.04-.32.02H102.39l-.33-.02-.32-.04-.32-.04-.32-.06-.31-.07-.3-.08-.3-.1-.3-.1-.29-.12-.28-.12-.28-.14-.27-.15-.27-.16-.26-.16-.25-.18-.24-.19-.24-.19-.23-.21-.22-.21-.21-.22-.21-.23-.19-.24-.19-.24-.18-.26-.16-.25-.16-.27-.15-.27-.14-.28-.12-.28-.12-.29-.11-.3-.09-.3-.08-.31-.07-.31-.06-.31-.04-.32-.04-.32-.02-.33V481.58H86.39l-.33-.02-.32-.04-.32-.04-.32-.06-.31-.07-.3-.08-.3-.1-.3-.1-.29-.12-.28-.12-.28-.14-.27-.15-.27-.16-.26-.16-.25-.18-.24-.19-.24-.19-.23-.21-.22-.21-.21-.22-.21-.23-.19-.24-.19-.24-.18-.26-.16-.25-.16-.27-.15-.27-.14-.28-.12-.28-.12-.29-.11-.3-.09-.3-.08-.31-.07-.31-.06-.31-.04-.32-.04-.32-.02-.33V89.25l.02-.32.04-.33.04-.32.06-.31.07-.31.08-.31.09-.3.11-.29.12-.29.12-.29.14-.27.15-.28.16-.26.16-.26.18-.25.19-.25.19-.23.21-.23.21-.22.22-.22.23-.2.24-.2.24-.18.25-.18.26-.17.27-.16.27-.14.28-.14.28-.13.29-.12.3-.1.3-.09.3-.09.31-.07.32-.05.32-.05.32-.03.33-.02.33-.01h480l.33.01ZM110.72,489.58h432v-8h-432Zm-16-24h464v-256h-464Zm0-272h464v-96h-464Z" fill="#fff" stroke="rgba(0,0,0,0)" stroke-width="1"/>
        </g>
      </g>
      <g id="Group_4" data-name="Group 4">
        <path id="Path_17" data-name="Path 17" d="M535.37,233.61l.33.03.31.05.32.05.31.07.3.09.31.09.29.1.29.12.28.13.28.14.27.14.27.16.26.17.25.18.25.18.23.2.23.2.22.22.22.22.2.23.2.23.18.25.18.25.17.26.16.26.14.28.14.27.13.29.11.29.11.29.09.3.08.31.07.31.06.31.05.32.03.33.02.32.01.33v168l-.01.33-.02.33-.03.32-.05.32-.06.31-.07.31-.08.31-.09.3-.11.3-.11.29-.13.28-.14.28-.14.27-.16.27-.17.25-.18.26-.18.24-.2.24-.2.23-.22.22-.22.21-.23.21-.23.19-.25.19-.25.18-.26.16-.27.16-.27.15-.28.14-.28.12-.29.12-.29.1-.31.1-.3.08-.31.07-.32.06-.31.04-.33.04-.32.02H118.39l-.33-.02-.32-.04-.32-.04-.32-.06-.31-.07-.3-.08-.3-.1-.3-.1-.29-.12-.28-.12-.28-.14-.27-.15-.27-.16-.26-.16-.25-.18-.24-.19-.24-.19-.23-.21-.22-.21-.21-.22-.21-.23-.19-.24-.19-.24-.18-.26-.16-.25-.16-.27-.15-.27-.14-.28-.12-.28-.12-.29-.11-.3-.09-.3-.08-.31-.07-.31-.06-.31-.04-.32-.04-.32-.02-.33V241.25l.02-.32.04-.33.04-.32.06-.31.07-.31.08-.31.09-.3.11-.29.12-.29.12-.29.14-.27.15-.28.16-.26.16-.26.18-.25.19-.25.19-.23.21-.23.21-.22.22-.22.23-.2.24-.2.24-.18.25-.18.26-.17.27-.16.27-.14.28-.14.28-.13.29-.12.3-.1.3-.09.3-.09.31-.07.32-.05.32-.05.32-.03.33-.02.33-.01h416l.33.01ZM126.72,401.58h400v-32h-400Zm0-48h400v-104h-400Z" fill="#fff"/>
        <g id="Group_3" data-name="Group 3">
          <path id="Path_18" data-name="Path 18" d="M535.37,233.61l.33.03.31.05.32.05.31.07.3.09.31.09.29.1.29.12.28.13.28.14.27.14.27.16.26.17.25.18.25.18.23.2.23.2.22.22.22.22.2.23.2.23.18.25.18.25.17.26.16.26.14.28.14.27.13.29.11.29.11.29.09.3.08.31.07.31.06.31.05.32.03.33.02.32.01.33v168l-.01.33-.02.33-.03.32-.05.32-.06.31-.07.31-.08.31-.09.3-.11.3-.11.29-.13.28-.14.28-.14.27-.16.27-.17.25-.18.26-.18.24-.2.24-.2.23-.22.22-.22.21-.23.21-.23.19-.25.19-.25.18-.26.16-.27.16-.27.15-.28.14-.28.12-.29.12-.29.1-.31.1-.3.08-.31.07-.32.06-.31.04-.33.04-.32.02H118.39l-.33-.02-.32-.04-.32-.04-.32-.06-.31-.07-.3-.08-.3-.1-.3-.1-.29-.12-.28-.12-.28-.14-.27-.15-.27-.16-.26-.16-.25-.18-.24-.19-.24-.19-.23-.21-.22-.21-.21-.22-.21-.23-.19-.24-.19-.24-.18-.26-.16-.25-.16-.27-.15-.27-.14-.28-.12-.28-.12-.29-.11-.3-.09-.3-.08-.31-.07-.31-.06-.31-.04-.32-.04-.32-.02-.33V241.25l.02-.32.04-.33.04-.32.06-.31.07-.31.08-.31.09-.3.11-.29.12-.29.12-.29.14-.27.15-.28.16-.26.16-.26.18-.25.19-.25.19-.23.21-.23.21-.22.22-.22.23-.2.24-.2.24-.18.25-.18.26-.17.27-.16.27-.14.28-.14.28-.13.29-.12.3-.1.3-.09.3-.09.31-.07.32-.05.32-.05.32-.03.33-.02.33-.01h416l.33.01ZM126.72,401.58h400v-32h-400Zm0-48h400v-104h-400Z" fill="#fff" stroke="rgba(0,0,0,0)" stroke-width="1"/>
        </g>
      </g>
      <g id="Group_6" data-name="Group 6">
        <path id="Path_19" data-name="Path 19" d="M145.34,113.69l1.29.13,1.28.18,1.26.23,1.24.28,1.22.33,1.2.37,1.18.42,1.16.47,1.14.5,1.11.55,1.09.59,1.06.64,1.04.67,1.01.71.97.74.95.79.92.81.88.85.86.89.81.92.79.95.74.97.71,1.01.67,1.04.63,1.06.59,1.09.55,1.11.51,1.14.47,1.16.42,1.18.37,1.2.33,1.22.28,1.24.23,1.26.18,1.28.13,1.29.08,1.3.03,1.32-.03,1.32-.08,1.31-.13,1.29-.18,1.27-.23,1.26-.28,1.24-.33,1.22-.37,1.21-.42,1.18-.47,1.16-.51,1.13-.55,1.12-.59,1.09-.63,1.06-.67,1.03-.71,1.01-.74.98-.79.95-.81.91-.86.89-.88.85-.92.82-.95.78-.97.75-1.01.71-1.04.67-1.06.63-1.09.59-1.11.55-1.14.51-1.16.46-1.18.42-1.2.37-1.22.33-1.24.28-1.26.23-1.28.18-1.29.14-1.3.08-1.32.02-1.32-.02-1.31-.08-1.29-.14-1.27-.18-1.26-.23-1.24-.28-1.23-.33-1.2-.37-1.18-.42-1.16-.46-1.14-.51-1.11-.55-1.09-.59-1.06-.63-1.04-.67-1-.71-.98-.75-.95-.78-.92-.82-.88-.85-.85-.89-.82-.91-.78-.95-.75-.98-.71-1.01-.67-1.03-.63-1.06-.59-1.09-.55-1.12-.51-1.13-.46-1.16-.42-1.18-.38-1.21-.32-1.22-.28-1.24-.23-1.26-.19-1.27-.13-1.29-.08-1.31-.02-1.32.02-1.32.08-1.3.13-1.29.19-1.28.23-1.26.28-1.24.32-1.22.38-1.2.42-1.18.46-1.16.51-1.14.55-1.11.59-1.09.63-1.06.67-1.04.71-1.01.75-.97.78-.95.82-.92.85-.89.88-.85.92-.81.95-.79.98-.74,1-.71,1.04-.67,1.06-.64,1.09-.59,1.11-.55,1.14-.5,1.16-.47,1.18-.42,1.2-.37,1.23-.33,1.24-.28,1.26-.23,1.27-.18,1.29-.13,1.31-.08,1.32-.03,1.32.03Zm-5.22,16.1-1.25.26-1.21.35-1.17.44-1.13.53-1.07.61-1.02.69-.97.76-.9.84-.83.9-.77.96-.69,1.02-.61,1.08-.53,1.12-.44,1.17-.35,1.22-.25,1.25-.16,1.28-.05,1.31.05,1.31.16,1.29.25,1.25.35,1.21.44,1.17.53,1.13.61,1.07.69,1.02.77.96.83.91.9.83.97.77,1.02.68,1.07.62,1.13.52,1.17.45,1.21.35,1.25.25,1.28.16,1.32.05,1.31-.05,1.28-.16,1.25-.25,1.21-.35,1.17-.45,1.13-.52,1.07-.62,1.03-.68.96-.77.9-.83.83-.91.77-.96.69-1.02.61-1.07.53-1.13.44-1.17.35-1.21.26-1.25.15-1.29.06-1.31-.06-1.31-.15-1.28-.26-1.25-.35-1.22-.44-1.17-.53-1.12-.61-1.08-.69-1.02-.77-.96-.83-.9-.9-.84-.96-.76-1.03-.69-1.07-.61-1.13-.53-1.17-.44-1.21-.35-1.25-.26-1.28-.15-1.31-.06-1.32.06Z" fill="#fff"/>
        <g id="Group_5" data-name="Group 5">
          <path id="Path_20" data-name="Path 20" d="M145.34,113.69l1.29.13,1.28.18,1.26.23,1.24.28,1.22.33,1.2.37,1.18.42,1.16.47,1.14.5,1.11.55,1.09.59,1.06.64,1.04.67,1.01.71.97.74.95.79.92.81.88.85.86.89.81.92.79.95.74.97.71,1.01.67,1.04.63,1.06.59,1.09.55,1.11.51,1.14.47,1.16.42,1.18.37,1.2.33,1.22.28,1.24.23,1.26.18,1.28.13,1.29.08,1.3.03,1.32-.03,1.32-.08,1.31-.13,1.29-.18,1.27-.23,1.26-.28,1.24-.33,1.22-.37,1.21-.42,1.18-.47,1.16-.51,1.13-.55,1.12-.59,1.09-.63,1.06-.67,1.03-.71,1.01-.74.98-.79.95-.81.91-.86.89-.88.85-.92.82-.95.78-.97.75-1.01.71-1.04.67-1.06.63-1.09.59-1.11.55-1.14.51-1.16.46-1.18.42-1.2.37-1.22.33-1.24.28-1.26.23-1.28.18-1.29.14-1.3.08-1.32.02-1.32-.02-1.31-.08-1.29-.14-1.27-.18-1.26-.23-1.24-.28-1.23-.33-1.2-.37-1.18-.42-1.16-.46-1.14-.51-1.11-.55-1.09-.59-1.06-.63-1.04-.67-1-.71-.98-.75-.95-.78-.92-.82-.88-.85-.85-.89-.82-.91-.78-.95-.75-.98-.71-1.01-.67-1.03-.63-1.06-.59-1.09-.55-1.12-.51-1.13-.46-1.16-.42-1.18-.38-1.21-.32-1.22-.28-1.24-.23-1.26-.19-1.27-.13-1.29-.08-1.31-.02-1.32.02-1.32.08-1.3.13-1.29.19-1.28.23-1.26.28-1.24.32-1.22.38-1.2.42-1.18.46-1.16.51-1.14.55-1.11.59-1.09.63-1.06.67-1.04.71-1.01.75-.97.78-.95.82-.92.85-.89.88-.85.92-.81.95-.79.98-.74,1-.71,1.04-.67,1.06-.64,1.09-.59,1.11-.55,1.14-.5,1.16-.47,1.18-.42,1.2-.37,1.23-.33,1.24-.28,1.26-.23,1.27-.18,1.29-.13,1.31-.08,1.32-.03,1.32.03Zm-5.22,16.1-1.25.26-1.21.35-1.17.44-1.13.53-1.07.61-1.02.69-.97.76-.9.84-.83.9-.77.96-.69,1.02-.61,1.08-.53,1.12-.44,1.17-.35,1.22-.25,1.25-.16,1.28-.05,1.31.05,1.31.16,1.29.25,1.25.35,1.21.44,1.17.53,1.13.61,1.07.69,1.02.77.96.83.91.9.83.97.77,1.02.68,1.07.62,1.13.52,1.17.45,1.21.35,1.25.25,1.28.16,1.32.05,1.31-.05,1.28-.16,1.25-.25,1.21-.35,1.17-.45,1.13-.52,1.07-.62,1.03-.68.96-.77.9-.83.83-.91.77-.96.69-1.02.61-1.07.53-1.13.44-1.17.35-1.21.26-1.25.15-1.29.06-1.31-.06-1.31-.15-1.28-.26-1.25-.35-1.22-.44-1.17-.53-1.12-.61-1.08-.69-1.02-.77-.96-.83-.9-.9-.84-.96-.76-1.03-.69-1.07-.61-1.13-.53-1.17-.44-1.21-.35-1.25-.26-1.28-.15-1.31-.06-1.32.06Z" fill="#fff" stroke="rgba(0,0,0,0)" stroke-width="1"/>
        </g>
      </g>
      <g id="Group_8" data-name="Group 8">
        <path id="Path_21" data-name="Path 21" d="M225.34,113.69l1.29.13,1.28.18,1.26.23,1.24.28,1.22.33,1.2.37,1.18.42,1.16.47,1.14.5,1.11.55,1.09.59,1.06.64,1.04.67,1.01.71.97.74.95.79.92.81.88.85.86.89.81.92.79.95.74.97.71,1.01.67,1.04.63,1.06.59,1.09.55,1.11.51,1.14.47,1.16.42,1.18.37,1.2.33,1.22.28,1.24.23,1.26.18,1.28.13,1.29.08,1.3.03,1.32-.03,1.32-.08,1.31-.13,1.29-.18,1.27-.23,1.26-.28,1.24-.33,1.22-.37,1.21-.42,1.18-.47,1.16-.51,1.13-.55,1.12-.59,1.09-.63,1.06-.67,1.03-.71,1.01-.74.98-.79.95-.81.91-.86.89-.88.85-.92.82-.95.78-.97.75-1.01.71-1.04.67-1.06.63-1.09.59-1.11.55-1.14.51-1.16.46-1.18.42-1.2.37-1.22.33-1.24.28-1.26.23-1.28.18-1.29.14-1.3.08-1.32.02-1.32-.02-1.31-.08-1.29-.14-1.27-.18-1.26-.23-1.24-.28-1.23-.33-1.2-.37-1.18-.42-1.16-.46-1.14-.51-1.11-.55-1.09-.59-1.06-.63-1.04-.67-1-.71-.98-.75-.95-.78-.92-.82-.88-.85-.85-.89-.82-.91-.78-.95-.75-.98-.71-1.01-.67-1.03-.63-1.06-.59-1.09-.55-1.12-.51-1.13-.46-1.16-.42-1.18-.38-1.21-.32-1.22-.28-1.24-.23-1.26-.19-1.27-.13-1.29-.08-1.31-.02-1.32.02-1.32.08-1.3.13-1.29.19-1.28.23-1.26.28-1.24.32-1.22.38-1.2.42-1.18.46-1.16.51-1.14.55-1.11.59-1.09.63-1.06.67-1.04.71-1.01.75-.97.78-.95.82-.92.85-.89.88-.85.92-.81.95-.79.98-.74,1-.71,1.04-.67,1.06-.64,1.09-.59,1.11-.55,1.14-.5,1.16-.47,1.18-.42,1.2-.37,1.23-.33,1.24-.28,1.26-.23,1.27-.18,1.29-.13,1.31-.08,1.32-.03,1.32.03Zm-5.22,16.1-1.25.26-1.21.35-1.17.44-1.13.53-1.07.61-1.02.69-.97.76-.9.84-.83.9-.77.96-.69,1.02-.61,1.08-.53,1.12-.44,1.17-.35,1.22-.25,1.25-.16,1.28-.05,1.31.05,1.31.16,1.29.25,1.25.35,1.21.44,1.17.53,1.13.61,1.07.69,1.02.77.96.83.91.9.83.97.77,1.02.68,1.07.62,1.13.52,1.17.45,1.21.35,1.25.25,1.28.16,1.32.05,1.31-.05,1.28-.16,1.25-.25,1.21-.35,1.17-.45,1.13-.52,1.07-.62,1.03-.68.96-.77.9-.83.83-.91.77-.96.69-1.02.61-1.07.53-1.13.44-1.17.35-1.21.26-1.25.15-1.29.06-1.31-.06-1.31-.15-1.28-.26-1.25-.35-1.22-.44-1.17-.53-1.12-.61-1.08-.69-1.02-.77-.96-.83-.9-.9-.84-.96-.76-1.03-.69-1.07-.61-1.13-.53-1.17-.44-1.21-.35-1.25-.26-1.28-.15-1.31-.06-1.32.06Z" fill="#fff"/>
        <g id="Group_7" data-name="Group 7">
          <path id="Path_22" data-name="Path 22" d="M225.34,113.69l1.29.13,1.28.18,1.26.23,1.24.28,1.22.33,1.2.37,1.18.42,1.16.47,1.14.5,1.11.55,1.09.59,1.06.64,1.04.67,1.01.71.97.74.95.79.92.81.88.85.86.89.81.92.79.95.74.97.71,1.01.67,1.04.63,1.06.59,1.09.55,1.11.51,1.14.47,1.16.42,1.18.37,1.2.33,1.22.28,1.24.23,1.26.18,1.28.13,1.29.08,1.3.03,1.32-.03,1.32-.08,1.31-.13,1.29-.18,1.27-.23,1.26-.28,1.24-.33,1.22-.37,1.21-.42,1.18-.47,1.16-.51,1.13-.55,1.12-.59,1.09-.63,1.06-.67,1.03-.71,1.01-.74.98-.79.95-.81.91-.86.89-.88.85-.92.82-.95.78-.97.75-1.01.71-1.04.67-1.06.63-1.09.59-1.11.55-1.14.51-1.16.46-1.18.42-1.2.37-1.22.33-1.24.28-1.26.23-1.28.18-1.29.14-1.3.08-1.32.02-1.32-.02-1.31-.08-1.29-.14-1.27-.18-1.26-.23-1.24-.28-1.23-.33-1.2-.37-1.18-.42-1.16-.46-1.14-.51-1.11-.55-1.09-.59-1.06-.63-1.04-.67-1-.71-.98-.75-.95-.78-.92-.82-.88-.85-.85-.89-.82-.91-.78-.95-.75-.98-.71-1.01-.67-1.03-.63-1.06-.59-1.09-.55-1.12-.51-1.13-.46-1.16-.42-1.18-.38-1.21-.32-1.22-.28-1.24-.23-1.26-.19-1.27-.13-1.29-.08-1.31-.02-1.32.02-1.32.08-1.3.13-1.29.19-1.28.23-1.26.28-1.24.32-1.22.38-1.2.42-1.18.46-1.16.51-1.14.55-1.11.59-1.09.63-1.06.67-1.04.71-1.01.75-.97.78-.95.82-.92.85-.89.88-.85.92-.81.95-.79.98-.74,1-.71,1.04-.67,1.06-.64,1.09-.59,1.11-.55,1.14-.5,1.16-.47,1.18-.42,1.2-.37,1.23-.33,1.24-.28,1.26-.23,1.27-.18,1.29-.13,1.31-.08,1.32-.03,1.32.03Zm-5.22,16.1-1.25.26-1.21.35-1.17.44-1.13.53-1.07.61-1.02.69-.97.76-.9.84-.83.9-.77.96-.69,1.02-.61,1.08-.53,1.12-.44,1.17-.35,1.22-.25,1.25-.16,1.28-.05,1.31.05,1.31.16,1.29.25,1.25.35,1.21.44,1.17.53,1.13.61,1.07.69,1.02.77.96.83.91.9.83.97.77,1.02.68,1.07.62,1.13.52,1.17.45,1.21.35,1.25.25,1.28.16,1.32.05,1.31-.05,1.28-.16,1.25-.25,1.21-.35,1.17-.45,1.13-.52,1.07-.62,1.03-.68.96-.77.9-.83.83-.91.77-.96.69-1.02.61-1.07.53-1.13.44-1.17.35-1.21.26-1.25.15-1.29.06-1.31-.06-1.31-.15-1.28-.26-1.25-.35-1.22-.44-1.17-.53-1.12-.61-1.08-.69-1.02-.77-.96-.83-.9-.9-.84-.96-.76-1.03-.69-1.07-.61-1.13-.53-1.17-.44-1.21-.35-1.25-.26-1.28-.15-1.31-.06-1.32.06Z" fill="#fff" stroke="rgba(0,0,0,0)" stroke-width="1"/>
        </g>
      </g>
      <g id="Group_10" data-name="Group 10">
        <path id="Path_23" data-name="Path 23" d="M305.34,113.69l1.29.13,1.28.18,1.26.23,1.24.28,1.22.33,1.2.37,1.18.42,1.16.47,1.14.5,1.11.55,1.09.59,1.06.64,1.04.67,1.01.71.97.74.95.79.92.81.88.85.86.89.81.92.79.95.74.97.71,1.01.67,1.04.63,1.06.59,1.09.55,1.11.51,1.14.47,1.16.42,1.18.37,1.2.33,1.22.28,1.24.23,1.26.18,1.28.13,1.29.08,1.3.03,1.32-.03,1.32-.08,1.31-.13,1.29-.18,1.27-.23,1.26-.28,1.24-.33,1.22-.37,1.21-.42,1.18-.47,1.16-.51,1.13-.55,1.12-.59,1.09-.63,1.06-.67,1.03-.71,1.01-.74.98-.79.95-.81.91-.86.89-.88.85-.92.82-.95.78-.97.75-1.01.71-1.04.67-1.06.63-1.09.59-1.11.55-1.14.51-1.16.46-1.18.42-1.2.37-1.22.33-1.24.28-1.26.23-1.28.18-1.29.14-1.3.08-1.32.02-1.32-.02-1.31-.08-1.29-.14-1.27-.18-1.26-.23-1.24-.28-1.23-.33-1.2-.37-1.18-.42-1.16-.46-1.14-.51-1.11-.55-1.09-.59-1.06-.63-1.04-.67-1-.71-.98-.75-.95-.78-.92-.82-.88-.85-.85-.89-.82-.91-.78-.95-.75-.98-.71-1.01-.67-1.03-.63-1.06-.59-1.09-.55-1.12-.51-1.13-.46-1.16-.42-1.18-.38-1.21-.32-1.22-.28-1.24-.23-1.26-.19-1.27-.13-1.29-.08-1.31-.02-1.32.02-1.32.08-1.3.13-1.29.19-1.28.23-1.26.28-1.24.32-1.22.38-1.2.42-1.18.46-1.16.51-1.14.55-1.11.59-1.09.63-1.06.67-1.04.71-1.01.75-.97.78-.95.82-.92.85-.89.88-.85.92-.81.95-.79.98-.74,1-.71,1.04-.67,1.06-.64,1.09-.59,1.11-.55,1.14-.5,1.16-.47,1.18-.42,1.2-.37,1.23-.33,1.24-.28,1.26-.23,1.27-.18,1.29-.13,1.31-.08,1.32-.03,1.32.03Zm-5.22,16.1-1.25.26-1.21.35-1.17.44-1.13.53-1.07.61-1.02.69-.97.76-.9.84-.83.9-.77.96-.69,1.02-.61,1.08-.53,1.12-.44,1.17-.35,1.22-.25,1.25-.16,1.28-.05,1.31.05,1.31.16,1.29.25,1.25.35,1.21.44,1.17.53,1.13.61,1.07.69,1.02.77.96.83.91.9.83.97.77,1.02.68,1.07.62,1.13.52,1.17.45,1.21.35,1.25.25,1.28.16,1.32.05,1.31-.05,1.28-.16,1.25-.25,1.21-.35,1.17-.45,1.13-.52,1.07-.62,1.03-.68.96-.77.9-.83.83-.91.77-.96.69-1.02.61-1.07.53-1.13.44-1.17.35-1.21.26-1.25.15-1.29.06-1.31-.06-1.31-.15-1.28-.26-1.25-.35-1.22-.44-1.17-.53-1.12-.61-1.08-.69-1.02-.77-.96-.83-.9-.9-.84-.96-.76-1.03-.69-1.07-.61-1.13-.53-1.17-.44-1.21-.35-1.25-.26-1.28-.15-1.31-.06-1.32.06Z" fill="#fff"/>
        <g id="Group_9" data-name="Group 9">
          <path id="Path_24" data-name="Path 24" d="M305.34,113.69l1.29.13,1.28.18,1.26.23,1.24.28,1.22.33,1.2.37,1.18.42,1.16.47,1.14.5,1.11.55,1.09.59,1.06.64,1.04.67,1.01.71.97.74.95.79.92.81.88.85.86.89.81.92.79.95.74.97.71,1.01.67,1.04.63,1.06.59,1.09.55,1.11.51,1.14.47,1.16.42,1.18.37,1.2.33,1.22.28,1.24.23,1.26.18,1.28.13,1.29.08,1.3.03,1.32-.03,1.32-.08,1.31-.13,1.29-.18,1.27-.23,1.26-.28,1.24-.33,1.22-.37,1.21-.42,1.18-.47,1.16-.51,1.13-.55,1.12-.59,1.09-.63,1.06-.67,1.03-.71,1.01-.74.98-.79.95-.81.91-.86.89-.88.85-.92.82-.95.78-.97.75-1.01.71-1.04.67-1.06.63-1.09.59-1.11.55-1.14.51-1.16.46-1.18.42-1.2.37-1.22.33-1.24.28-1.26.23-1.28.18-1.29.14-1.3.08-1.32.02-1.32-.02-1.31-.08-1.29-.14-1.27-.18-1.26-.23-1.24-.28-1.23-.33-1.2-.37-1.18-.42-1.16-.46-1.14-.51-1.11-.55-1.09-.59-1.06-.63-1.04-.67-1-.71-.98-.75-.95-.78-.92-.82-.88-.85-.85-.89-.82-.91-.78-.95-.75-.98-.71-1.01-.67-1.03-.63-1.06-.59-1.09-.55-1.12-.51-1.13-.46-1.16-.42-1.18-.38-1.21-.32-1.22-.28-1.24-.23-1.26-.19-1.27-.13-1.29-.08-1.31-.02-1.32.02-1.32.08-1.3.13-1.29.19-1.28.23-1.26.28-1.24.32-1.22.38-1.2.42-1.18.46-1.16.51-1.14.55-1.11.59-1.09.63-1.06.67-1.04.71-1.01.75-.97.78-.95.82-.92.85-.89.88-.85.92-.81.95-.79.98-.74,1-.71,1.04-.67,1.06-.64,1.09-.59,1.11-.55,1.14-.5,1.16-.47,1.18-.42,1.2-.37,1.23-.33,1.24-.28,1.26-.23,1.27-.18,1.29-.13,1.31-.08,1.32-.03,1.32.03Zm-5.22,16.1-1.25.26-1.21.35-1.17.44-1.13.53-1.07.61-1.02.69-.97.76-.9.84-.83.9-.77.96-.69,1.02-.61,1.08-.53,1.12-.44,1.17-.35,1.22-.25,1.25-.16,1.28-.05,1.31.05,1.31.16,1.29.25,1.25.35,1.21.44,1.17.53,1.13.61,1.07.69,1.02.77.96.83.91.9.83.97.77,1.02.68,1.07.62,1.13.52,1.17.45,1.21.35,1.25.25,1.28.16,1.32.05,1.31-.05,1.28-.16,1.25-.25,1.21-.35,1.17-.45,1.13-.52,1.07-.62,1.03-.68.96-.77.9-.83.83-.91.77-.96.69-1.02.61-1.07.53-1.13.44-1.17.35-1.21.26-1.25.15-1.29.06-1.31-.06-1.31-.15-1.28-.26-1.25-.35-1.22-.44-1.17-.53-1.12-.61-1.08-.69-1.02-.77-.96-.83-.9-.9-.84-.96-.76-1.03-.69-1.07-.61-1.13-.53-1.17-.44-1.21-.35-1.25-.26-1.28-.15-1.31-.06-1.32.06Z" fill="#fff" stroke="rgba(0,0,0,0)" stroke-width="1"/>
        </g>
      </g>
      <g id="Group_12" data-name="Group 12">
        <path id="Path_25" data-name="Path 25" d="M438.72,113.58a8,8,0,0,0,0,16h96a8,8,0,1,0,0-16Z" fill="#fff"/>
        <g id="Group_11" data-name="Group 11">
          <path id="Path_26" data-name="Path 26" d="M438.72,113.58a8,8,0,0,0,0,16h96a8,8,0,1,0,0-16Z" fill="#fff" stroke="rgba(0,0,0,0)" stroke-width="1"/>
        </g>
      </g>
      <g id="Group_14" data-name="Group 14">
        <path id="Path_27" data-name="Path 27" d="M502.72,137.58a8,8,0,0,0,0,16h32a8,8,0,0,0,0-16Z" fill="#fff"/>
        <g id="Group_13" data-name="Group 13">
          <path id="Path_28" data-name="Path 28" d="M502.72,137.58a8,8,0,0,0,0,16h32a8,8,0,0,0,0-16Z" fill="#fff" stroke="rgba(0,0,0,0)" stroke-width="1"/>
        </g>
      </g>
      <g id="Group_16" data-name="Group 16">
        <path id="Path_29" data-name="Path 29" d="M526.72,161.58a8,8,0,0,0,0,16h8a8,8,0,0,0,0-16Z" fill="#fff"/>
        <g id="Group_15" data-name="Group 15">
          <path id="Path_30" data-name="Path 30" d="M526.72,161.58a8,8,0,0,0,0,16h8a8,8,0,0,0,0-16Z" fill="#fff" stroke="rgba(0,0,0,0)" stroke-width="1"/>
        </g>
      </g>
      <g id="Group_18" data-name="Group 18">
        <path id="Path_31" data-name="Path 31" d="M406.72,113.58a8,8,0,0,0,0,16h8a8,8,0,1,0,0-16Z" fill="#fff"/>
        <g id="Group_17" data-name="Group 17">
          <path id="Path_32" data-name="Path 32" d="M406.72,113.58a8,8,0,0,0,0,16h8a8,8,0,1,0,0-16Z" fill="#fff" stroke="rgba(0,0,0,0)" stroke-width="1"/>
        </g>
      </g>
      <g id="Group_20" data-name="Group 20">
        <path id="Path_33" data-name="Path 33" d="M158.72,449.58a8,8,0,1,0,0-16h-40a8,8,0,0,0,0,16Z" fill="#fff"/>
        <g id="Group_19" data-name="Group 19">
          <path id="Path_34" data-name="Path 34" d="M158.72,449.58a8,8,0,1,0,0-16h-40a8,8,0,0,0,0,16Z" fill="#fff" stroke="rgba(0,0,0,0)" stroke-width="1"/>
        </g>
      </g>
      <g id="Group_22" data-name="Group 22">
        <path id="Path_35" data-name="Path 35" d="M182.72,433.58a8,8,0,0,0,0,16h16a8,8,0,1,0,0-16Z" fill="#fff"/>
        <g id="Group_21" data-name="Group 21">
          <path id="Path_36" data-name="Path 36" d="M182.72,433.58a8,8,0,0,0,0,16h16a8,8,0,1,0,0-16Z" fill="#fff" stroke="rgba(0,0,0,0)" stroke-width="1"/>
        </g>
      </g>
    </g>
  </g>
</svg>
