<?xml version="1.0" encoding="UTF-8" standalone="no"?>
<!DOCTYPE svg PUBLIC "-//W3C//DTD SVG 1.1//EN" "http://www.w3.org/Graphics/SVG/1.1/DTD/svg11.dtd">
<svg version="1.1" xmlns="http://www.w3.org/2000/svg" xmlns:xlink="http://www.w3.org/1999/xlink" preserveAspectRatio="xMidYMid meet" viewBox="0 0 640 640" width="640" height="640"><defs><path d="M567.37 81.61L567.7 81.64L568.01 81.69L568.33 81.74L568.64 81.81L568.94 81.9L569.25 81.99L569.54 82.09L569.83 82.21L570.11 82.34L570.39 82.48L570.66 82.62L570.93 82.78L571.19 82.95L571.44 83.13L571.69 83.31L571.92 83.51L572.15 83.71L572.37 83.93L572.59 84.15L572.79 84.38L572.99 84.61L573.17 84.86L573.35 85.11L573.52 85.37L573.68 85.63L573.82 85.91L573.96 86.18L574.09 86.47L574.2 86.76L574.31 87.05L574.4 87.35L574.48 87.66L574.55 87.97L574.61 88.28L574.66 88.6L574.69 88.93L574.71 89.25L574.72 89.58L574.72 473.58L574.71 473.91L574.69 474.24L574.66 474.56L574.61 474.88L574.55 475.19L574.48 475.5L574.4 475.81L574.31 476.11L574.2 476.41L574.09 476.7L573.96 476.98L573.82 477.26L573.68 477.53L573.52 477.8L573.35 478.05L573.17 478.31L572.99 478.55L572.79 478.79L572.59 479.02L572.37 479.24L572.15 479.45L571.92 479.66L571.69 479.85L571.44 480.04L571.19 480.22L570.93 480.38L570.66 480.54L570.39 480.69L570.11 480.83L569.83 480.95L569.54 481.07L569.25 481.17L568.94 481.27L568.64 481.35L568.33 481.42L568.01 481.48L567.7 481.52L567.37 481.56L567.05 481.58L566.72 481.58L558.72 481.58L558.72 497.58L558.71 497.91L558.69 498.24L558.66 498.56L558.61 498.88L558.55 499.19L558.48 499.5L558.4 499.81L558.31 500.11L558.2 500.41L558.09 500.7L557.96 500.98L557.82 501.26L557.68 501.53L557.52 501.8L557.35 502.05L557.17 502.31L556.99 502.55L556.79 502.79L556.59 503.02L556.37 503.24L556.15 503.45L555.92 503.66L555.69 503.85L555.44 504.04L555.19 504.22L554.93 504.38L554.66 504.54L554.39 504.69L554.11 504.83L553.83 504.95L553.54 505.07L553.25 505.17L552.94 505.27L552.64 505.35L552.33 505.42L552.01 505.48L551.7 505.52L551.37 505.56L551.05 505.58L550.72 505.58L102.72 505.58L102.39 505.58L102.06 505.56L101.74 505.52L101.42 505.48L101.1 505.42L100.79 505.35L100.49 505.27L100.19 505.17L99.89 505.07L99.6 504.95L99.32 504.83L99.04 504.69L98.77 504.54L98.5 504.38L98.24 504.22L97.99 504.04L97.75 503.85L97.51 503.66L97.28 503.45L97.06 503.24L96.85 503.02L96.64 502.79L96.45 502.55L96.26 502.31L96.08 502.05L95.92 501.8L95.76 501.53L95.61 501.26L95.47 500.98L95.35 500.7L95.23 500.41L95.12 500.11L95.03 499.81L94.95 499.5L94.88 499.19L94.82 498.88L94.78 498.56L94.74 498.24L94.72 497.91L94.72 497.58L94.72 481.58L86.72 481.58L86.39 481.58L86.06 481.56L85.74 481.52L85.42 481.48L85.1 481.42L84.79 481.35L84.49 481.27L84.19 481.17L83.89 481.07L83.6 480.95L83.32 480.83L83.04 480.69L82.77 480.54L82.5 480.38L82.24 480.22L81.99 480.04L81.75 479.85L81.51 479.66L81.28 479.45L81.06 479.24L80.85 479.02L80.64 478.79L80.45 478.55L80.26 478.31L80.08 478.05L79.92 477.8L79.76 477.53L79.61 477.26L79.47 476.98L79.35 476.7L79.23 476.41L79.12 476.11L79.03 475.81L78.95 475.5L78.88 475.19L78.82 474.88L78.78 474.56L78.74 474.24L78.72 473.91L78.72 473.58L78.72 89.58L78.72 89.25L78.74 88.93L78.78 88.6L78.82 88.28L78.88 87.97L78.95 87.66L79.03 87.35L79.12 87.05L79.23 86.76L79.35 86.47L79.47 86.18L79.61 85.91L79.76 85.63L79.92 85.37L80.08 85.11L80.26 84.86L80.45 84.61L80.64 84.38L80.85 84.15L81.06 83.93L81.28 83.71L81.51 83.51L81.75 83.31L81.99 83.13L82.24 82.95L82.5 82.78L82.77 82.62L83.04 82.48L83.32 82.34L83.6 82.21L83.89 82.09L84.19 81.99L84.49 81.9L84.79 81.81L85.1 81.74L85.42 81.69L85.74 81.64L86.06 81.61L86.39 81.59L86.72 81.58L566.72 81.58L567.05 81.59L567.37 81.61ZM110.72 489.58L542.72 489.58L542.72 481.58L110.72 481.58L110.72 489.58ZM94.72 465.58L558.72 465.58L558.72 209.58L94.72 209.58L94.72 465.58ZM94.72 193.58L558.72 193.58L558.72 97.58L94.72 97.58L94.72 193.58Z" id="i2dMOkv9mP"></path><path d="M535.37 233.61L535.7 233.64L536.01 233.69L536.33 233.74L536.64 233.81L536.94 233.9L537.25 233.99L537.54 234.09L537.83 234.21L538.11 234.34L538.39 234.48L538.66 234.62L538.93 234.78L539.19 234.95L539.44 235.13L539.69 235.31L539.92 235.51L540.15 235.71L540.37 235.93L540.59 236.15L540.79 236.38L540.99 236.61L541.17 236.86L541.35 237.11L541.52 237.37L541.68 237.63L541.82 237.91L541.96 238.18L542.09 238.47L542.2 238.76L542.31 239.05L542.4 239.35L542.48 239.66L542.55 239.97L542.61 240.28L542.66 240.6L542.69 240.93L542.71 241.25L542.72 241.58L542.72 409.58L542.71 409.91L542.69 410.24L542.66 410.56L542.61 410.88L542.55 411.19L542.48 411.5L542.4 411.81L542.31 412.11L542.2 412.41L542.09 412.7L541.96 412.98L541.82 413.26L541.68 413.53L541.52 413.8L541.35 414.05L541.17 414.31L540.99 414.55L540.79 414.79L540.59 415.02L540.37 415.24L540.15 415.45L539.92 415.66L539.69 415.85L539.44 416.04L539.19 416.22L538.93 416.38L538.66 416.54L538.39 416.69L538.11 416.83L537.83 416.95L537.54 417.07L537.25 417.17L536.94 417.27L536.64 417.35L536.33 417.42L536.01 417.48L535.7 417.52L535.37 417.56L535.05 417.58L534.72 417.58L118.72 417.58L118.39 417.58L118.06 417.56L117.74 417.52L117.42 417.48L117.1 417.42L116.79 417.35L116.49 417.27L116.19 417.17L115.89 417.07L115.6 416.95L115.32 416.83L115.04 416.69L114.77 416.54L114.5 416.38L114.24 416.22L113.99 416.04L113.75 415.85L113.51 415.66L113.28 415.45L113.06 415.24L112.85 415.02L112.64 414.79L112.45 414.55L112.26 414.31L112.08 414.05L111.92 413.8L111.76 413.53L111.61 413.26L111.47 412.98L111.35 412.7L111.23 412.41L111.12 412.11L111.03 411.81L110.95 411.5L110.88 411.19L110.82 410.88L110.78 410.56L110.74 410.24L110.72 409.91L110.72 409.58L110.72 241.58L110.72 241.25L110.74 240.93L110.78 240.6L110.82 240.28L110.88 239.97L110.95 239.66L111.03 239.35L111.12 239.05L111.23 238.76L111.35 238.47L111.47 238.18L111.61 237.91L111.76 237.63L111.92 237.37L112.08 237.11L112.26 236.86L112.45 236.61L112.64 236.38L112.85 236.15L113.06 235.93L113.28 235.71L113.51 235.51L113.75 235.31L113.99 235.13L114.24 234.95L114.5 234.78L114.77 234.62L115.04 234.48L115.32 234.34L115.6 234.21L115.89 234.09L116.19 233.99L116.49 233.9L116.79 233.81L117.1 233.74L117.42 233.69L117.74 233.64L118.06 233.61L118.39 233.59L118.72 233.58L534.72 233.58L535.05 233.59L535.37 233.61ZM126.72 401.58L526.72 401.58L526.72 369.58L126.72 369.58L126.72 401.58ZM126.72 353.58L526.72 353.58L526.72 249.58L126.72 249.58L126.72 353.58Z" id="a1a6HALzm5"></path><path d="M145.34 113.69L146.63 113.82L147.91 114L149.17 114.23L150.41 114.51L151.63 114.84L152.83 115.21L154.01 115.63L155.17 116.1L156.31 116.6L157.42 117.15L158.51 117.74L159.57 118.38L160.61 119.05L161.62 119.76L162.59 120.5L163.54 121.29L164.46 122.1L165.34 122.95L166.2 123.84L167.01 124.76L167.8 125.71L168.54 126.68L169.25 127.69L169.92 128.73L170.55 129.79L171.14 130.88L171.69 131.99L172.2 133.13L172.67 134.29L173.09 135.47L173.46 136.67L173.79 137.89L174.07 139.13L174.3 140.39L174.48 141.67L174.61 142.96L174.69 144.26L174.72 145.58L174.69 146.9L174.61 148.21L174.48 149.5L174.3 150.77L174.07 152.03L173.79 153.27L173.46 154.49L173.09 155.7L172.67 156.88L172.2 158.04L171.69 159.17L171.14 160.29L170.55 161.38L169.92 162.44L169.25 163.47L168.54 164.48L167.8 165.46L167.01 166.41L166.2 167.32L165.34 168.21L164.46 169.06L163.54 169.88L162.59 170.66L161.62 171.41L160.61 172.12L159.57 172.79L158.51 173.42L157.42 174.01L156.31 174.56L155.17 175.07L154.01 175.53L152.83 175.95L151.63 176.32L150.41 176.65L149.17 176.93L147.91 177.16L146.63 177.34L145.34 177.48L144.04 177.56L142.72 177.58L141.4 177.56L140.09 177.48L138.8 177.34L137.53 177.16L136.27 176.93L135.03 176.65L133.8 176.32L132.6 175.95L131.42 175.53L130.26 175.07L129.12 174.56L128.01 174.01L126.92 173.42L125.86 172.79L124.82 172.12L123.82 171.41L122.84 170.66L121.89 169.88L120.97 169.06L120.09 168.21L119.24 167.32L118.42 166.41L117.64 165.46L116.89 164.48L116.18 163.47L115.51 162.44L114.88 161.38L114.29 160.29L113.74 159.17L113.23 158.04L112.77 156.88L112.35 155.7L111.97 154.49L111.65 153.27L111.37 152.03L111.14 150.77L110.95 149.5L110.82 148.21L110.74 146.9L110.72 145.58L110.74 144.26L110.82 142.96L110.95 141.67L111.14 140.39L111.37 139.13L111.65 137.89L111.97 136.67L112.35 135.47L112.77 134.29L113.23 133.13L113.74 131.99L114.29 130.88L114.88 129.79L115.51 128.73L116.18 127.69L116.89 126.68L117.64 125.71L118.42 124.76L119.24 123.84L120.09 122.95L120.97 122.1L121.89 121.29L122.84 120.5L123.82 119.76L124.82 119.05L125.86 118.38L126.92 117.74L128.01 117.15L129.12 116.6L130.26 116.1L131.42 115.63L132.6 115.21L133.8 114.84L135.03 114.51L136.27 114.23L137.53 114L138.8 113.82L140.09 113.69L141.4 113.61L142.72 113.58L144.04 113.61L145.34 113.69ZM140.12 129.79L138.87 130.05L137.66 130.4L136.49 130.84L135.36 131.37L134.29 131.98L133.27 132.67L132.3 133.43L131.4 134.27L130.57 135.17L129.8 136.13L129.11 137.15L128.5 138.23L127.97 139.35L127.53 140.52L127.18 141.74L126.93 142.99L126.77 144.27L126.72 145.58L126.77 146.89L126.93 148.18L127.18 149.43L127.53 150.64L127.97 151.81L128.5 152.94L129.11 154.01L129.8 155.03L130.57 155.99L131.4 156.9L132.3 157.73L133.27 158.5L134.29 159.18L135.36 159.8L136.49 160.32L137.66 160.77L138.87 161.12L140.12 161.37L141.4 161.53L142.72 161.58L144.03 161.53L145.31 161.37L146.56 161.12L147.77 160.77L148.94 160.32L150.07 159.8L151.14 159.18L152.17 158.5L153.13 157.73L154.03 156.9L154.86 155.99L155.63 155.03L156.32 154.01L156.93 152.94L157.46 151.81L157.9 150.64L158.25 149.43L158.51 148.18L158.66 146.89L158.72 145.58L158.66 144.27L158.51 142.99L158.25 141.74L157.9 140.52L157.46 139.35L156.93 138.23L156.32 137.15L155.63 136.13L154.86 135.17L154.03 134.27L153.13 133.43L152.17 132.67L151.14 131.98L150.07 131.37L148.94 130.84L147.77 130.4L146.56 130.05L145.31 129.79L144.03 129.64L142.72 129.58L141.4 129.64L140.12 129.79Z" id="b3Kn9JsrGl"></path><path d="M225.34 113.69L226.63 113.82L227.91 114L229.17 114.23L230.41 114.51L231.63 114.84L232.83 115.21L234.01 115.63L235.17 116.1L236.31 116.6L237.42 117.15L238.51 117.74L239.57 118.38L240.61 119.05L241.62 119.76L242.59 120.5L243.54 121.29L244.46 122.1L245.34 122.95L246.2 123.84L247.01 124.76L247.8 125.71L248.54 126.68L249.25 127.69L249.92 128.73L250.55 129.79L251.14 130.88L251.69 131.99L252.2 133.13L252.67 134.29L253.09 135.47L253.46 136.67L253.79 137.89L254.07 139.13L254.3 140.39L254.48 141.67L254.61 142.96L254.69 144.26L254.72 145.58L254.69 146.9L254.61 148.21L254.48 149.5L254.3 150.77L254.07 152.03L253.79 153.27L253.46 154.49L253.09 155.7L252.67 156.88L252.2 158.04L251.69 159.17L251.14 160.29L250.55 161.38L249.92 162.44L249.25 163.47L248.54 164.48L247.8 165.46L247.01 166.41L246.2 167.32L245.34 168.21L244.46 169.06L243.54 169.88L242.59 170.66L241.62 171.41L240.61 172.12L239.57 172.79L238.51 173.42L237.42 174.01L236.31 174.56L235.17 175.07L234.01 175.53L232.83 175.95L231.63 176.32L230.41 176.65L229.17 176.93L227.91 177.16L226.63 177.34L225.34 177.48L224.04 177.56L222.72 177.58L221.4 177.56L220.09 177.48L218.8 177.34L217.53 177.16L216.27 176.93L215.03 176.65L213.8 176.32L212.6 175.95L211.42 175.53L210.26 175.07L209.12 174.56L208.01 174.01L206.92 173.42L205.86 172.79L204.82 172.12L203.82 171.41L202.84 170.66L201.89 169.88L200.97 169.06L200.09 168.21L199.24 167.32L198.42 166.41L197.64 165.46L196.89 164.48L196.18 163.47L195.51 162.44L194.88 161.38L194.29 160.29L193.74 159.17L193.23 158.04L192.77 156.88L192.35 155.7L191.97 154.49L191.65 153.27L191.37 152.03L191.14 150.77L190.95 149.5L190.82 148.21L190.74 146.9L190.72 145.58L190.74 144.26L190.82 142.96L190.95 141.67L191.14 140.39L191.37 139.13L191.65 137.89L191.97 136.67L192.35 135.47L192.77 134.29L193.23 133.13L193.74 131.99L194.29 130.88L194.88 129.79L195.51 128.73L196.18 127.69L196.89 126.68L197.64 125.71L198.42 124.76L199.24 123.84L200.09 122.95L200.97 122.1L201.89 121.29L202.84 120.5L203.82 119.76L204.82 119.05L205.86 118.38L206.92 117.74L208.01 117.15L209.12 116.6L210.26 116.1L211.42 115.63L212.6 115.21L213.8 114.84L215.03 114.51L216.27 114.23L217.53 114L218.8 113.82L220.09 113.69L221.4 113.61L222.72 113.58L224.04 113.61L225.34 113.69ZM220.12 129.79L218.87 130.05L217.66 130.4L216.49 130.84L215.36 131.37L214.29 131.98L213.27 132.67L212.3 133.43L211.4 134.27L210.57 135.17L209.8 136.13L209.11 137.15L208.5 138.23L207.97 139.35L207.53 140.52L207.18 141.74L206.93 142.99L206.77 144.27L206.72 145.58L206.77 146.89L206.93 148.18L207.18 149.43L207.53 150.64L207.97 151.81L208.5 152.94L209.11 154.01L209.8 155.03L210.57 155.99L211.4 156.9L212.3 157.73L213.27 158.5L214.29 159.18L215.36 159.8L216.49 160.32L217.66 160.77L218.87 161.12L220.12 161.37L221.4 161.53L222.72 161.58L224.03 161.53L225.31 161.37L226.56 161.12L227.77 160.77L228.94 160.32L230.07 159.8L231.14 159.18L232.17 158.5L233.13 157.73L234.03 156.9L234.86 155.99L235.63 155.03L236.32 154.01L236.93 152.94L237.46 151.81L237.9 150.64L238.25 149.43L238.51 148.18L238.66 146.89L238.72 145.58L238.66 144.27L238.51 142.99L238.25 141.74L237.9 140.52L237.46 139.35L236.93 138.23L236.32 137.15L235.63 136.13L234.86 135.17L234.03 134.27L233.13 133.43L232.17 132.67L231.14 131.98L230.07 131.37L228.94 130.84L227.77 130.4L226.56 130.05L225.31 129.79L224.03 129.64L222.72 129.58L221.4 129.64L220.12 129.79Z" id="dBqaSrvaa"></path><path d="M305.34 113.69L306.63 113.82L307.91 114L309.17 114.23L310.41 114.51L311.63 114.84L312.83 115.21L314.01 115.63L315.17 116.1L316.31 116.6L317.42 117.15L318.51 117.74L319.57 118.38L320.61 119.05L321.62 119.76L322.59 120.5L323.54 121.29L324.46 122.1L325.34 122.95L326.2 123.84L327.01 124.76L327.8 125.71L328.54 126.68L329.25 127.69L329.92 128.73L330.55 129.79L331.14 130.88L331.69 131.99L332.2 133.13L332.67 134.29L333.09 135.47L333.46 136.67L333.79 137.89L334.07 139.13L334.3 140.39L334.48 141.67L334.61 142.96L334.69 144.26L334.72 145.58L334.69 146.9L334.61 148.21L334.48 149.5L334.3 150.77L334.07 152.03L333.79 153.27L333.46 154.49L333.09 155.7L332.67 156.88L332.2 158.04L331.69 159.17L331.14 160.29L330.55 161.38L329.92 162.44L329.25 163.47L328.54 164.48L327.8 165.46L327.01 166.41L326.2 167.32L325.34 168.21L324.46 169.06L323.54 169.88L322.59 170.66L321.62 171.41L320.61 172.12L319.57 172.79L318.51 173.42L317.42 174.01L316.31 174.56L315.17 175.07L314.01 175.53L312.83 175.95L311.63 176.32L310.41 176.65L309.17 176.93L307.91 177.16L306.63 177.34L305.34 177.48L304.04 177.56L302.72 177.58L301.4 177.56L300.09 177.48L298.8 177.34L297.53 177.16L296.27 176.93L295.03 176.65L293.8 176.32L292.6 175.95L291.42 175.53L290.26 175.07L289.12 174.56L288.01 174.01L286.92 173.42L285.86 172.79L284.82 172.12L283.82 171.41L282.84 170.66L281.89 169.88L280.97 169.06L280.09 168.21L279.24 167.32L278.42 166.41L277.64 165.46L276.89 164.48L276.18 163.47L275.51 162.44L274.88 161.38L274.29 160.29L273.74 159.17L273.23 158.04L272.77 156.88L272.35 155.7L271.97 154.49L271.65 153.27L271.37 152.03L271.14 150.77L270.95 149.5L270.82 148.21L270.74 146.9L270.72 145.58L270.74 144.26L270.82 142.96L270.95 141.67L271.14 140.39L271.37 139.13L271.65 137.89L271.97 136.67L272.35 135.47L272.77 134.29L273.23 133.13L273.74 131.99L274.29 130.88L274.88 129.79L275.51 128.73L276.18 127.69L276.89 126.68L277.64 125.71L278.42 124.76L279.24 123.84L280.09 122.95L280.97 122.1L281.89 121.29L282.84 120.5L283.82 119.76L284.82 119.05L285.86 118.38L286.92 117.74L288.01 117.15L289.12 116.6L290.26 116.1L291.42 115.63L292.6 115.21L293.8 114.84L295.03 114.51L296.27 114.23L297.53 114L298.8 113.82L300.09 113.69L301.4 113.61L302.72 113.58L304.04 113.61L305.34 113.69ZM300.12 129.79L298.87 130.05L297.66 130.4L296.49 130.84L295.36 131.37L294.29 131.98L293.27 132.67L292.3 133.43L291.4 134.27L290.57 135.17L289.8 136.13L289.11 137.15L288.5 138.23L287.97 139.35L287.53 140.52L287.18 141.74L286.93 142.99L286.77 144.27L286.72 145.58L286.77 146.89L286.93 148.18L287.18 149.43L287.53 150.64L287.97 151.81L288.5 152.94L289.11 154.01L289.8 155.03L290.57 155.99L291.4 156.9L292.3 157.73L293.27 158.5L294.29 159.18L295.36 159.8L296.49 160.32L297.66 160.77L298.87 161.12L300.12 161.37L301.4 161.53L302.72 161.58L304.03 161.53L305.31 161.37L306.56 161.12L307.77 160.77L308.94 160.32L310.07 159.8L311.14 159.18L312.17 158.5L313.13 157.73L314.03 156.9L314.86 155.99L315.63 155.03L316.32 154.01L316.93 152.94L317.46 151.81L317.9 150.64L318.25 149.43L318.51 148.18L318.66 146.89L318.72 145.58L318.66 144.27L318.51 142.99L318.25 141.74L317.9 140.52L317.46 139.35L316.93 138.23L316.32 137.15L315.63 136.13L314.86 135.17L314.03 134.27L313.13 133.43L312.17 132.67L311.14 131.98L310.07 131.37L308.94 130.84L307.77 130.4L306.56 130.05L305.31 129.79L304.03 129.64L302.72 129.58L301.4 129.64L300.12 129.79Z" id="a3yhp2m4j"></path><path d="M438.72 113.58C434.3 113.58 430.72 117.16 430.72 121.58C430.72 126 434.3 129.58 438.72 129.58C448.32 129.58 525.12 129.58 534.72 129.58C539.13 129.58 542.72 126 542.72 121.58C542.72 117.16 539.13 113.58 534.72 113.58C515.52 113.58 448.32 113.58 438.72 113.58Z" id="bloLBxnw1"></path><path d="M502.72 137.58C498.3 137.58 494.72 141.16 494.72 145.58C494.72 150 498.3 153.58 502.72 153.58C505.92 153.58 531.52 153.58 534.72 153.58C539.13 153.58 542.72 150 542.72 145.58C542.72 141.16 539.13 137.58 534.72 137.58C528.32 137.58 505.92 137.58 502.72 137.58Z" id="coTHeLwD4"></path><path d="M526.72 161.58C522.3 161.58 518.72 165.16 518.72 169.58C518.72 174 522.3 177.58 526.72 177.58C527.52 177.58 533.92 177.58 534.72 177.58C539.13 177.58 542.72 174 542.72 169.58C542.72 165.16 539.13 161.58 534.72 161.58C533.12 161.58 527.52 161.58 526.72 161.58Z" id="e1IJIU3IY0"></path><path d="M406.72 113.58C402.3 113.58 398.72 117.16 398.72 121.58C398.72 126 402.3 129.58 406.72 129.58C407.52 129.58 413.92 129.58 414.72 129.58C419.13 129.58 422.72 126 422.72 121.58C422.72 117.16 419.13 113.58 414.72 113.58C413.12 113.58 407.52 113.58 406.72 113.58Z" id="b355XXBRW"></path><path d="M158.72 449.58C163.13 449.58 166.72 446 166.72 441.58C166.72 437.16 163.13 433.58 158.72 433.58C154.72 433.58 122.72 433.58 118.72 433.58C114.3 433.58 110.72 437.16 110.72 441.58C110.72 446 114.3 449.58 118.72 449.58C126.72 449.58 154.72 449.58 158.72 449.58Z" id="b1kbb4QT0I"></path><path d="M182.72 433.58C178.3 433.58 174.72 437.16 174.72 441.58C174.72 446 178.3 449.58 182.72 449.58C184.32 449.58 197.12 449.58 198.72 449.58C203.13 449.58 206.72 446 206.72 441.58C206.72 437.16 203.13 433.58 198.72 433.58C195.52 433.58 184.32 433.58 182.72 433.58Z" id="dVu2R1MOX"></path></defs><g><g><g><use xlink:href="#i2dMOkv9mP" opacity="1" fill="#000000" fill-opacity="1"></use><g><use xlink:href="#i2dMOkv9mP" opacity="1" fill-opacity="0" stroke="#000000" stroke-width="1" stroke-opacity="0"></use></g></g><g><use xlink:href="#a1a6HALzm5" opacity="1" fill="#000000" fill-opacity="1"></use><g><use xlink:href="#a1a6HALzm5" opacity="1" fill-opacity="0" stroke="#000000" stroke-width="1" stroke-opacity="0"></use></g></g><g><use xlink:href="#b3Kn9JsrGl" opacity="1" fill="#000000" fill-opacity="1"></use><g><use xlink:href="#b3Kn9JsrGl" opacity="1" fill-opacity="0" stroke="#000000" stroke-width="1" stroke-opacity="0"></use></g></g><g><use xlink:href="#dBqaSrvaa" opacity="1" fill="#000000" fill-opacity="1"></use><g><use xlink:href="#dBqaSrvaa" opacity="1" fill-opacity="0" stroke="#000000" stroke-width="1" stroke-opacity="0"></use></g></g><g><use xlink:href="#a3yhp2m4j" opacity="1" fill="#000000" fill-opacity="1"></use><g><use xlink:href="#a3yhp2m4j" opacity="1" fill-opacity="0" stroke="#000000" stroke-width="1" stroke-opacity="0"></use></g></g><g><use xlink:href="#bloLBxnw1" opacity="1" fill="#000000" fill-opacity="1"></use><g><use xlink:href="#bloLBxnw1" opacity="1" fill-opacity="0" stroke="#000000" stroke-width="1" stroke-opacity="0"></use></g></g><g><use xlink:href="#coTHeLwD4" opacity="1" fill="#000000" fill-opacity="1"></use><g><use xlink:href="#coTHeLwD4" opacity="1" fill-opacity="0" stroke="#000000" stroke-width="1" stroke-opacity="0"></use></g></g><g><use xlink:href="#e1IJIU3IY0" opacity="1" fill="#000000" fill-opacity="1"></use><g><use xlink:href="#e1IJIU3IY0" opacity="1" fill-opacity="0" stroke="#000000" stroke-width="1" stroke-opacity="0"></use></g></g><g><use xlink:href="#b355XXBRW" opacity="1" fill="#000000" fill-opacity="1"></use><g><use xlink:href="#b355XXBRW" opacity="1" fill-opacity="0" stroke="#000000" stroke-width="1" stroke-opacity="0"></use></g></g><g><use xlink:href="#b1kbb4QT0I" opacity="1" fill="#000000" fill-opacity="1"></use><g><use xlink:href="#b1kbb4QT0I" opacity="1" fill-opacity="0" stroke="#000000" stroke-width="1" stroke-opacity="0"></use></g></g><g><use xlink:href="#dVu2R1MOX" opacity="1" fill="#000000" fill-opacity="1"></use><g><use xlink:href="#dVu2R1MOX" opacity="1" fill-opacity="0" stroke="#000000" stroke-width="1" stroke-opacity="0"></use></g></g></g></g></svg>