<svg xmlns="http://www.w3.org/2000/svg" width="633.72" height="497" viewBox="0 0 633.72 497">
  <g id="speaker-on" transform="translate(-3.05 -45.56)">
    <g id="Group_27" data-name="Group 27">
      <g id="Group_2" data-name="Group 2">
        <path id="Path_10" data-name="Path 10" d="M472.66,46.09l.32.03.32.04.31.06.31.07.31.08.3.1.29.1.29.12.29.13.28.13.27.15.26.16.26.17.25.17.25.19.24.2.23.2.22.21.21.22.2.23.2.24.19.25.17.25.17.26.16.26.15.27.13.28.13.29.12.29.1.29.1.3.08.31.07.31.06.31.04.32.03.32.02.33.01.33v480l-.01.33-.02.33-.03.32-.04.32-.06.31-.07.31-.08.31-.1.3-.1.29-.12.29-.13.29-.13.28-.15.27-.16.26-.17.26-.17.25-.19.25-.2.24-.2.23-.21.22-.22.21-.23.2-.24.2-.25.19-.25.17-.26.17-.26.16-.27.15-.28.13-.29.13-.29.12-.29.1-.3.1-.31.08-.31.07-.31.05-.32.05-.32.03-.33.02-.33.01H168l-.33-.01-.33-.02-.32-.03-.32-.05-.31-.05-.31-.07-.31-.08-.3-.1-.29-.1-.29-.12-.29-.13-.28-.13-.27-.15-.26-.16-.26-.17-.25-.17-.25-.19-.24-.2-.23-.2-.22-.21-.21-.22-.2-.23-.2-.24-.19-.25-.17-.25-.17-.26-.16-.26-.15-.27-.13-.28-.13-.29-.12-.29-.1-.29-.1-.3-.08-.31-.07-.31-.06-.31-.04-.32-.03-.32-.02-.33-.01-.33v-480l.01-.33.02-.33.03-.32.04-.32.06-.31.07-.31.08-.31.1-.3.1-.29.12-.29.13-.29.13-.28.15-.27.16-.26.17-.26.17-.25.19-.25.2-.24.2-.23.21-.22.22-.21.23-.2.24-.2.25-.19.25-.17.26-.17.26-.16.27-.15.28-.13.29-.13.29-.12.29-.1.3-.1.31-.08.31-.07.31-.06.32-.04.32-.03.33-.02.33-.01H472l.33.01ZM176,526.06H464v-8H176Zm0-24H464v-440H176Z" fill="#fff"/>
        <g id="Group_1" data-name="Group 1">
          <path id="Path_11" data-name="Path 11" d="M472.66,46.09l.32.03.32.04.31.06.31.07.31.08.3.1.29.1.29.12.29.13.28.13.27.15.26.16.26.17.25.17.25.19.24.2.23.2.22.21.21.22.2.23.2.24.19.25.17.25.17.26.16.26.15.27.13.28.13.29.12.29.1.29.1.3.08.31.07.31.06.31.04.32.03.32.02.33.01.33v480l-.01.33-.02.33-.03.32-.04.32-.06.31-.07.31-.08.31-.1.3-.1.29-.12.29-.13.29-.13.28-.15.27-.16.26-.17.26-.17.25-.19.25-.2.24-.2.23-.21.22-.22.21-.23.2-.24.2-.25.19-.25.17-.26.17-.26.16-.27.15-.28.13-.29.13-.29.12-.29.1-.3.1-.31.08-.31.07-.31.05-.32.05-.32.03-.33.02-.33.01H168l-.33-.01-.33-.02-.32-.03-.32-.05-.31-.05-.31-.07-.31-.08-.3-.1-.29-.1-.29-.12-.29-.13-.28-.13-.27-.15-.26-.16-.26-.17-.25-.17-.25-.19-.24-.2-.23-.2-.22-.21-.21-.22-.2-.23-.2-.24-.19-.25-.17-.25-.17-.26-.16-.26-.15-.27-.13-.28-.13-.29-.12-.29-.1-.29-.1-.3-.08-.31-.07-.31-.06-.31-.04-.32-.03-.32-.02-.33-.01-.33v-480l.01-.33.02-.33.03-.32.04-.32.06-.31.07-.31.08-.31.1-.3.1-.29.12-.29.13-.29.13-.28.15-.27.16-.26.17-.26.17-.25.19-.25.2-.24.2-.23.21-.22.22-.21.23-.2.24-.2.25-.19.25-.17.26-.17.26-.16.27-.15.28-.13.29-.13.29-.12.29-.1.3-.1.31-.08.31-.07.31-.06.32-.04.32-.03.33-.02.33-.01H472l.33.01ZM176,526.06H464v-8H176Zm0-24H464v-440H176Z" fill="#fff" stroke="rgba(0,0,0,0)" stroke-width="1"/>
        </g>
      </g>
      <g id="Group_4" data-name="Group 4">
        <path id="Path_12" data-name="Path 12" d="M382.56,70.33l3.22.33,3.19.46,3.15.58,3.1.7,3.05.82,3,.94,2.96,1.05,2.89,1.16,2.85,1.27,2.78,1.37,2.72,1.48,2.65,1.58,2.59,1.68,2.51,1.77,2.45,1.87,2.37,1.95,2.29,2.05,2.21,2.13,2.13,2.21,2.05,2.29,1.95,2.37,1.87,2.45,1.77,2.51,1.68,2.59,1.58,2.65,1.48,2.72,1.37,2.78,1.27,2.85,1.16,2.89,1.05,2.96.94,3,.82,3.05.7,3.1.58,3.15.46,3.19.33,3.22.2,3.26.07,3.3-.07,3.3-.2,3.26-.32,3.23-.46,3.19-.58,3.14-.7,3.1-.81,3.06-.94,3.01-1.05,2.95-1.16,2.9-1.27,2.84-1.37,2.78-1.48,2.72-1.58,2.66-1.67,2.59-1.78,2.52-1.86,2.44-1.96,2.37-2.04,2.3-2.13,2.21-2.21,2.13-2.3,2.04-2.37,1.96-2.44,1.86-2.52,1.78-2.59,1.67-2.65,1.58-2.73,1.48-2.78,1.37-2.84,1.27-2.9,1.16-2.95,1.05-3.01.94-3.06.81-3.1.7-3.14.58-3.19.46-3.23.32-3.26.2-3.3.07-3.3-.07-3.26-.2-3.23-.32-3.19-.46-3.14-.58-3.1-.7-3.06-.81-3.01-.94-2.95-1.05-2.9-1.16-2.84-1.27-2.78-1.37-2.73-1.48-2.65-1.58-2.59-1.67-2.52-1.78-2.44-1.86-2.37-1.96-2.3-2.04-2.21-2.13-2.13-2.21-2.04-2.3-1.96-2.37-1.86-2.44-1.78-2.52-1.67-2.59-1.58-2.66-1.48-2.72-1.37-2.78-1.27-2.84-1.16-2.9-1.05-2.95-.94-3.01-.81-3.06-.7-3.1-.58-3.14-.46-3.19-.32-3.23-.2-3.26-.07-3.3.07-3.3.2-3.26.32-3.23.46-3.19.58-3.14.7-3.11.81-3.05.94-3.01,1.05-2.95,1.16-2.9,1.27-2.84,1.37-2.78,1.48-2.73,1.58-2.65,1.67-2.59,1.78-2.52,1.86-2.44L315.26,98l2.04-2.3,2.13-2.21,2.21-2.13,2.3-2.04,2.37-1.96,2.44-1.86,2.52-1.78,2.59-1.67,2.65-1.58,2.73-1.48,2.78-1.38,2.84-1.26,2.9-1.16,2.95-1.05,3.01-.94,3.06-.82,3.1-.69,3.14-.58,3.19-.46,3.23-.33,3.26-.19,3.3-.07,3.3.07ZM370.75,86.27l-2.58.26-2.55.37-2.52.46-2.48.56-2.44.65-2.41.75-2.36.84-2.32.93-2.28,1.01-2.22,1.1-2.18,1.19-2.12,1.26-2.07,1.34-2.02,1.42-1.95,1.49-1.9,1.57-1.83,1.63-1.77,1.7-1.71,1.77-1.63,1.84-1.57,1.9-1.49,1.95-1.42,2.02-1.34,2.07-1.26,2.12-1.19,2.18-1.1,2.22-1.01,2.28-.93,2.32-.84,2.36-.75,2.41-.65,2.44-.56,2.48-.46,2.52-.37,2.55-.26,2.58-.16,2.61-.05,2.64.05,2.64.16,2.61.26,2.58.37,2.55.46,2.52.56,2.48.65,2.44.75,2.41.84,2.36.93,2.32,1.01,2.28,1.1,2.22,1.19,2.18,1.26,2.12,1.34,2.07,1.42,2.02,1.49,1.95,1.57,1.9,1.63,1.83,1.71,1.77,1.77,1.71,1.83,1.63,1.9,1.57,1.95,1.49,2.02,1.42,2.07,1.34,2.12,1.26,2.18,1.19,2.22,1.1,2.28,1.01,2.32.93,2.36.84,2.41.74,2.44.66,2.48.56,2.52.46,2.55.37,2.58.26,2.61.16,2.64.05,2.64-.06,2.61-.16,2.58-.26,2.55-.37,2.51-.46,2.48-.56,2.45-.66,2.4-.75,2.36-.84,2.32-.93,2.27-1.01,2.23-1.1,2.17-1.19,2.13-1.26,2.07-1.34,2.01-1.42,1.95-1.49,1.9-1.57,1.83-1.63,1.77-1.71,1.71-1.77,1.63-1.83,1.57-1.9,1.49-1.95,1.42-2.01,1.34-2.07,1.26-2.13,1.19-2.17,1.1-2.23,1.01-2.27.93-2.32.84-2.36.75-2.4.66-2.45.56-2.48.46-2.51.37-2.55.26-2.58.16-2.61.06-2.64-.05-2.64-.16-2.61-.26-2.58-.37-2.55-.46-2.52-.56-2.48-.65-2.44-.75-2.41-.84-2.36-.93-2.32-1.01-2.28-1.1-2.22-1.19-2.18-1.26-2.12-1.34-2.07-1.42-2.02-1.49-1.95-1.57-1.9-1.63-1.84-1.71-1.77-1.77-1.7-1.83-1.63-1.9-1.57-1.95-1.49-2.02-1.42-2.07-1.34-2.12-1.26-2.18-1.19-2.22-1.1-2.28-1.01-2.32-.93-2.36-.84-2.41-.75-2.44-.65-2.48-.56-2.52-.46-2.55-.37-2.58-.26-2.61-.16L376,86.06l-2.64.05Z" fill="#fff"/>
        <g id="Group_3" data-name="Group 3">
          <path id="Path_13" data-name="Path 13" d="M382.56,70.33l3.22.33,3.19.46,3.15.58,3.1.7,3.05.82,3,.94,2.96,1.05,2.89,1.16,2.85,1.27,2.78,1.37,2.72,1.48,2.65,1.58,2.59,1.68,2.51,1.77,2.45,1.87,2.37,1.95,2.29,2.05,2.21,2.13,2.13,2.21,2.05,2.29,1.95,2.37,1.87,2.45,1.77,2.51,1.68,2.59,1.58,2.65,1.48,2.72,1.37,2.78,1.27,2.85,1.16,2.89,1.05,2.96.94,3,.82,3.05.7,3.1.58,3.15.46,3.19.33,3.22.2,3.26.07,3.3-.07,3.3-.2,3.26-.32,3.23-.46,3.19-.58,3.14-.7,3.1-.81,3.06-.94,3.01-1.05,2.95-1.16,2.9-1.27,2.84-1.37,2.78-1.48,2.72-1.58,2.66-1.67,2.59-1.78,2.52-1.86,2.44-1.96,2.37-2.04,2.3-2.13,2.21-2.21,2.13-2.3,2.04-2.37,1.96-2.44,1.86-2.52,1.78-2.59,1.67-2.65,1.58-2.73,1.48-2.78,1.37-2.84,1.27-2.9,1.16-2.95,1.05-3.01.94-3.06.81-3.1.7-3.14.58-3.19.46-3.23.32-3.26.2-3.3.07-3.3-.07-3.26-.2-3.23-.32-3.19-.46-3.14-.58-3.1-.7-3.06-.81-3.01-.94-2.95-1.05-2.9-1.16-2.84-1.27-2.78-1.37-2.73-1.48-2.65-1.58-2.59-1.67-2.52-1.78-2.44-1.86-2.37-1.96-2.3-2.04-2.21-2.13-2.13-2.21-2.04-2.3-1.96-2.37-1.86-2.44-1.78-2.52-1.67-2.59-1.58-2.66-1.48-2.72-1.37-2.78-1.27-2.84-1.16-2.9-1.05-2.95-.94-3.01-.81-3.06-.7-3.1-.58-3.14-.46-3.19-.32-3.23-.2-3.26-.07-3.3.07-3.3.2-3.26.32-3.23.46-3.19.58-3.14.7-3.11.81-3.05.94-3.01,1.05-2.95,1.16-2.9,1.27-2.84,1.37-2.78,1.48-2.73,1.58-2.65,1.67-2.59,1.78-2.52,1.86-2.44L315.26,98l2.04-2.3,2.13-2.21,2.21-2.13,2.3-2.04,2.37-1.96,2.44-1.86,2.52-1.78,2.59-1.67,2.65-1.58,2.73-1.48,2.78-1.38,2.84-1.26,2.9-1.16,2.95-1.05,3.01-.94,3.06-.82,3.1-.69,3.14-.58,3.19-.46,3.23-.33,3.26-.19,3.3-.07,3.3.07ZM370.75,86.27l-2.58.26-2.55.37-2.52.46-2.48.56-2.44.65-2.41.75-2.36.84-2.32.93-2.28,1.01-2.22,1.1-2.18,1.19-2.12,1.26-2.07,1.34-2.02,1.42-1.95,1.49-1.9,1.57-1.83,1.63-1.77,1.7-1.71,1.77-1.63,1.84-1.57,1.9-1.49,1.95-1.42,2.02-1.34,2.07-1.26,2.12-1.19,2.18-1.1,2.22-1.01,2.28-.93,2.32-.84,2.36-.75,2.41-.65,2.44-.56,2.48-.46,2.52-.37,2.55-.26,2.58-.16,2.61-.05,2.64.05,2.64.16,2.61.26,2.58.37,2.55.46,2.52.56,2.48.65,2.44.75,2.41.84,2.36.93,2.32,1.01,2.28,1.1,2.22,1.19,2.18,1.26,2.12,1.34,2.07,1.42,2.02,1.49,1.95,1.57,1.9,1.63,1.83,1.71,1.77,1.77,1.71,1.83,1.63,1.9,1.57,1.95,1.49,2.02,1.42,2.07,1.34,2.12,1.26,2.18,1.19,2.22,1.1,2.28,1.01,2.32.93,2.36.84,2.41.74,2.44.66,2.48.56,2.52.46,2.55.37,2.58.26,2.61.16,2.64.05,2.64-.06,2.61-.16,2.58-.26,2.55-.37,2.51-.46,2.48-.56,2.45-.66,2.4-.75,2.36-.84,2.32-.93,2.27-1.01,2.23-1.1,2.17-1.19,2.13-1.26,2.07-1.34,2.01-1.42,1.95-1.49,1.9-1.57,1.83-1.63,1.77-1.71,1.71-1.77,1.63-1.83,1.57-1.9,1.49-1.95,1.42-2.01,1.34-2.07,1.26-2.13,1.19-2.17,1.1-2.23,1.01-2.27.93-2.32.84-2.36.75-2.4.66-2.45.56-2.48.46-2.51.37-2.55.26-2.58.16-2.61.06-2.64-.05-2.64-.16-2.61-.26-2.58-.37-2.55-.46-2.52-.56-2.48-.65-2.44-.75-2.41-.84-2.36-.93-2.32-1.01-2.28-1.1-2.22-1.19-2.18-1.26-2.12-1.34-2.07-1.42-2.02-1.49-1.95-1.57-1.9-1.63-1.84-1.71-1.77-1.77-1.7-1.83-1.63-1.9-1.57-1.95-1.49-2.02-1.42-2.07-1.34-2.12-1.26-2.18-1.19-2.22-1.1-2.28-1.01-2.32-.93-2.36-.84-2.41-.75-2.44-.65-2.48-.56-2.52-.46-2.55-.37-2.58-.26-2.61-.16L376,86.06l-2.64.05Z" fill="#fff" stroke="rgba(0,0,0,0)" stroke-width="1"/>
        </g>
      </g>
      <g id="Group_6" data-name="Group 6">
        <path id="Path_14" data-name="Path 14" d="M379.28,110.2l1.61.16,1.59.23,1.58.29,1.55.35,1.52.41,1.51.47,1.47.53,1.45.58,1.42.63,1.39.69,1.36.74,1.33.79,1.29.84,1.26.88,1.22.93,1.19.98,1.14,1.02,1.11,1.07,1.06,1.11,1.03,1.14.97,1.19.94,1.22.88,1.26.84,1.29.79,1.33.74,1.36.69,1.39.63,1.42.58,1.45.53,1.47.47,1.51.41,1.52.35,1.55.29,1.57.23,1.6.16,1.61.1,1.63.04,1.65-.03,1.65-.1,1.63-.17,1.61-.22,1.6-.29,1.57-.35,1.55-.41,1.53-.47,1.5-.52,1.48-.58,1.45-.64,1.42-.68,1.39-.74,1.36-.79,1.33-.84,1.29-.89,1.26-.93,1.23-.98,1.18-1.02,1.15-1.07,1.1-1.1,1.07-1.15,1.02-1.18.98-1.23.93-1.26.89-1.29.84-1.33.79-1.36.73-1.39.69-1.42.64-1.45.58-1.48.52-1.5.47-1.53.41-1.55.35-1.57.29-1.6.22-1.61.17-1.63.1-1.65.03-1.65-.03-1.63-.1-1.61-.17-1.6-.22-1.57-.29-1.55-.35-1.53-.41-1.5-.47-1.48-.52-1.45-.58-1.42-.64-1.39-.69-1.36-.73-1.33-.79-1.29-.84-1.26-.89-1.23-.93-1.18-.98-1.15-1.02-1.1-1.07-1.07-1.1-1.02-1.15-.98-1.18-.93-1.23-.89-1.26-.84-1.29-.79-1.33-.74-1.36-.68-1.39-.64-1.42-.58-1.45-.52-1.48-.47-1.5-.41-1.53-.35-1.55-.29-1.57-.22-1.6-.17-1.61-.1-1.63-.03-1.65.03-1.65.1-1.63.17-1.61.22-1.6.29-1.57.35-1.55.41-1.53.47-1.5.52-1.48.58-1.45.64-1.42.68-1.39.74-1.36.79-1.33.84-1.29.89-1.26.93-1.23.98-1.18,1.02-1.15,1.07-1.1,1.1-1.07,1.15-1.02,1.18-.98,1.23-.93,1.26-.89,1.29-.84,1.33-.79,1.36-.74,1.39-.68,1.42-.64,1.45-.58,1.48-.52,1.5-.47,1.53-.41,1.55-.35,1.57-.29,1.6-.22,1.61-.17,1.63-.1,1.65-.03,1.65.03Zm-5.9,16-1.27.17-1.26.24-1.23.31-1.21.36-1.17.43-1.15.49-1.12.54-1.08.6-1.05.65-1.01.7-.98.75-.93.8-.89.85-.85.89-.8.93-.75.98-.7,1.01-.65,1.05-.6,1.08-.54,1.12-.49,1.15-.43,1.17-.36,1.21-.31,1.23-.24,1.26-.17,1.27-.1,1.3-.04,1.32.04,1.32.1,1.29.17,1.28.24,1.26.31,1.23.36,1.21.43,1.17.49,1.15.54,1.12.6,1.08.65,1.05.7,1.01.75.98.8.93.85.89.89.85.93.8.98.75,1.01.7,1.05.65,1.08.6,1.12.54,1.15.49,1.17.43,1.21.36,1.23.31,1.26.24,1.27.17,1.3.1,1.32.04,1.32-.04,1.3-.1,1.27-.17,1.26-.24,1.23-.31,1.21-.36,1.17-.43,1.15-.49,1.12-.54,1.08-.6,1.05-.65,1.01-.7.98-.75.93-.8.89-.85.85-.89.8-.93.75-.98.7-1.01.65-1.05.6-1.08.54-1.12.49-1.15.43-1.17.36-1.21.31-1.23.24-1.26.17-1.28.1-1.29.04-1.32-.04-1.32-.1-1.3-.17-1.27-.24-1.26-.31-1.23-.36-1.21-.43-1.17-.49-1.15-.54-1.12-.6-1.08-.65-1.05-.7-1.01-.75-.98-.8-.93-.85-.89-.89-.85-.93-.8-.98-.75-1.01-.7-1.05-.65-1.08-.6-1.12-.54-1.15-.49-1.17-.43-1.21-.36-1.23-.31-1.26-.24-1.27-.17-1.3-.1-1.32-.04-1.32.04Z" fill="#fff"/>
        <g id="Group_5" data-name="Group 5">
          <path id="Path_15" data-name="Path 15" d="M379.28,110.2l1.61.16,1.59.23,1.58.29,1.55.35,1.52.41,1.51.47,1.47.53,1.45.58,1.42.63,1.39.69,1.36.74,1.33.79,1.29.84,1.26.88,1.22.93,1.19.98,1.14,1.02,1.11,1.07,1.06,1.11,1.03,1.14.97,1.19.94,1.22.88,1.26.84,1.29.79,1.33.74,1.36.69,1.39.63,1.42.58,1.45.53,1.47.47,1.51.41,1.52.35,1.55.29,1.57.23,1.6.16,1.61.1,1.63.04,1.65-.03,1.65-.1,1.63-.17,1.61-.22,1.6-.29,1.57-.35,1.55-.41,1.53-.47,1.5-.52,1.48-.58,1.45-.64,1.42-.68,1.39-.74,1.36-.79,1.33-.84,1.29-.89,1.26-.93,1.23-.98,1.18-1.02,1.15-1.07,1.1-1.1,1.07-1.15,1.02-1.18.98-1.23.93-1.26.89-1.29.84-1.33.79-1.36.73-1.39.69-1.42.64-1.45.58-1.48.52-1.5.47-1.53.41-1.55.35-1.57.29-1.6.22-1.61.17-1.63.1-1.65.03-1.65-.03-1.63-.1-1.61-.17-1.6-.22-1.57-.29-1.55-.35-1.53-.41-1.5-.47-1.48-.52-1.45-.58-1.42-.64-1.39-.69-1.36-.73-1.33-.79-1.29-.84-1.26-.89-1.23-.93-1.18-.98-1.15-1.02-1.1-1.07-1.07-1.1-1.02-1.15-.98-1.18-.93-1.23-.89-1.26-.84-1.29-.79-1.33-.74-1.36-.68-1.39-.64-1.42-.58-1.45-.52-1.48-.47-1.5-.41-1.53-.35-1.55-.29-1.57-.22-1.6-.17-1.61-.1-1.63-.03-1.65.03-1.65.1-1.63.17-1.61.22-1.6.29-1.57.35-1.55.41-1.53.47-1.5.52-1.48.58-1.45.64-1.42.68-1.39.74-1.36.79-1.33.84-1.29.89-1.26.93-1.23.98-1.18,1.02-1.15,1.07-1.1,1.1-1.07,1.15-1.02,1.18-.98,1.23-.93,1.26-.89,1.29-.84,1.33-.79,1.36-.74,1.39-.68,1.42-.64,1.45-.58,1.48-.52,1.5-.47,1.53-.41,1.55-.35,1.57-.29,1.6-.22,1.61-.17,1.63-.1,1.65-.03,1.65.03Zm-5.9,16-1.27.17-1.26.24-1.23.31-1.21.36-1.17.43-1.15.49-1.12.54-1.08.6-1.05.65-1.01.7-.98.75-.93.8-.89.85-.85.89-.8.93-.75.98-.7,1.01-.65,1.05-.6,1.08-.54,1.12-.49,1.15-.43,1.17-.36,1.21-.31,1.23-.24,1.26-.17,1.27-.1,1.3-.04,1.32.04,1.32.1,1.29.17,1.28.24,1.26.31,1.23.36,1.21.43,1.17.49,1.15.54,1.12.6,1.08.65,1.05.7,1.01.75.98.8.93.85.89.89.85.93.8.98.75,1.01.7,1.05.65,1.08.6,1.12.54,1.15.49,1.17.43,1.21.36,1.23.31,1.26.24,1.27.17,1.3.1,1.32.04,1.32-.04,1.3-.1,1.27-.17,1.26-.24,1.23-.31,1.21-.36,1.17-.43,1.15-.49,1.12-.54,1.08-.6,1.05-.65,1.01-.7.98-.75.93-.8.89-.85.85-.89.8-.93.75-.98.7-1.01.65-1.05.6-1.08.54-1.12.49-1.15.43-1.17.36-1.21.31-1.23.24-1.26.17-1.28.1-1.29.04-1.32-.04-1.32-.1-1.3-.17-1.27-.24-1.26-.31-1.23-.36-1.21-.43-1.17-.49-1.15-.54-1.12-.6-1.08-.65-1.05-.7-1.01-.75-.98-.8-.93-.85-.89-.89-.85-.93-.8-.98-.75-1.01-.7-1.05-.65-1.08-.6-1.12-.54-1.15-.49-1.17-.43-1.21-.36-1.23-.31-1.26-.24-1.27-.17-1.3-.1-1.32-.04-1.32.04Z" fill="#fff" stroke="rgba(0,0,0,0)" stroke-width="1"/>
        </g>
      </g>
      <g id="Group_8" data-name="Group 8">
        <path id="Path_16" data-name="Path 16" d="M330.49,238.5l5.16.52,5.1.74,5.03.93,4.96,1.12,4.89,1.31,4.81,1.5,4.72,1.68,4.64,1.86,4.54,2.03,4.45,2.2,4.35,2.37,4.25,2.52,4.14,2.69,4.03,2.83,3.91,2.99,3.79,3.13,3.67,3.27,3.54,3.4,3.4,3.54,3.27,3.67,3.13,3.79,2.99,3.91,2.83,4.03,2.69,4.14,2.52,4.25,2.37,4.35,2.2,4.45,2.03,4.54,1.86,4.64,1.68,4.72,1.5,4.81,1.31,4.89,1.12,4.96.93,5.03.73,5.1.53,5.16.33,5.22.11,5.27-.11,5.28-.31,5.22-.53,5.16-.73,5.1-.92,5.04-1.12,4.96-1.31,4.89-1.5,4.81-1.67,4.72-1.86,4.64-2.03,4.55-2.2,4.45-2.36,4.36-2.53,4.24-2.68,4.15-2.84,4.02-2.98,3.92-3.13,3.79-3.27,3.67-3.41,3.54-3.54,3.41-3.67,3.27-3.79,3.13-3.91,2.98-4.03,2.84-4.15,2.68-4.24,2.53-4.36,2.36-4.45,2.2L369.82,484l-4.64,1.86-4.72,1.67-4.81,1.5-4.89,1.31-4.96,1.12-5.04.92-5.1.73-5.16.53-5.22.31-5.28.11-5.28-.11-5.22-.31-5.16-.53-5.1-.73-5.04-.92-4.96-1.12-4.89-1.31-4.81-1.5-4.72-1.67L270.18,484l-4.55-2.03-4.45-2.2-4.36-2.36-4.24-2.53-4.15-2.68-4.03-2.84-3.91-2.98-3.79-3.13-3.67-3.27-3.54-3.41-3.41-3.54-3.27-3.67-3.13-3.79-2.98-3.92-2.84-4.02-2.68-4.15-2.53-4.24-2.36-4.36-2.2-4.45-2.03-4.55-1.86-4.64-1.67-4.72-1.5-4.81-1.31-4.89-1.12-4.96-.92-5.04-.73-5.1-.53-5.16-.31-5.22-.11-5.28.11-5.28.31-5.22.53-5.16.73-5.1.92-5.04,1.12-4.96,1.31-4.89,1.5-4.81,1.67-4.72,1.86-4.64,2.03-4.55,2.2-4.45,2.36-4.36,2.53-4.25,2.68-4.14,2.84-4.03,2.98-3.91,3.13-3.79,3.27-3.67,3.41-3.54,3.54-3.41,3.67-3.27,3.79-3.13,3.91-2.98,4.03-2.84,4.15-2.68,4.24-2.53,4.36-2.36,4.45-2.2,4.55-2.03,4.64-1.86,4.72-1.67,4.81-1.5,4.89-1.31,4.96-1.12,5.04-.92,5.1-.73,5.16-.53,5.22-.31,5.28-.11,5.27.11Zm-19.68,15.93-4.51.46-4.47.64-4.4.81-4.34.97-4.28,1.15-4.21,1.31-4.14,1.47-4.06,1.62-3.97,1.78-3.9,1.92-3.81,2.07L261,270.84l-3.62,2.35-3.53,2.48-3.42,2.61-3.32,2.74-3.21,2.86-3.1,2.98-2.98,3.1-2.86,3.21-2.74,3.32-2.61,3.42-2.48,3.53-2.35,3.62-2.21,3.72-2.07,3.81-1.92,3.89-1.78,3.98-1.62,4.06-1.47,4.14-1.31,4.21-1.14,4.27-.98,4.35-.81,4.4-.64,4.47-.46,4.51-.28,4.57-.09,4.62.09,4.62.28,4.57.46,4.51.64,4.47.81,4.4.98,4.34,1.14,4.28,1.31,4.21,1.47,4.14,1.62,4.06,1.78,3.97,1.92,3.9,2.07,3.81,2.21,3.72,2.35,3.62,2.48,3.53,2.61,3.42,2.74,3.32,2.86,3.21,2.98,3.1,3.1,2.98,3.21,2.86,3.32,2.74,3.42,2.61,3.53,2.48,3.62,2.35,3.72,2.21,3.81,2.07,3.9,1.92,3.97,1.78,4.06,1.62,4.14,1.47,4.21,1.31,4.28,1.14,4.34.98,4.4.81,4.47.64,4.51.46,4.57.28,4.62.09,4.61-.1,4.57-.28,4.52-.46,4.46-.64,4.4-.82,4.34-.98,4.28-1.15,4.2-1.31,4.14-1.47,4.05-1.62,3.98-1.78,3.9-1.93,3.8-2.07,3.72-2.21,3.62-2.34,3.52-2.49,3.43-2.61,3.32-2.74,3.2-2.86,3.1-2.98,2.98-3.1,2.86-3.21,2.74-3.31,2.61-3.43,2.49-3.52,2.34-3.62,2.21-3.72,2.07-3.8,1.93-3.9,1.78-3.98,1.62-4.05,1.47-4.14,1.31-4.2,1.15-4.28.98-4.34.82-4.4.64-4.46.46-4.52.28-4.57.1-4.61-.09-4.62-.28-4.57-.46-4.51-.64-4.47-.81-4.4-.98-4.35-1.14-4.27-1.31-4.21-1.47-4.14-1.62-4.06-1.78-3.98-1.92-3.89-2.07-3.81-2.21-3.72-2.35-3.62-2.48-3.53-2.61-3.42-2.74-3.32-2.86-3.21-2.98-3.1-3.1-2.98-3.21-2.86-3.32-2.74-3.42-2.61-3.53-2.48L379,270.84l-3.72-2.21-3.81-2.07-3.9-1.92-3.97-1.78-4.06-1.62-4.14-1.47-4.21-1.31-4.28-1.15-4.34-.97-4.4-.81-4.47-.64-4.51-.46-4.57-.28-4.62-.09-4.62.09Z" fill="#fff"/>
        <g id="Group_7" data-name="Group 7">
          <path id="Path_17" data-name="Path 17" d="M330.49,238.5l5.16.52,5.1.74,5.03.93,4.96,1.12,4.89,1.31,4.81,1.5,4.72,1.68,4.64,1.86,4.54,2.03,4.45,2.2,4.35,2.37,4.25,2.52,4.14,2.69,4.03,2.83,3.91,2.99,3.79,3.13,3.67,3.27,3.54,3.4,3.4,3.54,3.27,3.67,3.13,3.79,2.99,3.91,2.83,4.03,2.69,4.14,2.52,4.25,2.37,4.35,2.2,4.45,2.03,4.54,1.86,4.64,1.68,4.72,1.5,4.81,1.31,4.89,1.12,4.96.93,5.03.73,5.1.53,5.16.33,5.22.11,5.27-.11,5.28-.31,5.22-.53,5.16-.73,5.1-.92,5.04-1.12,4.96-1.31,4.89-1.5,4.81-1.67,4.72-1.86,4.64-2.03,4.55-2.2,4.45-2.36,4.36-2.53,4.24-2.68,4.15-2.84,4.02-2.98,3.92-3.13,3.79-3.27,3.67-3.41,3.54-3.54,3.41-3.67,3.27-3.79,3.13-3.91,2.98-4.03,2.84-4.15,2.68-4.24,2.53-4.36,2.36-4.45,2.2L369.82,484l-4.64,1.86-4.72,1.67-4.81,1.5-4.89,1.31-4.96,1.12-5.04.92-5.1.73-5.16.53-5.22.31-5.28.11-5.28-.11-5.22-.31-5.16-.53-5.1-.73-5.04-.92-4.96-1.12-4.89-1.31-4.81-1.5-4.72-1.67L270.18,484l-4.55-2.03-4.45-2.2-4.36-2.36-4.24-2.53-4.15-2.68-4.03-2.84-3.91-2.98-3.79-3.13-3.67-3.27-3.54-3.41-3.41-3.54-3.27-3.67-3.13-3.79-2.98-3.92-2.84-4.02-2.68-4.15-2.53-4.24-2.36-4.36-2.2-4.45-2.03-4.55-1.86-4.64-1.67-4.72-1.5-4.81-1.31-4.89-1.12-4.96-.92-5.04-.73-5.1-.53-5.16-.31-5.22-.11-5.28.11-5.28.31-5.22.53-5.16.73-5.1.92-5.04,1.12-4.96,1.31-4.89,1.5-4.81,1.67-4.72,1.86-4.64,2.03-4.55,2.2-4.45,2.36-4.36,2.53-4.25,2.68-4.14,2.84-4.03,2.98-3.91,3.13-3.79,3.27-3.67,3.41-3.54,3.54-3.41,3.67-3.27,3.79-3.13,3.91-2.98,4.03-2.84,4.15-2.68,4.24-2.53,4.36-2.36,4.45-2.2,4.55-2.03,4.64-1.86,4.72-1.67,4.81-1.5,4.89-1.31,4.96-1.12,5.04-.92,5.1-.73,5.16-.53,5.22-.31,5.28-.11,5.27.11Zm-19.68,15.93-4.51.46-4.47.64-4.4.81-4.34.97-4.28,1.15-4.21,1.31-4.14,1.47-4.06,1.62-3.97,1.78-3.9,1.92-3.81,2.07L261,270.84l-3.62,2.35-3.53,2.48-3.42,2.61-3.32,2.74-3.21,2.86-3.1,2.98-2.98,3.1-2.86,3.21-2.74,3.32-2.61,3.42-2.48,3.53-2.35,3.62-2.21,3.72-2.07,3.81-1.92,3.89-1.78,3.98-1.62,4.06-1.47,4.14-1.31,4.21-1.14,4.27-.98,4.35-.81,4.4-.64,4.47-.46,4.51-.28,4.57-.09,4.62.09,4.62.28,4.57.46,4.51.64,4.47.81,4.4.98,4.34,1.14,4.28,1.31,4.21,1.47,4.14,1.62,4.06,1.78,3.97,1.92,3.9,2.07,3.81,2.21,3.72,2.35,3.62,2.48,3.53,2.61,3.42,2.74,3.32,2.86,3.21,2.98,3.1,3.1,2.98,3.21,2.86,3.32,2.74,3.42,2.61,3.53,2.48,3.62,2.35,3.72,2.21,3.81,2.07,3.9,1.92,3.97,1.78,4.06,1.62,4.14,1.47,4.21,1.31,4.28,1.14,4.34.98,4.4.81,4.47.64,4.51.46,4.57.28,4.62.09,4.61-.1,4.57-.28,4.52-.46,4.46-.64,4.4-.82,4.34-.98,4.28-1.15,4.2-1.31,4.14-1.47,4.05-1.62,3.98-1.78,3.9-1.93,3.8-2.07,3.72-2.21,3.62-2.34,3.52-2.49,3.43-2.61,3.32-2.74,3.2-2.86,3.1-2.98,2.98-3.1,2.86-3.21,2.74-3.31,2.61-3.43,2.49-3.52,2.34-3.62,2.21-3.72,2.07-3.8,1.93-3.9,1.78-3.98,1.62-4.05,1.47-4.14,1.31-4.2,1.15-4.28.98-4.34.82-4.4.64-4.46.46-4.52.28-4.57.1-4.61-.09-4.62-.28-4.57-.46-4.51-.64-4.47-.81-4.4-.98-4.35-1.14-4.27-1.31-4.21-1.47-4.14-1.62-4.06-1.78-3.98-1.92-3.89-2.07-3.81-2.21-3.72-2.35-3.62-2.48-3.53-2.61-3.42-2.74-3.32-2.86-3.21-2.98-3.1-3.1-2.98-3.21-2.86-3.32-2.74-3.42-2.61-3.53-2.48L379,270.84l-3.72-2.21-3.81-2.07-3.9-1.92-3.97-1.78-4.06-1.62-4.14-1.47-4.21-1.31-4.28-1.15-4.34-.97-4.4-.81-4.47-.64-4.51-.46-4.57-.28-4.62-.09-4.62.09Z" fill="#fff" stroke="rgba(0,0,0,0)" stroke-width="1"/>
        </g>
      </g>
      <g id="Group_10" data-name="Group 10">
        <path id="Path_18" data-name="Path 18" d="M327.87,270.39l3.87.39,3.82.55,3.78.7,3.72.84,3.66.98,3.61,1.13,3.54,1.26,3.48,1.39,3.41,1.52,3.34,1.65,3.26,1.78,3.18,1.89,3.11,2.02,3.02,2.12,2.93,2.24,2.85,2.35,2.75,2.45,2.65,2.56,2.56,2.65,2.45,2.75,2.35,2.85,2.24,2.93,2.12,3.02,2.02,3.11,1.89,3.18,1.77,3.26,1.66,3.34,1.52,3.41,1.39,3.48,1.26,3.54,1.13,3.61.98,3.66.84,3.72.7,3.78.55,3.82.39,3.87.25,3.91.08,3.96-.08,3.96-.24,3.91-.39,3.88-.55,3.82-.69,3.78-.84,3.72-.98,3.67-1.12,3.6-1.26,3.55-1.39,3.48-1.53,3.41-1.65,3.34-1.77,3.26-1.89,3.19-2.02,3.1-2.12,3.03-2.24,2.93-2.35,2.85-2.45,2.75-2.56,2.65-2.65,2.56-2.75,2.45-2.85,2.35-2.93,2.24-3.03,2.12-3.1,2.02-3.19,1.89-3.26,1.77-3.34,1.65-3.41,1.53-3.48,1.39-3.55,1.26-3.6,1.12-3.67.98-3.72.84-3.78.69-3.82.55-3.88.39-3.91.24-3.96.08-3.96-.08-3.91-.24-3.88-.39-3.82-.55-3.78-.69-3.72-.84-3.67-.98-3.6-1.12-3.55-1.26-3.48-1.39-3.41-1.53-3.34-1.65-3.26-1.77-3.19-1.89-3.1-2.02-3.03-2.12-2.93-2.24-2.85-2.35-2.75-2.45-2.65-2.56-2.56-2.65-2.45-2.75-2.35-2.85-2.24-2.93-2.12-3.03-2.02-3.1-1.89-3.19-1.77-3.26-1.65-3.34-1.53-3.41-1.39-3.48-1.26-3.55-1.12-3.6-.98-3.67-.84-3.72-.69-3.78-.55-3.82-.39-3.88-.24-3.91-.08-3.96.08-3.96.24-3.91.39-3.88.55-3.82.69-3.78.84-3.72.98-3.67,1.12-3.6,1.26-3.55,1.39-3.48,1.53-3.41,1.65-3.34,1.77-3.26,1.89-3.19,2.02-3.1,2.12-3.03,2.24-2.93,2.35-2.85,2.45-2.75,2.56-2.65,2.65-2.56,2.75-2.45,2.85-2.35,2.93-2.24,3.03-2.13,3.1-2.01,3.19-1.89,3.26-1.77,3.34-1.65,3.41-1.53,3.48-1.39,3.55-1.26,3.6-1.12,3.67-.98,3.72-.84,3.78-.69,3.82-.55,3.88-.39,3.91-.24,3.96-.08,3.96.08Zm-14.43,15.93-3.23.33-3.19.46-3.14.58-3.1.69-3.06.82-3.01.94-2.95,1.05-2.9,1.16-2.84,1.26-2.78,1.38-2.73,1.48-2.65,1.58-2.59,1.67-2.52,1.78-2.44,1.86-2.37,1.96-2.3,2.04-2.21,2.13-2.13,2.21-2.04,2.3-1.96,2.37-1.86,2.44-1.78,2.52-1.67,2.59-1.58,2.65-1.48,2.73-1.37,2.78-1.27,2.84-1.16,2.9-1.05,2.95-.94,3.01-.81,3.05-.7,3.11-.58,3.14-.46,3.19-.32,3.23-.2,3.26-.07,3.3.07,3.3.2,3.26.32,3.23.46,3.19.58,3.14.7,3.1.81,3.06.94,3.01,1.05,2.95,1.16,2.9,1.27,2.84,1.37,2.78,1.48,2.72,1.58,2.66,1.67,2.59,1.78,2.52,1.86,2.44,1.96,2.37,2.04,2.3,2.13,2.21,2.21,2.13,2.3,2.04,2.37,1.96,2.44,1.86,2.52,1.78,2.59,1.67,2.65,1.58,2.73,1.48,2.78,1.37,2.84,1.27,2.9,1.16,2.95,1.05,3.01.94,3.06.81,3.1.7,3.14.58,3.19.46,3.23.32,3.26.2,3.3.07,3.3-.07,3.26-.2,3.22-.33,3.19-.46,3.15-.58,3.1-.7,3.05-.82,3-.94,2.96-1.05,2.89-1.16,2.85-1.27,2.78-1.37,2.72-1.48,2.65-1.58,2.59-1.68,2.51-1.77,2.45-1.87,2.37-1.95,2.29-2.05,2.21-2.13,2.13-2.21,2.05-2.29,1.95-2.37,1.87-2.45,1.77-2.51,1.68-2.59,1.58-2.65,1.48-2.72,1.37-2.79,1.27-2.84,1.16-2.89,1.05-2.96.94-3,.82-3.05.7-3.11.58-3.14.46-3.19.33-3.22.2-3.26.07-3.3-.07-3.3-.2-3.26-.32-3.23-.46-3.19-.58-3.14-.7-3.11-.81-3.05-.94-3.01-1.05-2.95-1.16-2.9-1.27-2.84-1.37-2.78-1.48-2.73-1.58-2.65-1.67-2.59-1.78-2.52-1.86-2.44L380.74,314l-2.04-2.3-2.13-2.21-2.21-2.13-2.3-2.04-2.37-1.96-2.44-1.86-2.52-1.78-2.59-1.67-2.65-1.58-2.73-1.48-2.78-1.38-2.84-1.26-2.9-1.16-2.95-1.05-3.01-.94-3.06-.82-3.1-.69-3.14-.58-3.19-.46-3.23-.33-3.26-.19-3.3-.07-3.3.07Z" fill="#fff"/>
        <g id="Group_9" data-name="Group 9">
          <path id="Path_19" data-name="Path 19" d="M327.87,270.39l3.87.39,3.82.55,3.78.7,3.72.84,3.66.98,3.61,1.13,3.54,1.26,3.48,1.39,3.41,1.52,3.34,1.65,3.26,1.78,3.18,1.89,3.11,2.02,3.02,2.12,2.93,2.24,2.85,2.35,2.75,2.45,2.65,2.56,2.56,2.65,2.45,2.75,2.35,2.85,2.24,2.93,2.12,3.02,2.02,3.11,1.89,3.18,1.77,3.26,1.66,3.34,1.52,3.41,1.39,3.48,1.26,3.54,1.13,3.61.98,3.66.84,3.72.7,3.78.55,3.82.39,3.87.25,3.91.08,3.96-.08,3.96-.24,3.91-.39,3.88-.55,3.82-.69,3.78-.84,3.72-.98,3.67-1.12,3.6-1.26,3.55-1.39,3.48-1.53,3.41-1.65,3.34-1.77,3.26-1.89,3.19-2.02,3.1-2.12,3.03-2.24,2.93-2.35,2.85-2.45,2.75-2.56,2.65-2.65,2.56-2.75,2.45-2.85,2.35-2.93,2.24-3.03,2.12-3.1,2.02-3.19,1.89-3.26,1.77-3.34,1.65-3.41,1.53-3.48,1.39-3.55,1.26-3.6,1.12-3.67.98-3.72.84-3.78.69-3.82.55-3.88.39-3.91.24-3.96.08-3.96-.08-3.91-.24-3.88-.39-3.82-.55-3.78-.69-3.72-.84-3.67-.98-3.6-1.12-3.55-1.26-3.48-1.39-3.41-1.53-3.34-1.65-3.26-1.77-3.19-1.89-3.1-2.02-3.03-2.12-2.93-2.24-2.85-2.35-2.75-2.45-2.65-2.56-2.56-2.65-2.45-2.75-2.35-2.85-2.24-2.93-2.12-3.03-2.02-3.1-1.89-3.19-1.77-3.26-1.65-3.34-1.53-3.41-1.39-3.48-1.26-3.55-1.12-3.6-.98-3.67-.84-3.72-.69-3.78-.55-3.82-.39-3.88-.24-3.91-.08-3.96.08-3.96.24-3.91.39-3.88.55-3.82.69-3.78.84-3.72.98-3.67,1.12-3.6,1.26-3.55,1.39-3.48,1.53-3.41,1.65-3.34,1.77-3.26,1.89-3.19,2.02-3.1,2.12-3.03,2.24-2.93,2.35-2.85,2.45-2.75,2.56-2.65,2.65-2.56,2.75-2.45,2.85-2.35,2.93-2.24,3.03-2.13,3.1-2.01,3.19-1.89,3.26-1.77,3.34-1.65,3.41-1.53,3.48-1.39,3.55-1.26,3.6-1.12,3.67-.98,3.72-.84,3.78-.69,3.82-.55,3.88-.39,3.91-.24,3.96-.08,3.96.08Zm-14.43,15.93-3.23.33-3.19.46-3.14.58-3.1.69-3.06.82-3.01.94-2.95,1.05-2.9,1.16-2.84,1.26-2.78,1.38-2.73,1.48-2.65,1.58-2.59,1.67-2.52,1.78-2.44,1.86-2.37,1.96-2.3,2.04-2.21,2.13-2.13,2.21-2.04,2.3-1.96,2.37-1.86,2.44-1.78,2.52-1.67,2.59-1.58,2.65-1.48,2.73-1.37,2.78-1.27,2.84-1.16,2.9-1.05,2.95-.94,3.01-.81,3.05-.7,3.11-.58,3.14-.46,3.19-.32,3.23-.2,3.26-.07,3.3.07,3.3.2,3.26.32,3.23.46,3.19.58,3.14.7,3.1.81,3.06.94,3.01,1.05,2.95,1.16,2.9,1.27,2.84,1.37,2.78,1.48,2.72,1.58,2.66,1.67,2.59,1.78,2.52,1.86,2.44,1.96,2.37,2.04,2.3,2.13,2.21,2.21,2.13,2.3,2.04,2.37,1.96,2.44,1.86,2.52,1.78,2.59,1.67,2.65,1.58,2.73,1.48,2.78,1.37,2.84,1.27,2.9,1.16,2.95,1.05,3.01.94,3.06.81,3.1.7,3.14.58,3.19.46,3.23.32,3.26.2,3.3.07,3.3-.07,3.26-.2,3.22-.33,3.19-.46,3.15-.58,3.1-.7,3.05-.82,3-.94,2.96-1.05,2.89-1.16,2.85-1.27,2.78-1.37,2.72-1.48,2.65-1.58,2.59-1.68,2.51-1.77,2.45-1.87,2.37-1.95,2.29-2.05,2.21-2.13,2.13-2.21,2.05-2.29,1.95-2.37,1.87-2.45,1.77-2.51,1.68-2.59,1.58-2.65,1.48-2.72,1.37-2.79,1.27-2.84,1.16-2.89,1.05-2.96.94-3,.82-3.05.7-3.11.58-3.14.46-3.19.33-3.22.2-3.26.07-3.3-.07-3.3-.2-3.26-.32-3.23-.46-3.19-.58-3.14-.7-3.11-.81-3.05-.94-3.01-1.05-2.95-1.16-2.9-1.27-2.84-1.37-2.78-1.48-2.73-1.58-2.65-1.67-2.59-1.78-2.52-1.86-2.44L380.74,314l-2.04-2.3-2.13-2.21-2.21-2.13-2.3-2.04-2.37-1.96-2.44-1.86-2.52-1.78-2.59-1.67-2.65-1.58-2.73-1.48-2.78-1.38-2.84-1.26-2.9-1.16-2.95-1.05-3.01-.94-3.06-.82-3.1-.69-3.14-.58-3.19-.46-3.23-.33-3.26-.19-3.3-.07-3.3.07Z" fill="#fff" stroke="rgba(0,0,0,0)" stroke-width="1"/>
        </g>
      </g>
      <g id="Group_12" data-name="Group 12">
        <path id="Path_20" data-name="Path 20" d="M323.94,318.22l1.93.2,1.91.27,1.89.35,1.86.42,1.83.5,1.8.56,1.78.63,1.74.69,1.7.77,1.67.82,1.63.89,1.59.95,1.56,1,1.51,1.07,1.46,1.11,1.42,1.18,1.38,1.23,1.33,1.27,1.27,1.33,1.23,1.38,1.17,1.42,1.12,1.46,1.07,1.51,1,1.56.95,1.59.89,1.63.82,1.67.77,1.7.69,1.74.63,1.77.56,1.81.5,1.83.42,1.86.35,1.89.27,1.91.2,1.93.12,1.96.04,1.98-.04,1.98-.12,1.96-.2,1.93-.27,1.92-.35,1.88-.42,1.86-.49,1.84-.56,1.8-.63,1.77-.69,1.74-.76,1.71-.83,1.67-.88,1.63-.95,1.59-1.01,1.56-1.06,1.51-1.12,1.47-1.17,1.42-1.23,1.37L353.94,400l-1.33,1.28-1.37,1.23-1.42,1.17-1.47,1.12-1.51,1.06-1.56,1.01-1.59.95-1.63.88-1.67.83-1.71.76-1.74.69-1.77.63-1.8.56-1.84.49-1.86.42-1.88.35-1.92.27-1.93.2-1.96.12-1.98.04-1.98-.04-1.96-.12-1.93-.2-1.92-.27-1.88-.35-1.86-.42-1.84-.49-1.8-.56-1.77-.63-1.74-.69-1.71-.76-1.67-.83-1.63-.88-1.59-.95-1.56-1.01-1.51-1.06-1.47-1.12-1.42-1.17-1.37-1.23L286.06,400l-1.28-1.33-1.23-1.37-1.17-1.42-1.12-1.47-1.06-1.51-1.01-1.56-.95-1.59-.88-1.63-.83-1.67-.76-1.71-.69-1.74-.63-1.77-.56-1.8-.49-1.84-.42-1.86-.35-1.88-.27-1.92-.2-1.93-.12-1.96-.04-1.98.04-1.98.12-1.96.2-1.93.27-1.92.35-1.88.42-1.87.49-1.83.56-1.8.63-1.77.69-1.74.76-1.71.83-1.67.88-1.63.95-1.59,1.01-1.56,1.06-1.51,1.12-1.47,1.17-1.42,1.23-1.37,1.28-1.33,1.33-1.28,1.37-1.23,1.42-1.17,1.47-1.12,1.51-1.06,1.56-1.01,1.59-.95,1.63-.88,1.67-.83,1.71-.76,1.74-.69,1.77-.63,1.8-.56,1.84-.5,1.86-.42,1.88-.34,1.92-.27,1.93-.2,1.96-.12,1.98-.04,1.98.04Zm-6.56,15.95-1.3.13-1.27.18-1.26.23-1.24.28-1.22.33-1.2.37-1.19.42-1.16.46-1.13.51-1.12.55-1.08.59-1.07.63-1.03.67-1.01.71-.98.75-.95.78-.91.82-.89.85-.85.89-.82.91-.78.95-.75.98-.7,1.01-.68,1.03-.63,1.07-.59,1.08-.55,1.12-.51,1.13-.46,1.16-.42,1.19-.37,1.2-.33,1.22-.28,1.24-.23,1.26-.18,1.27-.13,1.3-.08,1.3-.03,1.32.03,1.32.08,1.3.13,1.3.18,1.27.23,1.26.28,1.24.33,1.22.37,1.2.42,1.19.46,1.16.51,1.13.55,1.12.59,1.08.63,1.07.68,1.03.7,1.01.75.98.78.94.82.92.85.89.89.85.91.82.95.78.98.75,1.01.7,1.03.68,1.07.63,1.08.59,1.12.55,1.13.5,1.16.47,1.19.42,1.2.37,1.22.33,1.24.28,1.26.23,1.27.18,1.3.13,1.3.08,1.32.03,1.32-.03,1.3-.08,1.3-.13,1.27-.18,1.26-.23,1.24-.28,1.22-.33,1.2-.37,1.19-.42,1.16-.47,1.13-.5,1.12-.55,1.08-.59,1.07-.63,1.03-.68,1.01-.7.98-.75.95-.78.91-.82.89-.85.85-.89.82-.92.78-.94.75-.98.7-1.01.68-1.03.63-1.07.59-1.08.55-1.12.51-1.13.46-1.16.42-1.19.37-1.2.33-1.22.28-1.24.23-1.26.18-1.27.13-1.3.08-1.3.03-1.32-.03-1.32-.08-1.3-.13-1.3-.18-1.27-.23-1.26-.28-1.24-.33-1.22-.37-1.2-.42-1.19-.46-1.16-.51-1.13-.55-1.12-.59-1.08-.63-1.07-.68-1.03-.7-1.01-.75-.98-.78-.95-.82-.91-.85-.89-.89-.85-.91-.82-.95-.78-.98-.75-1.01-.71-1.03-.67-1.07-.63-1.08-.59-1.12-.55-1.13-.51-1.16-.46-1.19-.42-1.2-.37-1.22-.33-1.24-.28-1.26-.23-1.27-.18-1.3-.13-1.3-.08-1.32-.03-1.32.03Z" fill="#fff"/>
        <g id="Group_11" data-name="Group 11">
          <path id="Path_21" data-name="Path 21" d="M323.94,318.22l1.93.2,1.91.27,1.89.35,1.86.42,1.83.5,1.8.56,1.78.63,1.74.69,1.7.77,1.67.82,1.63.89,1.59.95,1.56,1,1.51,1.07,1.46,1.11,1.42,1.18,1.38,1.23,1.33,1.27,1.27,1.33,1.23,1.38,1.17,1.42,1.12,1.46,1.07,1.51,1,1.56.95,1.59.89,1.63.82,1.67.77,1.7.69,1.74.63,1.77.56,1.81.5,1.83.42,1.86.35,1.89.27,1.91.2,1.93.12,1.96.04,1.98-.04,1.98-.12,1.96-.2,1.93-.27,1.92-.35,1.88-.42,1.86-.49,1.84-.56,1.8-.63,1.77-.69,1.74-.76,1.71-.83,1.67-.88,1.63-.95,1.59-1.01,1.56-1.06,1.51-1.12,1.47-1.17,1.42-1.23,1.37L353.94,400l-1.33,1.28-1.37,1.23-1.42,1.17-1.47,1.12-1.51,1.06-1.56,1.01-1.59.95-1.63.88-1.67.83-1.71.76-1.74.69-1.77.63-1.8.56-1.84.49-1.86.42-1.88.35-1.92.27-1.93.2-1.96.12-1.98.04-1.98-.04-1.96-.12-1.93-.2-1.92-.27-1.88-.35-1.86-.42-1.84-.49-1.8-.56-1.77-.63-1.74-.69-1.71-.76-1.67-.83-1.63-.88-1.59-.95-1.56-1.01-1.51-1.06-1.47-1.12-1.42-1.17-1.37-1.23L286.06,400l-1.28-1.33-1.23-1.37-1.17-1.42-1.12-1.47-1.06-1.51-1.01-1.56-.95-1.59-.88-1.63-.83-1.67-.76-1.71-.69-1.74-.63-1.77-.56-1.8-.49-1.84-.42-1.86-.35-1.88-.27-1.92-.2-1.93-.12-1.96-.04-1.98.04-1.98.12-1.96.2-1.93.27-1.92.35-1.88.42-1.87.49-1.83.56-1.8.63-1.77.69-1.74.76-1.71.83-1.67.88-1.63.95-1.59,1.01-1.56,1.06-1.51,1.12-1.47,1.17-1.42,1.23-1.37,1.28-1.33,1.33-1.28,1.37-1.23,1.42-1.17,1.47-1.12,1.51-1.06,1.56-1.01,1.59-.95,1.63-.88,1.67-.83,1.71-.76,1.74-.69,1.77-.63,1.8-.56,1.84-.5,1.86-.42,1.88-.34,1.92-.27,1.93-.2,1.96-.12,1.98-.04,1.98.04Zm-6.56,15.95-1.3.13-1.27.18-1.26.23-1.24.28-1.22.33-1.2.37-1.19.42-1.16.46-1.13.51-1.12.55-1.08.59-1.07.63-1.03.67-1.01.71-.98.75-.95.78-.91.82-.89.85-.85.89-.82.91-.78.95-.75.98-.7,1.01-.68,1.03-.63,1.07-.59,1.08-.55,1.12-.51,1.13-.46,1.16-.42,1.19-.37,1.2-.33,1.22-.28,1.24-.23,1.26-.18,1.27-.13,1.3-.08,1.3-.03,1.32.03,1.32.08,1.3.13,1.3.18,1.27.23,1.26.28,1.24.33,1.22.37,1.2.42,1.19.46,1.16.51,1.13.55,1.12.59,1.08.63,1.07.68,1.03.7,1.01.75.98.78.94.82.92.85.89.89.85.91.82.95.78.98.75,1.01.7,1.03.68,1.07.63,1.08.59,1.12.55,1.13.5,1.16.47,1.19.42,1.2.37,1.22.33,1.24.28,1.26.23,1.27.18,1.3.13,1.3.08,1.32.03,1.32-.03,1.3-.08,1.3-.13,1.27-.18,1.26-.23,1.24-.28,1.22-.33,1.2-.37,1.19-.42,1.16-.47,1.13-.5,1.12-.55,1.08-.59,1.07-.63,1.03-.68,1.01-.7.98-.75.95-.78.91-.82.89-.85.85-.89.82-.92.78-.94.75-.98.7-1.01.68-1.03.63-1.07.59-1.08.55-1.12.51-1.13.46-1.16.42-1.19.37-1.2.33-1.22.28-1.24.23-1.26.18-1.27.13-1.3.08-1.3.03-1.32-.03-1.32-.08-1.3-.13-1.3-.18-1.27-.23-1.26-.28-1.24-.33-1.22-.37-1.2-.42-1.19-.46-1.16-.51-1.13-.55-1.12-.59-1.08-.63-1.07-.68-1.03-.7-1.01-.75-.98-.78-.95-.82-.91-.85-.89-.89-.85-.91-.82-.95-.78-.98-.75-1.01-.71-1.03-.67-1.07-.63-1.08-.59-1.12-.55-1.13-.51-1.16-.46-1.19-.42-1.2-.37-1.22-.33-1.24-.28-1.26-.23-1.27-.18-1.3-.13-1.3-.08-1.32-.03-1.32.03Z" fill="#fff" stroke="rgba(0,0,0,0)" stroke-width="1"/>
        </g>
      </g>
      <g id="Group_14" data-name="Group 14">
        <path id="Path_22" data-name="Path 22" d="M232,94.06a8,8,0,0,0,0-16H200a8,8,0,0,0,0,16Z" fill="#fff"/>
        <g id="Group_13" data-name="Group 13">
          <path id="Path_23" data-name="Path 23" d="M232,94.06a8,8,0,0,0,0-16H200a8,8,0,0,0,0,16Z" fill="#fff" stroke="rgba(0,0,0,0)" stroke-width="1"/>
        </g>
      </g>
      <g id="Group_16" data-name="Group 16">
        <path id="Path_24" data-name="Path 24" d="M216,118.06a8,8,0,0,0,0-16H200a8,8,0,0,0,0,16Z" fill="#fff"/>
        <g id="Group_15" data-name="Group 15">
          <path id="Path_25" data-name="Path 25" d="M216,118.06a8,8,0,0,0,0-16H200a8,8,0,0,0,0,16Z" fill="#fff" stroke="rgba(0,0,0,0)" stroke-width="1"/>
        </g>
      </g>
      <g id="Group_18" data-name="Group 18">
        <path id="Path_26" data-name="Path 26" d="M264,94.06a8,8,0,0,0,0-16h-8a8,8,0,0,0,0,16Z" fill="#fff"/>
        <g id="Group_17" data-name="Group 17">
          <path id="Path_27" data-name="Path 27" d="M264,94.06a8,8,0,0,0,0-16h-8a8,8,0,0,0,0,16Z" fill="#fff" stroke="rgba(0,0,0,0)" stroke-width="1"/>
        </g>
      </g>
      <g id="Group_20" data-name="Group 20">
        <path id="Path_28" data-name="Path 28" d="M527.94,108.96c-1.32,5.3,1.1,5.85,5,7.65,52.9,24.46,88.44,91.95,88.44,167.94,0,75.92-35.48,143.41-88.27,167.95-3.89,1.8-5.97,7.56-4.64,12.88,1.06,4.21,3.95,6.87,7.05,6.87a5.49,5.49,0,0,0,2.4-.55c58.82-27.32,98.35-102.53,98.35-187.14.01-84.71-39.59-156.93-98.54-184.19C533.83,98.57,529.27,103.65,527.94,108.96Z" fill="#fff"/>
        <g id="Group_19" data-name="Group 19">
          <path id="Path_29" data-name="Path 29" d="M527.94,108.96c-1.32,5.3,1.1,5.85,5,7.65,52.9,24.46,88.44,91.95,88.44,167.94,0,75.92-35.48,143.41-88.27,167.95-3.89,1.8-5.97,7.56-4.64,12.88,1.06,4.21,3.95,6.87,7.05,6.87a5.49,5.49,0,0,0,2.4-.55c58.82-27.32,98.35-102.53,98.35-187.14.01-84.71-39.59-156.93-98.54-184.19C533.83,98.57,529.27,103.65,527.94,108.96Z" fill="#fff" stroke="rgba(0,0,0,0)" stroke-width="1"/>
        </g>
      </g>
      <g id="Group_22" data-name="Group 22">
        <path id="Path_30" data-name="Path 30" d="M501.58,148.11c-3.97-1.53-8.08,1.55-9.22,6.94s1.13,11.01,5.09,12.56c36.42,14.34,61.86,60.4,61.86,112.01s-25.44,97.67-61.86,112c-3.95,1.56-6.23,7.19-5.09,12.56.94,4.45,3.91,7.34,7.15,7.34a5.636,5.636,0,0,0,2.07-.4c42.76-16.84,72.62-70.91,72.62-131.5S544.34,164.96,501.58,148.11Z" fill="#fff"/>
        <g id="Group_21" data-name="Group 21">
          <path id="Path_31" data-name="Path 31" d="M501.58,148.11c-3.97-1.53-8.08,1.55-9.22,6.94s1.13,11.01,5.09,12.56c36.42,14.34,61.86,60.4,61.86,112.01s-25.44,97.67-61.86,112c-3.95,1.56-6.23,7.19-5.09,12.56.94,4.45,3.91,7.34,7.15,7.34a5.636,5.636,0,0,0,2.07-.4c42.76-16.84,72.62-70.91,72.62-131.5S544.34,164.96,501.58,148.11Z" fill="#fff" stroke="rgba(0,0,0,0)" stroke-width="1"/>
        </g>
      </g>
      <g id="Group_24" data-name="Group 24">
        <path id="Path_32" data-name="Path 32" d="M111.88,108.96c1.32,5.3-1.1,5.85-5,7.65-52.9,24.46-88.44,91.95-88.44,167.94,0,75.92,35.48,143.41,88.27,167.95,3.89,1.8,5.97,7.56,4.64,12.88-1.06,4.21-3.95,6.87-7.05,6.87a5.554,5.554,0,0,1-2.4-.55C43.08,444.38,3.55,369.17,3.55,284.56c0-84.71,39.6-156.93,98.54-184.19C105.99,98.57,110.56,103.65,111.88,108.96Z" fill="#fff"/>
        <g id="Group_23" data-name="Group 23">
          <path id="Path_33" data-name="Path 33" d="M111.88,108.96c1.32,5.3-1.1,5.85-5,7.65-52.9,24.46-88.44,91.95-88.44,167.94,0,75.92,35.48,143.41,88.27,167.95,3.89,1.8,5.97,7.56,4.64,12.88-1.06,4.21-3.95,6.87-7.05,6.87a5.554,5.554,0,0,1-2.4-.55C43.08,444.38,3.55,369.17,3.55,284.56c0-84.71,39.6-156.93,98.54-184.19C105.99,98.57,110.56,103.65,111.88,108.96Z" fill="#fff" stroke="rgba(0,0,0,0)" stroke-width="1"/>
        </g>
      </g>
      <g id="Group_26" data-name="Group 26">
        <path id="Path_34" data-name="Path 34" d="M138.24,148.11c3.98-1.53,8.08,1.55,9.23,6.94s-1.14,11.01-5.1,12.56c-36.42,14.34-61.86,60.4-61.86,112.01s25.44,97.67,61.86,112c3.96,1.56,6.24,7.19,5.1,12.56-.95,4.45-3.92,7.34-7.16,7.34a5.636,5.636,0,0,1-2.07-.4c-42.76-16.84-72.62-70.91-72.62-131.5S95.49,164.96,138.24,148.11Z" fill="#fff"/>
        <g id="Group_25" data-name="Group 25">
          <path id="Path_35" data-name="Path 35" d="M138.24,148.11c3.98-1.53,8.08,1.55,9.23,6.94s-1.14,11.01-5.1,12.56c-36.42,14.34-61.86,60.4-61.86,112.01s25.44,97.67,61.86,112c3.96,1.56,6.24,7.19,5.1,12.56-.95,4.45-3.92,7.34-7.16,7.34a5.636,5.636,0,0,1-2.07-.4c-42.76-16.84-72.62-70.91-72.62-131.5S95.49,164.96,138.24,148.11Z" fill="#fff" stroke="rgba(0,0,0,0)" stroke-width="1"/>
        </g>
      </g>
    </g>
  </g>
</svg>
