<svg height="512" viewBox="0 0 64 64" width="512" xmlns="http://www.w3.org/2000/svg"><path d="m51 1h-38a1 1 0 0 0 -1 1v60a1 1 0 0 0 1 1h38a1 1 0 0 0 1-1v-60a1 1 0 0 0 -1-1zm-37 2h36v55h-36zm36 58h-36v-1h36z"/><path d="m39 4a10 10 0 1 0 10 10 10.011 10.011 0 0 0 -10-10zm0 18a8 8 0 1 1 8-8 8.009 8.009 0 0 1 -8 8z"/><path d="m39 9a5 5 0 1 0 5 5 5.006 5.006 0 0 0 -5-5zm0 8a3 3 0 1 1 3-3 3 3 0 0 1 -3 3z"/><path d="m32 25a16 16 0 1 0 16 16 16.019 16.019 0 0 0 -16-16zm0 30a14 14 0 1 1 14-14 14.015 14.015 0 0 1 -14 14z"/><path d="m32 29a12 12 0 1 0 12 12 12.013 12.013 0 0 0 -12-12zm0 22a10 10 0 1 1 10-10 10.011 10.011 0 0 1 -10 10z"/><path d="m32 35a6 6 0 1 0 6 6 6.006 6.006 0 0 0 -6-6zm0 10a4 4 0 1 1 4-4 4 4 0 0 1 -4 4z"/><path d="m17 7h4a1 1 0 0 0 0-2h-4a1 1 0 0 0 0 2z"/><path d="m17 10h2a1 1 0 0 0 0-2h-2a1 1 0 0 0 0 2z"/><path d="m24 7h1a1 1 0 0 0 0-2h-1a1 1 0 0 0 0 2z"/></svg>